<svg xmlns="http://www.w3.org/2000/svg" width="100%" height="100%" preserveAspectRatio="xMidYMid meet" viewBox="0 0 768 768" fill="currentColor">
<path 
	d="
M122.288033,312.440247 
	C135.903580,267.434814 159.518188,229.058105 192.798996,196.395386 
	C208.291000,181.191116 223.917404,166.255859 242.144211,154.334457 
	C272.830139,134.264069 306.222198,121.505806 342.659851,116.499084 
	C382.677795,111.000404 422.089935,113.511238 460.671265,125.247292 
	C492.599457,134.959549 521.474609,150.819717 546.511536,172.979782 
	C572.279114,195.786606 596.342773,220.243118 614.009949,250.176178 
	C632.677246,281.803680 645.108887,315.691742 649.322693,352.266998 
	C657.610291,424.203186 639.404297,489.252106 595.219604,546.239380 
	C565.287659,584.844177 528.856750,616.313049 483.097839,635.611328 
	C455.534821,647.235718 426.940704,654.089233 397.007965,655.461731 
	C340.164215,658.068359 287.572937,644.398376 240.293549,612.809082 
	C202.457275,587.529053 171.067307,555.396667 147.461639,516.314087 
	C128.104874,484.266144 116.543030,449.385376 112.591049,412.025879 
	C109.020805,378.275208 113.002357,345.314056 122.288033,312.440247 
M258.184082,157.711761 
	C255.919739,159.117111 253.652161,160.517258 251.391556,161.928619 
	C229.552505,175.563400 211.597687,193.664093 193.877060,212.022644 
	C161.650467,245.409363 140.366058,284.764130 129.609024,329.878479 
	C122.739243,358.689972 120.702682,387.894653 124.689194,417.160370 
	C130.793640,461.974274 147.615051,502.562866 176.346573,537.764709 
	C206.533768,574.750183 241.442459,605.992493 286.137970,624.639954 
	C322.335297,639.742065 360.045197,646.227478 399.312195,644.036987 
	C426.924042,642.496643 453.289764,635.908203 478.565216,625.172791 
	C527.779602,604.269531 565.595581,569.226501 595.581299,525.963196 
	C630.106567,476.150360 644.206665,420.276306 638.763000,359.781525 
	C635.454712,323.017731 623.321411,289.008636 604.863159,257.235992 
	C592.044006,235.169968 575.100403,216.386261 557.077454,198.456818 
	C537.804688,179.283997 516.759216,162.572189 492.354828,150.437378 
	C449.949066,129.351593 404.981598,122.187782 357.991180,126.132454 
	C322.567841,129.106094 289.507538,139.428696 258.184082,157.711761 
z"/>
<path 
	d="
M362.814331,590.013184 
	C354.206451,570.118958 349.287659,549.578979 346.086456,528.635498 
	C342.895782,507.761292 342.209229,486.681824 342.722626,464.392548 
	C336.703979,471.167084 331.596497,477.001801 326.396912,482.753265 
	C307.748077,503.381592 287.362457,521.914062 262.722382,535.283936 
	C252.022156,541.090027 241.058167,546.309937 229.442902,550.045349 
	C220.417847,552.947632 217.315994,550.215210 219.259735,541.082703 
	C224.865128,514.746094 236.562302,491.168701 252.045853,469.362366 
	C262.595367,454.504883 275.091400,441.320984 287.923981,428.447296 
	C289.296448,427.070435 290.608459,425.633301 292.792053,423.337006 
	C283.234802,422.962555 274.843628,422.733582 266.463928,422.288422 
	C227.944748,420.242035 190.927551,412.506195 157.064972,393.048218 
	C153.703018,391.116394 149.021225,389.952087 148.894516,385.157318 
	C148.764832,380.250427 153.546829,379.041565 156.850372,377.124725 
	C181.241745,362.971954 207.871521,355.406799 235.454956,350.662781 
	C253.719177,347.521576 272.181061,346.896973 290.630798,346.095337 
	C294.594788,345.923126 298.572662,346.070221 302.914886,346.070221 
	C300.690155,342.759583 297.436035,340.532867 294.639465,337.911346 
	C272.699921,317.345215 251.776077,295.940430 236.787079,269.491180 
	C228.949829,255.661804 222.583344,241.234589 218.552780,225.827682 
	C216.481812,217.911362 219.194077,215.118515 227.277084,217.044510 
	C245.939606,221.491379 263.093964,229.542038 279.263702,239.658768 
	C300.741394,253.096405 319.426147,269.861664 336.289703,288.707886 
	C337.621063,290.195770 339.059753,291.589111 340.482758,292.991730 
	C340.675293,293.181519 341.068665,293.167542 341.861633,293.379761 
	C341.861633,290.330902 341.874298,287.403931 341.859711,284.477051 
	C341.689148,250.286652 345.603729,216.740875 357.438843,184.411072 
	C362.041260,171.838715 368.059082,159.987946 375.128937,148.651230 
	C379.317413,141.934921 383.239655,141.813477 387.516998,148.423782 
	C402.682220,171.860535 411.292023,197.783386 416.275269,225.046539 
	C419.333954,241.780716 420.126831,258.736877 420.921143,275.679169 
	C421.205383,281.741943 420.966705,287.829224 420.966705,294.166443 
	C423.568726,293.726715 424.507996,291.610046 425.855804,290.072205 
	C449.880920,262.659668 476.229034,238.199707 510.155029,223.267502 
	C518.711365,219.501511 527.423828,216.209152 536.507874,214.003281 
	C545.015991,211.937256 547.361877,214.287247 545.700378,222.843231 
	C543.784058,232.711777 540.360046,242.116272 536.301025,251.233871 
	C525.630127,275.203430 511.089508,296.588776 492.638763,315.304016 
	C482.719238,325.365723 472.446136,335.059753 460.946289,345.617462 
	C465.208923,345.617462 468.127808,345.678192 471.043579,345.608154 
	C503.913879,344.818329 536.148804,348.723328 567.543030,358.732361 
	C582.043701,363.355438 595.813416,369.648682 608.817017,377.548065 
	C616.281494,382.082550 616.248169,385.736328 608.832947,390.198456 
	C585.717285,404.108337 560.642578,412.629181 534.160095,417.311981 
	C515.925232,420.536377 497.575684,422.351959 479.051178,422.315155 
	C476.759155,422.310608 474.467133,422.314545 470.988342,422.314545 
	C476.409943,427.996979 480.856750,432.863068 485.520386,437.511688 
	C511.653656,463.560791 531.884277,493.284943 542.651245,528.924438 
	C543.708679,532.424377 544.566711,535.984497 545.516907,539.516785 
	C546.348511,542.608643 547.312012,545.845825 544.697205,548.468994 
	C541.866760,551.308411 538.747192,549.422852 535.849915,548.353821 
	C515.409729,540.811829 496.385742,530.640991 478.809937,517.731140 
	C458.686920,502.950409 441.293793,485.305511 424.800507,466.697601 
	C424.035431,465.834473 423.372681,464.880707 422.752258,464.084656 
	C420.541534,465.097870 421.236847,466.629395 421.252930,467.774597 
	C421.543396,488.460114 420.499084,509.083313 417.250610,529.507751 
	C412.565613,558.963684 404.296906,587.290466 388.952637,613.175964 
	C384.247009,621.114319 380.280182,621.109070 375.056549,613.334717 
	C370.199280,606.105652 366.895905,598.070923 362.814331,590.013184 
M314.342957,415.668976 
	C314.705292,418.487976 313.238037,420.542236 311.259308,422.145508 
	C299.432556,431.728455 289.099945,442.817078 278.852356,454.001984 
	C259.734406,474.868561 244.709274,498.279572 234.842392,524.875305 
	C233.388107,528.795288 231.754883,532.752380 231.704239,537.741821 
	C240.098099,535.050842 247.297623,531.305969 254.452301,527.440796 
	C283.251587,511.882751 306.044830,489.355438 327.124878,464.842651 
	C332.554901,458.528381 337.883087,452.126404 343.319244,445.817474 
	C345.246979,443.580170 347.605560,441.844757 350.748016,442.971008 
	C353.966888,444.124664 354.417236,446.942200 354.316223,449.952423 
	C354.249176,451.950378 354.304047,453.952057 354.274963,455.951660 
	C353.870026,483.767029 353.847595,511.552612 359.321167,539.017822 
	C363.434235,559.656433 368.873962,579.841248 378.999939,598.478577 
	C379.755402,599.869019 380.080658,601.685608 382.029755,602.192810 
	C383.983429,601.125854 384.426270,599.046692 385.291168,597.319275 
	C402.192719,563.563904 407.617371,527.155945 409.556580,490.051392 
	C410.251495,476.755310 409.688019,463.392273 409.651611,450.059937 
	C409.642639,446.770508 409.779022,443.458191 413.342194,442.053253 
	C416.978180,440.619629 419.253174,443.151276 421.408539,445.571472 
	C428.721619,453.782990 435.970398,462.052856 443.363617,470.191589 
	C466.200562,495.331360 492.068604,516.583313 522.709778,531.650574 
	C526.031677,533.284058 529.465820,534.689392 533.940125,536.688538 
	C532.057068,531.058899 530.793640,526.748291 529.188721,522.568848 
	C517.385986,491.832336 498.300812,465.987335 475.321381,442.797058 
	C468.169220,435.579224 460.986786,428.388794 453.254211,421.768402 
	C451.226837,420.032593 449.364868,417.824951 450.440033,414.813568 
	C451.566803,411.657593 454.360535,410.986420 457.333405,410.880280 
	C458.997650,410.820862 460.666138,410.893005 462.332123,410.867249 
	C475.649414,410.661346 488.954254,411.007874 502.281036,409.909393 
	C526.281250,407.931122 549.805298,403.944580 572.451355,395.567505 
	C580.955750,392.421692 589.376160,389.031006 597.564148,384.172729 
	C596.600159,383.309631 596.185181,382.783112 595.644714,382.481720 
	C593.609802,381.346985 591.568542,380.213623 589.468384,379.207520 
	C559.214050,364.714142 526.863892,359.500671 493.766510,357.242249 
	C478.759003,356.218201 463.809326,357.041809 448.833130,357.261719 
	C445.502411,357.310608 442.241974,356.835846 440.958405,353.292328 
	C439.759857,349.983643 441.801880,347.508331 444.180573,345.509247 
	C454.652649,336.708374 464.334686,327.055145 474.237762,317.646057 
	C495.313934,297.621307 513.080994,275.078522 525.529541,248.645844 
	C528.883179,241.524887 531.641357,234.129929 533.663635,226.403381 
	C531.026367,225.925919 529.372437,226.869400 527.695251,227.505081 
	C503.388824,236.717148 481.893463,250.473648 462.832031,268.049622 
	C447.619415,282.076691 433.514893,297.158325 420.782288,313.489716 
	C418.680176,316.186035 416.250092,318.226105 412.725189,316.977142 
	C409.117950,315.699097 408.779480,312.387115 408.830566,309.087280 
	C408.856323,307.421051 408.856049,305.750885 408.974823,304.090179 
	C410.561005,281.913666 409.573090,259.800659 406.614655,237.816116 
	C403.221405,212.600571 396.795013,188.198166 385.100067,165.411163 
	C384.092010,163.447006 383.431549,161.119781 380.881531,159.980453 
	C379.791290,161.808105 378.714508,163.303253 377.953827,164.944839 
	C375.364441,170.532684 372.652985,176.080444 370.404236,181.806900 
	C356.471954,217.285675 352.471008,254.344101 353.486511,292.100586 
	C353.660492,298.569153 354.279175,305.052094 354.386871,311.546356 
	C354.427063,313.968567 353.480957,315.840546 351.342010,316.836365 
	C349.216187,317.826019 347.038727,317.367828 345.228302,315.939545 
	C344.066559,315.023010 343.068481,313.864319 342.127289,312.708130 
	C328.418091,295.868042 313.438599,280.298218 296.739227,266.364655 
	C279.592804,252.058075 260.961151,240.278320 240.208389,231.946152 
	C237.199997,230.738297 234.238922,229.258408 230.319000,228.981598 
	C231.909653,233.142105 233.167633,236.743622 234.646469,240.252060 
	C248.583878,273.317841 270.814270,300.273743 296.791016,324.459778 
	C304.838867,331.952820 312.902252,339.429169 320.937500,346.935699 
	C323.002106,348.864502 324.336639,351.271790 323.380981,354.074707 
	C322.390900,356.978699 319.646118,357.644409 316.900513,357.926392 
	C315.744507,358.045074 314.562653,358.097351 313.406769,358.003906 
	C295.738831,356.575348 278.144501,357.772186 260.530731,359.184570 
	C234.836044,361.244934 209.800293,366.239990 185.620712,375.242676 
	C178.563782,377.870209 171.542114,380.649811 164.567245,385.092377 
	C167.710678,386.700623 170.054260,387.947266 172.437866,389.111938 
	C205.145233,405.093750 240.263779,410.101746 276.092133,411.606354 
	C286.405365,412.039490 296.754333,411.627472 307.086884,411.589294 
	C309.995056,411.578522 312.854553,411.622009 314.342957,415.668976 
z"/>
<path 
	d="
M628.297913,351.099182 
	C627.960083,356.049194 629.108093,360.661804 626.706848,365.131256 
	C623.002502,340.793182 617.942627,316.911713 608.641663,294.122955 
	C599.369995,271.405853 586.366516,250.828674 572.062927,230.908188 
	C576.664795,231.819458 579.153992,235.158264 581.750854,238.170425 
	C597.019592,255.881058 608.657227,275.753052 616.813721,297.672821 
	C623.177307,314.774170 627.133240,332.388672 628.297913,351.099182 
z"/>
<path 
	d="
M168.754364,514.171021 
	C152.980972,489.852478 141.827789,464.058472 137.148254,435.664459 
	C135.792252,427.436615 135.502029,419.116486 135.019623,410.814453 
	C134.913391,408.986481 135.196991,407.194183 137.061066,405.457397 
	C141.165955,428.690063 145.354645,451.849213 154.337097,473.757263 
	C163.339539,495.714081 176.220078,515.516968 189.479156,535.777039 
	C184.822845,535.153992 179.808304,529.725220 168.754364,514.171021 
z"/>
<path 
	d="
M414.425049,633.359863 
	C410.962860,633.341309 407.799316,634.493713 404.861511,631.784729 
	C427.184113,627.658691 449.228455,622.735107 470.300629,614.204590 
	C491.483582,605.629333 510.561676,593.287109 529.855225,580.210938 
	C530.729309,583.417786 529.088013,584.310425 527.967041,585.318665 
	C499.316498,611.085999 465.797638,626.489502 427.785248,632.311218 
	C423.501892,632.967224 419.212494,633.488953 414.425049,633.359863 
z"/>
<path 
	d="
M601.438965,482.307739 
	C591.632690,502.669495 581.265991,522.187439 563.933533,537.535645 
	C562.333557,534.256775 564.299500,532.866211 565.320984,531.394897 
	C575.207153,517.155457 584.478699,502.565460 592.005920,486.904724 
	C601.417603,467.323212 608.684509,447.036957 612.721802,425.645508 
	C613.460083,421.733490 613.507751,421.742493 616.420044,417.925812 
	C616.031921,441.232056 610.263550,461.916718 601.438965,482.307739 
z"/>
<path 
	d="
M299.534210,152.614594 
	C276.174896,161.233749 255.503159,174.055618 235.244888,187.649994 
	C244.041779,164.260040 330.109314,128.954163 356.099030,138.292953 
	C337.043610,141.817307 318.146271,145.933670 299.534210,152.614594 
z"/>
<path 
	d="
M155.021194,325.890839 
	C152.821457,334.680328 150.728043,343.076416 148.342453,352.644379 
	C139.747253,329.792633 180.560776,236.835693 199.640503,234.175812 
	C199.835770,237.579010 197.378433,239.606903 195.766235,241.877335 
	C177.572647,267.499207 163.819427,295.264801 155.021194,325.890839 
z"/>
<path 
	d="
M313.179321,609.726257 
	C324.143250,613.650574 335.194519,615.937195 346.396271,619.276733 
	C344.507965,622.231201 342.165710,621.322388 340.293549,621.101562 
	C311.527130,617.708801 285.157532,607.682739 260.830231,592.106812 
	C253.955246,587.705017 247.178741,583.149658 241.170486,577.579895 
	C239.564392,576.091003 237.495300,574.730469 237.846344,570.395020 
	C261.753418,586.957397 285.978760,600.863586 313.179321,609.726257 
z"/>
<path 
	d="
M596.574463,510.529663 
	C593.879639,513.577698 592.502258,517.417053 588.484131,519.059265 
	C587.310547,516.416992 588.989746,514.702026 590.032166,513.014343 
	C608.211548,483.582458 619.449036,451.659393 624.426941,417.484833 
	C625.023987,413.386566 624.747131,409.162964 626.181519,405.187683 
	C626.269653,404.943573 626.690063,404.819427 627.321655,404.391815 
	C629.531494,406.583984 629.274780,409.419647 629.144470,412.086395 
	C627.972595,436.068848 622.727112,459.105316 613.103699,481.140320 
	C608.626709,491.391541 603.395874,501.194397 596.574463,510.529663 
z"/>
<path 
	d="
M442.906647,149.798721 
	C473.129700,156.234879 500.205963,168.455292 523.999451,187.619080 
	C527.181641,190.182053 531.012024,192.416183 531.655334,197.598663 
	C498.382080,173.570587 461.695099,157.688568 421.661072,149.082642 
	C428.851959,146.755066 435.629547,149.154129 442.906647,149.798721 
z"/>
<path 
	d="
M152.790344,452.986877 
	C150.843018,443.098175 148.086975,433.715088 149.886261,423.600098 
	C158.648605,464.268860 177.027298,500.457794 200.577164,534.293640 
	C188.328842,530.943420 162.154892,485.759827 152.790344,452.986877 
z"/>
<path 
	d="
M603.878540,311.979675 
	C595.513611,286.752258 583.296753,263.846313 568.046204,241.146530 
	C587.581848,248.571671 619.833130,323.085052 614.003113,346.000061 
	C609.733093,335.080597 608.280029,323.270813 603.878540,311.979675 
z"/>
<path 
	d="
M523.894836,575.936157 
	C497.346832,600.500000 443.251892,624.286316 424.844421,618.936707 
	C442.426208,612.908020 460.291565,607.679871 477.141907,599.664062 
	C493.859100,591.711487 509.483673,581.856873 525.299927,571.921570 
	C526.108704,574.305359 524.785950,574.826721 523.894836,575.936157 
z"/>
<path 
	d="
M155.159485,292.115967 
	C145.947433,315.122620 140.780365,338.748016 137.878036,363.391174 
	C126.722237,348.829376 152.999023,266.205566 172.316010,256.671356 
	C166.325699,269.051422 159.944275,280.009430 155.159485,292.115967 
z"/>
<path 
	d="
M457.315552,148.806976 
	C441.881134,144.176071 426.455475,141.301895 410.024506,138.904892 
	C426.084167,128.730057 505.574768,155.419968 512.809204,173.572922 
	C494.541595,163.372543 476.809631,154.534592 457.315552,148.806976 
z"/>
<path 
	d="
M337.800079,149.255371 
	C339.471832,152.223724 336.863037,151.940811 335.580292,152.267929 
	C326.869659,154.489182 318.225830,156.914185 309.742828,159.903580 
	C287.317871,167.806107 266.448578,178.823166 246.350769,191.411575 
	C244.771912,192.400497 243.393661,194.141678 240.724503,193.637314 
	C242.079025,190.449066 244.642746,188.641479 247.049179,186.816803 
	C270.857391,168.764130 296.857208,155.419907 326.563629,150.162079 
	C330.156525,149.526154 333.764252,148.782898 337.800079,149.255371 
z"/>
<path 
	d="
M272.260559,609.840576 
	C267.107117,606.311951 261.634613,603.721497 258.649048,597.825562 
	C274.401398,605.362122 289.934418,613.220154 306.495361,618.674011 
	C322.971008,624.099731 339.945251,627.462891 358.402863,630.376648 
	C346.466888,635.665283 302.351562,627.825378 272.260559,609.840576 
z"/>
<path 
	d="
M358.822662,278.890167 
	C358.327271,250.260834 361.025299,222.549698 370.062225,195.703110 
	C371.417725,191.676254 371.445343,191.685547 374.630096,189.142578 
	C366.624329,226.995483 362.827942,265.249207 364.410339,305.141296 
	C360.169769,301.485535 359.536346,297.708282 358.822662,278.890167 
z"/>
<path 
	d="
M404.283020,477.003479 
	C404.681702,506.245758 401.973511,534.591675 393.391754,562.177002 
	C392.486420,565.087097 391.924011,568.212952 388.685120,570.237915 
	C396.149719,531.913513 399.736664,493.250244 400.898041,454.226929 
	C404.804626,461.372772 404.111420,468.999725 404.283020,477.003479 
z"/>
<path 
	d="
M198.374725,379.186768 
	C197.206772,379.106689 196.129532,379.281433 196.006989,378.206879 
	C195.829025,376.646454 197.310806,376.409241 198.299362,376.015778 
	C205.271805,373.240417 212.546448,371.466797 219.862427,369.930573 
	C248.014938,364.019043 276.443146,362.350952 305.107849,364.699036 
	C306.840729,364.841034 308.842804,364.403137 309.997803,366.415161 
	C308.843567,368.352539 306.902802,368.166992 305.141602,368.232483 
	C287.378815,368.893066 269.632568,369.768127 251.909454,371.207153 
	C234.000519,372.661285 216.318939,375.489349 198.374725,379.186768 
z"/>
<path 
	d="
M525.506287,365.279694 
	C544.438049,368.004059 563.138428,373.636566 566.153198,377.505341 
	C565.640930,378.366150 564.716248,378.439453 563.974243,378.263885 
	C529.315857,370.063507 493.940826,368.098236 458.571198,366.059509 
	C458.035553,366.028625 457.531403,365.450684 457.090698,364.473389 
	C479.817780,360.844238 502.454071,362.093018 525.506287,365.279694 
z"/>
<path 
	d="
M505.756226,242.932312 
	C506.990540,242.626907 507.869507,241.761841 509.727875,243.373123 
	C495.482483,255.027573 480.607544,265.639771 467.244385,278.074615 
	C453.971863,290.425140 442.462280,304.520172 428.638489,317.804718 
	C429.270264,303.571167 477.205139,257.791016 505.756226,242.932312 
z"/>
<path 
	d="
M260.967712,269.058655 
	C270.397430,281.368378 279.987091,293.084076 290.622192,303.888153 
	C301.105591,314.538147 311.754120,325.025665 321.928467,335.967682 
	C305.709961,333.622681 250.027191,271.608246 249.832886,255.697296 
	C255.102722,259.268494 257.098114,264.772217 260.967712,269.058655 
z"/>
<path 
	d="
M515.675781,505.418091 
	C516.261353,507.291229 517.522949,508.737518 515.622131,511.503326 
	C505.682739,496.485199 496.248108,481.643646 484.759857,468.309082 
	C473.203644,454.895660 460.433624,442.601074 447.612152,429.083557 
	C460.827820,429.017700 502.687317,476.851990 515.675781,505.418091 
z"/>
<path 
	d="
M364.062256,479.226440 
	C364.788483,511.424744 370.544220,542.523438 376.169891,573.706116 
	C373.198883,572.508667 372.569489,570.025818 371.867279,567.764648 
	C366.183624,549.462769 362.083923,530.850037 360.587616,511.683624 
	C359.394135,496.395721 359.004364,481.136139 360.654907,465.867676 
	C360.803558,464.492432 360.383942,462.766388 362.878326,462.015717 
	C363.269867,467.702972 363.650146,473.227112 364.062256,479.226440 
z"/>
<path 
	d="
M316.127136,462.136017 
	C321.965515,456.371979 326.392334,449.704956 332.996735,444.321350 
	C332.439880,459.132843 272.358276,517.288696 257.044250,517.618896 
	C277.422668,500.010590 298.291626,482.915283 316.127136,462.136017 
z"/>
<path 
	d="
M227.474960,401.616638 
	C216.275375,399.543915 205.558990,397.358246 195.544601,392.568787 
	C196.413452,390.619873 197.349609,390.614594 198.092499,390.787292 
	C231.747787,398.612213 266.000702,401.144684 300.398743,402.432007 
	C301.010895,402.454926 301.605743,402.939026 301.876740,404.125305 
	C276.862976,407.625702 252.314285,406.743073 227.474960,401.616638 
z"/>
<path 
	d="
M523.084351,402.312683 
	C504.123016,404.577362 485.604462,406.737183 466.950226,402.686890 
	C500.073395,399.339447 533.140198,395.964905 565.750122,388.956848 
	C565.905212,389.784241 566.060303,390.611664 566.215332,391.439056 
	C552.702576,397.620056 538.121643,399.977356 523.084351,402.312683 
z"/>
<path 
	d="
M392.051117,214.751328 
	C391.027008,206.400970 388.436737,198.669434 388.466217,189.908264 
	C398.841400,199.600250 408.282379,276.917053 399.743805,291.692322 
	C398.916840,279.019867 398.364288,266.321838 397.186462,253.682098 
	C395.985626,240.795181 394.481934,227.924118 392.051117,214.751328 
z"/>
<path 
	d="
M448.814880,470.162018 
	C442.877838,462.705078 435.992889,456.388763 432.362030,447.614685 
	C456.632080,469.810394 480.902161,492.006104 505.172241,514.201782 
	C504.878754,514.572083 504.585266,514.942322 504.291748,515.312561 
	C483.312012,503.629456 465.531464,487.858154 448.814880,470.162018 
z"/>
<path 
	d="
M504.353149,267.369812 
	C507.807281,262.630615 510.485718,257.716827 515.360779,254.628189 
	C500.532776,286.379883 477.296021,311.012909 449.322174,332.735809 
	C448.663452,329.250519 450.670380,327.998230 451.994263,326.608063 
	C460.590088,317.581940 469.334717,308.697205 477.910431,299.652252 
	C487.419006,289.623413 495.824921,278.674988 504.353149,267.369812 
z"/>
<path 
	d="
M257.753601,488.800018 
	C273.083618,465.095062 295.166016,440.781036 304.345947,437.638794 
	C286.013184,460.981445 267.852325,484.105225 249.691452,507.229004 
	C250.396988,500.317139 254.215927,494.817291 257.753601,488.800018 
z"/>
<path 
	d="
M295.062683,277.949585 
	C284.417206,267.655273 271.859100,260.130371 260.599487,249.488022 
	C273.721710,249.687241 326.937622,295.174988 330.275238,310.607361 
	C317.859406,299.371796 307.187317,288.112213 295.062683,277.949585 
z"/>
</svg>