<svg xmlns="http://www.w3.org/2000/svg" width="100%" height="100%" preserveAspectRatio="xMidYMid meet" viewBox="0 0 768 768" fill="currentColor">
<path fill="none" stroke="#000000" stroke-linecap="round" stroke-linejoin="round" stroke-width="8.000000"
	d="
M341.500000,147.500000 
	C341.500000,195.500000 341.457916,243.500061 341.522919,291.499969 
	C341.545502,308.166809 342.008179,324.834015 341.943512,341.499786 
	C341.893707,354.334229 340.803467,367.179352 341.110748,379.997345 
	C341.742218,406.339539 343.020142,432.665924 343.990173,459.000366 
	C344.383026,469.664825 344.717133,480.332062 344.984955,491.000366 
	C345.223389,500.498566 345.333344,510.000000 345.500000,519.500000 
"/>
<path fill="none" stroke="#000000" stroke-linecap="round" stroke-linejoin="round" stroke-width="9.000000"
	d="
M424.500000,139.500000 
	C425.333923,146.985168 424.979584,154.498566 424.985626,162.000015 
	C425.016632,200.499985 425.000000,239.000000 425.000000,277.500000 
	C425.000000,315.333344 425.345367,353.171021 424.868622,390.998352 
	C424.589111,413.174072 422.948334,435.331177 422.021912,457.500916 
	C421.562500,468.495636 421.284454,479.498810 421.014709,490.500366 
	C420.777710,500.165283 420.666656,509.833344 420.500000,519.500000 
"/>
<path fill="none" stroke="#000000" stroke-linecap="round" stroke-linejoin="round" stroke-width="9.000000"
	d="
M285.500000,178.500000 
	C284.849426,185.500000 284.831696,192.482285 285.414337,199.507111 
	C285.728973,203.300507 285.023590,207.166595 285.021454,211.000015 
	C284.990204,267.000000 284.906403,323.000244 285.053284,378.999847 
	C285.101501,397.383728 287.002228,415.690979 288.542938,433.996399 
	C290.185516,453.512451 291.923279,473.027313 294.108124,492.487854 
	C295.119415,501.495392 294.428619,510.531738 295.500000,519.500000 
"/>
<path fill="none" stroke="#000000" stroke-linecap="round" stroke-linejoin="round" stroke-width="8.000000"
	d="
M481.000000,147.500000 
	C479.923187,219.497894 480.428406,291.501740 480.742188,363.498932 
	C480.820221,381.401031 480.087524,399.207642 478.850586,416.989594 
	C477.305634,439.199524 474.472504,461.316772 472.577942,483.506653 
	C471.556580,495.469269 471.333344,507.500000 470.750000,519.500000 
"/>
<path fill="none" stroke="#000000" stroke-linecap="round" stroke-linejoin="round" stroke-width="9.000000"
	d="
M369.000000,139.000000 
	C369.000000,142.833328 369.000000,146.666672 369.000000,150.500000 
	C369.000000,233.333328 368.920471,316.166779 369.045929,398.999939 
	C369.086304,425.667023 369.401306,452.340515 370.121368,478.996735 
	C370.441223,490.837189 370.257019,502.667755 370.500000,514.500000 
"/>
<path fill="none" stroke="#000000" stroke-linecap="round" stroke-linejoin="round" stroke-width="9.000000"
	d="
M536.000000,147.000000 
	C536.000000,210.666672 535.990906,274.333344 536.010376,338.000000 
	C536.013123,347.001678 535.944580,355.998138 536.452209,365.002686 
	C537.655212,386.341949 535.051270,407.459076 531.948425,428.492401 
	C527.971130,455.452698 524.418457,482.466248 520.981812,509.497681 
	C520.788879,511.015533 520.333313,512.500000 520.000000,514.000000 
"/>
<path fill="none" stroke="#000000" stroke-linecap="round" stroke-linejoin="round" stroke-width="9.000000"
	d="
M229.500000,139.500000 
	C230.343353,141.271820 229.986023,143.161346 229.986404,145.000000 
	C230.002274,221.000000 230.183777,297.000763 229.867065,372.999451 
	C229.790634,391.338959 231.803726,409.403229 234.039169,427.495148 
	C236.018967,443.518250 238.323151,459.501373 240.503784,475.499481 
	C241.843994,485.331909 243.873474,495.058075 244.637192,504.989441 
	C244.856079,507.835907 244.712524,510.673767 245.000000,513.500000 
"/>
<path fill="none" stroke="#000000" stroke-linecap="round" stroke-linejoin="round" stroke-width="9.000000"
	d="
M396.750031,138.500000 
	C396.833344,140.166672 396.989410,141.833313 396.989624,143.500000 
	C397.001343,234.666672 397.202362,325.834076 396.874329,416.999542 
	C396.778351,443.661926 396.265228,470.333710 395.848358,496.997620 
	C395.611145,512.167419 395.767975,527.334473 395.500000,542.500000 
"/>
<path fill="none" stroke="#000000" stroke-linecap="round" stroke-linejoin="round" stroke-width="9.000000"
	d="
M256.750000,138.500000 
	C257.940186,140.624100 256.929901,142.850327 256.932251,145.000076 
	C257.013489,219.499985 257.155090,294.000549 256.896210,368.499634 
	C256.827362,388.310303 259.225769,407.869476 261.070923,427.493347 
	C262.734985,445.191559 264.864807,462.850067 267.046234,480.494293 
	C268.567749,492.801025 270.298340,505.135956 270.279907,517.499695 
	C270.267456,525.834717 270.572937,534.166687 270.500000,542.500000 
"/>
<path fill="none" stroke="#000000" stroke-linecap="round" stroke-linejoin="round" stroke-width="9.000000"
	d="
M312.750000,138.500000 
	C312.833344,140.166672 312.989319,141.833313 312.989563,143.500000 
	C313.001465,225.666672 312.817657,307.834137 313.169373,389.999268 
	C313.232147,404.653687 314.460449,419.359070 315.865173,434.012909 
	C316.867523,444.469116 317.236542,455.005920 317.909637,465.505798 
	C318.923187,481.316895 319.333344,497.166656 320.000031,513.000000 
"/>
<path fill="none" stroke="#000000" stroke-linecap="round" stroke-linejoin="round" stroke-width="9.000000"
	d="
M452.750000,138.500000 
	C452.833344,140.166672 452.989319,141.833313 452.989563,143.500000 
	C453.001495,224.000000 453.051544,304.500061 452.962402,384.999969 
	C452.941101,404.221191 451.052795,423.354736 449.543732,442.503448 
	C448.638916,453.984680 448.240448,465.504852 447.483459,476.998901 
	C446.211395,496.314697 445.746216,515.647339 446.005859,534.999939 
	C446.041687,537.667175 444.833954,540.333313 446.000000,543.000000 
"/>
<path fill="none" stroke="#000000" stroke-linecap="round" stroke-linejoin="round" stroke-width="10.000000"
	d="
M201.000000,368.000000 
	C200.198730,366.396790 200.511658,364.674408 200.511276,363.000000 
	C200.497803,303.833344 200.283722,244.665161 200.698944,185.501389 
	C200.773880,174.824921 199.392807,164.136398 200.577347,153.508621 
	C201.733490,143.135651 199.836594,132.842957 200.434326,122.496208 
	C200.765656,116.761246 198.256149,114.526382 192.499985,114.502960 
	C188.666718,114.487366 184.833282,114.487923 181.000015,114.502899 
	C175.614319,114.523949 172.512604,117.557785 172.511475,123.000000 
	C172.494812,203.333328 172.497284,283.666656 172.520828,364.000000 
	C172.521271,365.500031 172.833344,367.000000 173.000000,368.500000 
"/>
<path fill="none" stroke="#000000" stroke-linecap="round" stroke-linejoin="round" stroke-width="10.000000"
	d="
M592.000000,371.000000 
	C593.609436,361.712250 593.209900,352.324127 592.878174,343.004333 
	C592.592590,334.983398 592.638367,327.012299 592.903320,318.996796 
	C593.217102,309.509186 592.768799,299.997589 592.612549,290.498138 
	C592.256042,268.837372 592.115051,247.158173 592.592896,225.502045 
	C593.258667,195.332031 592.786926,165.166428 592.972473,134.999832 
	C593.002197,130.167709 592.712280,125.331177 592.483826,120.500763 
	C592.333740,117.326904 589.452148,114.617500 585.999268,114.528389 
	C581.502258,114.412323 576.999023,114.441628 572.500305,114.516953 
	C568.270691,114.587761 565.577820,117.270737 565.518127,121.500259 
	C565.442871,126.832527 565.765442,132.182693 565.444641,137.496658 
	C564.780029,148.507736 565.726135,159.531174 565.283691,170.491272 
	C564.838013,181.530945 566.003174,192.487976 565.590271,203.503387 
	C565.178467,214.487946 565.500000,225.500000 565.500000,236.500000 
	C565.500000,247.500000 565.500000,258.500000 565.500000,269.500000 
	C565.500000,280.333344 565.500000,291.166656 565.500000,302.000000 
	C565.500000,313.000000 565.500000,324.000000 565.500000,335.000000 
	C565.500000,346.000000 565.500000,357.000000 565.500000,368.000000 
"/>
<path fill="none" stroke="#000000" stroke-linecap="round" stroke-linejoin="round" stroke-width="11.000000"
	d="
M592.000000,408.000000 
	C592.940918,413.141693 592.475159,418.330688 592.487610,423.500031 
	C592.522827,438.166595 592.468994,452.833435 592.505371,467.500000 
	C592.659363,529.500000 592.839966,591.500000 592.991638,653.500000 
	C593.010864,661.365845 592.955872,661.358154 585.003540,664.010681 
	C584.082214,664.317993 583.789062,665.061218 584.000000,666.000000 
"/>
<path fill="none" stroke="#000000" stroke-linecap="round" stroke-linejoin="round" stroke-width="9.000000"
	d="
M509.000000,139.000000 
	C509.000000,142.833328 509.000000,146.666672 509.000000,150.500000 
	C509.000000,229.000000 509.080444,307.500183 508.890045,385.999725 
	C508.868195,395.001709 507.423309,404.009460 506.479034,412.997803 
	C505.059875,426.506287 503.471436,439.996918 502.007843,453.500854 
	C500.472809,467.663696 498.972504,481.830505 497.513580,496.001404 
	C496.931061,501.659576 496.499969,507.333344 495.999969,513.000000 
"/>
<path fill="none" stroke="#000000" stroke-linecap="round" stroke-linejoin="round" stroke-width="10.000000"
	d="
M565.000000,411.000000 
	C565.801270,412.603210 565.488403,414.325592 565.488770,416.000000 
	C565.502136,478.166656 565.688965,540.334473 565.316223,602.498901 
	C565.253174,613.006714 566.361877,623.535034 565.375549,633.988281 
	C564.662231,641.548462 565.871399,648.993835 565.549194,656.502136 
	C565.325378,661.718079 567.318909,663.615967 572.499390,664.008179 
	C576.162292,664.285461 579.878296,663.343994 583.500000,664.500000 
"/>
<path fill="none" stroke="#000000" stroke-linecap="round" stroke-linejoin="round" stroke-width="10.000000"
	d="
M172.000000,523.500000 
	C172.166672,525.666687 172.477188,527.833191 172.478699,530.000000 
	C172.507538,571.333313 172.563766,612.666870 172.425827,653.999756 
	C172.406830,659.686646 174.796936,664.620300 182.007507,663.550659 
	C186.466965,662.889099 190.950516,664.653992 195.518600,663.579102 
	C198.244797,662.937683 200.026108,661.686951 200.469864,658.995056 
	C201.425232,653.199646 199.799088,647.100830 202.500000,641.500000 
	C198.284195,633.903870 201.135559,625.759460 201.310226,618.007019 
	C201.491974,609.939392 199.915359,602.045288 200.395950,593.993774 
	C200.871765,586.022217 200.500000,578.000000 200.500000,570.000000 
	C200.500000,562.166687 200.500000,554.333313 200.500000,546.500000 
	C200.500000,538.500000 200.500000,530.500000 200.500000,522.500000 
"/>
<path fill="none" stroke="#000000" stroke-linecap="round" stroke-linejoin="round" stroke-width="10.000000"
	d="
M201.000000,411.000000 
	C200.198730,412.603210 200.512222,414.325592 200.511444,416.000000 
	C200.496078,449.000000 200.490601,482.000000 200.521454,515.000000 
	C200.523483,517.166809 200.833328,519.333313 200.999985,521.500000 
"/>
<path fill="none" stroke="#000000" stroke-linecap="round" stroke-linejoin="round" stroke-width="10.000000"
	d="
M172.500000,410.500000 
	C172.500000,444.666656 172.516418,478.833374 172.467087,512.999939 
	C172.463364,515.578674 172.683350,518.064453 173.500000,520.500000 
"/>
<path fill="none" stroke="#000000" stroke-linecap="round" stroke-linejoin="round" stroke-width="10.000000"
	d="
M218.000000,370.000000 
	C212.140976,369.799744 206.039505,368.694763 200.536560,369.056396 
	C194.228241,369.470947 187.838669,369.744751 181.498123,369.938507 
	C169.171219,370.315247 156.829956,370.207977 144.501053,370.539185 
	C134.399704,370.810516 126.849396,379.455688 127.337440,388.009277 
	C127.993256,399.503357 130.733093,404.726990 140.007690,407.978058 
	C140.950287,408.308472 141.994019,408.405579 143.000916,408.488861 
	C152.817810,409.300690 162.804794,406.783569 172.500000,410.000000 
	C175.736526,407.655701 179.461761,408.602417 183.000656,408.534180 
	C188.723221,408.423767 194.414368,408.447998 200.028519,410.156281 
	C202.803604,411.000702 205.472336,408.636414 208.507751,408.915863 
	C212.308853,409.265808 216.166672,409.000000 220.000000,409.000000 
"/>
<path fill="none" stroke="#000000" stroke-linecap="round" stroke-linejoin="round" stroke-width="9.000000"
	d="
M548.000000,370.000000 
	C553.661438,369.511993 559.384521,369.537537 565.026794,369.205170 
	C570.784607,368.866058 576.948853,370.632812 582.999207,371.012848 
	C591.450073,371.543579 599.311096,374.762207 607.494995,376.523254 
	C615.518005,378.249725 623.513794,380.108948 631.495361,382.019440 
	C637.221313,383.390015 638.500000,384.861176 638.500000,389.500000 
	C638.500000,393.911865 636.676697,396.251892 631.489685,397.455597 
	C622.192932,399.613007 612.848389,401.574524 603.492798,403.464417 
	C599.593079,404.252167 595.804932,406.987213 592.491028,407.053925 
	C587.396667,407.156494 582.499512,408.221100 577.508850,408.613068 
	C573.674377,408.914215 569.804688,408.875854 565.942749,410.063934 
	C562.835510,411.019867 559.517822,408.497986 555.990112,408.916687 
	C552.703125,409.306793 549.333313,409.000000 546.000000,409.000000 
"/>
<path fill="none" stroke="#000000" stroke-linecap="round" stroke-linejoin="round" stroke-width="8.000000"
	d="
M286.000000,515.000000 
	C273.383179,512.772705 260.631042,514.375793 248.017883,513.677063 
	C234.528397,512.929871 222.606216,518.077332 210.036484,520.676453 
	C202.602173,522.213684 195.313232,521.883911 188.010208,521.358276 
	C182.149887,520.936401 176.898865,520.968567 170.877762,522.528015 
	C160.129639,525.311768 156.524033,532.530151 153.419006,541.471863 
	C151.146942,548.014893 149.586594,554.754456 145.175262,560.631531 
	C140.393646,567.001953 134.266190,570.148560 127.000000,572.000000 
"/>
<path fill="none" stroke="#000000" stroke-linecap="round" stroke-linejoin="round" stroke-width="10.000000"
	d="
M563.500000,610.000000 
	C558.026123,611.028076 552.499573,610.393188 546.999573,610.469116 
	C538.501221,610.586487 530.000000,610.500000 521.500000,610.500000 
"/>
<path fill="none" stroke="#000000" stroke-linecap="round" stroke-linejoin="round" stroke-width="10.000000"
	d="
M563.500000,641.500000 
	C490.999603,641.500000 418.499237,641.500000 345.500000,641.500000 
	C345.500000,622.002808 345.500000,602.001404 345.500000,582.000000 
"/>
<path fill="none" stroke="#000000" stroke-linecap="round" stroke-linejoin="round" stroke-width="10.000000"
	d="
M203.000000,641.500000 
	C248.166672,641.500000 293.333344,641.506409 338.500000,641.478821 
	C340.500092,641.477600 342.500000,641.166687 344.500000,641.000000 
"/>
<path fill="none" stroke="#000000" stroke-linecap="round" stroke-linejoin="round" stroke-width="10.000000"
	d="
M203.000000,610.500000 
	C241.833328,610.500000 280.666656,610.500000 319.500000,610.500000 
"/>
<path fill="none" stroke="#000000" stroke-linecap="round" stroke-linejoin="round" stroke-width="7.000000"
	d="
M157.500000,390.000000 
	C158.201050,394.466553 160.195908,396.307922 164.000000,395.999969 
	C167.651566,395.704407 170.500000,392.855988 170.500000,389.500000 
	C170.500000,386.293274 167.209274,382.749390 164.000000,382.499969 
	C161.078598,382.272980 158.275574,384.869019 157.487946,388.497375 
	C157.411362,388.850250 157.166656,389.166656 156.999985,389.500000 
"/>
<path fill="none" stroke="#000000" stroke-linecap="round" stroke-linejoin="round" stroke-width="8.000000"
	d="
M311.000000,524.500000 
	C311.000000,525.666687 311.000000,526.833313 311.000000,527.896423 
	C301.197510,529.986084 291.324921,528.696716 281.511871,528.243225 
	C280.092926,528.177673 278.833344,529.083862 277.500000,528.500000 
"/>
<path fill="none" stroke="#000000" stroke-linecap="round" stroke-linejoin="round" stroke-width="9.000000"
	d="
M285.500000,542.500000 
	C282.540436,544.311646 278.985107,544.176880 276.025818,543.798157 
	C269.018646,542.901489 262.009521,544.427002 254.949280,542.708374 
	C249.468399,541.374207 243.682785,543.391602 238.556931,545.630371 
	C233.638763,547.778381 232.064774,552.702759 233.499985,558.000000 
	C234.745926,562.598633 238.384628,565.330139 243.500092,565.497070 
	C244.166061,565.518799 244.836365,565.465210 245.498001,565.522949 
	C245.677872,565.538635 245.833359,565.833313 246.160233,566.160156 
	C244.200150,593.315430 245.264969,620.665833 245.000000,648.000000 
"/>
<path fill="none" stroke="#000000" stroke-linecap="round" stroke-linejoin="round" stroke-width="8.000000"
	d="
M361.000000,528.000000 
	C349.500000,529.927734 338.000000,528.640747 326.500000,528.000000 
"/>
<path fill="none" stroke="#000000" stroke-linecap="round" stroke-linejoin="round" stroke-width="8.000000"
	d="
M522.000000,515.500000 
	C527.057678,515.819275 530.529297,518.559814 532.454590,523.019592 
	C535.899719,531.000183 530.690796,538.458374 521.500000,539.000000 
"/>
<path fill="none" stroke="#000000" stroke-linecap="round" stroke-linejoin="round" stroke-width="9.000000"
	d="
M455.500000,525.500000 
	C455.166229,527.833801 456.187103,528.444946 458.496307,528.568848 
	C467.354095,529.044250 476.186066,529.482239 485.007721,528.047424 
	C486.117920,527.866943 487.333344,528.333313 488.500000,528.500000 
"/>
<path fill="none" stroke="#000000" stroke-linecap="round" stroke-linejoin="round" stroke-width="9.000000"
	d="
M285.250000,139.500000 
	C285.166687,152.166672 285.083344,164.833328 285.000000,177.500000 
"/>
<path fill="none" stroke="#000000" stroke-linecap="round" stroke-linejoin="round" stroke-width="8.000000"
	d="
M370.000000,583.500000 
	C370.801270,585.103210 370.486481,586.825562 370.488312,588.500000 
	C370.507294,606.000000 370.500000,623.500000 370.500000,641.000000 
"/>
<path fill="none" stroke="#000000" stroke-linecap="round" stroke-linejoin="round" stroke-width="8.000000"
	d="
M395.000000,582.500000 
	C395.801270,584.103210 395.485962,585.825500 395.488190,587.500000 
	C395.508331,602.666687 395.459503,617.833496 395.522949,632.999878 
	C395.543884,638.000488 395.833344,643.000000 396.000000,648.000000 
"/>
<path fill="none" stroke="#000000" stroke-linecap="round" stroke-linejoin="round" stroke-width="9.000000"
	d="
M320.000000,583.500000 
	C321.398743,586.500000 319.845276,589.488647 319.934784,592.501953 
	C320.355499,606.662964 319.452454,620.841492 320.457581,635.002991 
	C320.597992,636.981201 320.166656,639.000000 320.000000,641.000000 
"/>
<path fill="none" stroke="#000000" stroke-linecap="round" stroke-linejoin="round" stroke-width="9.000000"
	d="
M497.500000,523.750000 
	C495.650391,524.518616 495.488434,523.398499 495.492554,522.000000 
	C495.500458,519.324097 495.684448,516.634277 494.596344,513.181030 
	C503.855499,514.108215 512.814941,512.380981 522.093201,515.032104 
	C519.236816,519.541809 520.937439,524.431274 518.592407,528.552612 
	C517.578247,530.334900 519.609253,532.137207 520.110107,533.969910 
	C521.500366,539.056702 519.196289,543.914429 519.802551,549.023438 
	C520.442566,554.416687 520.215881,559.992493 519.621582,565.513062 
	C519.285767,568.632751 521.103760,571.654236 521.081787,575.000549 
	C520.927490,598.499512 521.016541,622.000061 520.932251,645.499756 
	C520.929260,646.334961 522.315979,647.166687 521.000000,648.000000 
"/>
<path fill="none" stroke="#000000" stroke-linecap="round" stroke-linejoin="round" stroke-width="9.000000"
	d="
M496.500000,582.500000 
	C495.698730,584.103210 496.013641,585.825562 496.011749,587.500000 
	C495.992523,604.500000 496.000000,621.500000 496.000000,638.500000 
	C496.000000,641.666687 496.000000,644.833313 496.000000,648.000000 
"/>
<path fill="none" stroke="#000000" stroke-linecap="round" stroke-linejoin="round" stroke-width="9.000000"
	d="
M471.000000,583.500000 
	C471.000000,605.000000 471.000000,626.500000 471.000000,648.000000 
"/>
<path fill="none" stroke="#000000" stroke-linecap="round" stroke-linejoin="round" stroke-width="9.000000"
	d="
M446.000000,582.500000 
	C446.000000,601.166687 446.000000,619.833313 446.000000,638.500000 
	C446.000000,641.666687 446.000000,644.833313 446.000000,648.000000 
"/>
<path fill="none" stroke="#000000" stroke-linecap="round" stroke-linejoin="round" stroke-width="9.000000"
	d="
M295.000000,582.500000 
	C295.000000,600.333313 294.967224,618.166809 295.022827,635.999939 
	C295.036865,640.500427 295.333313,645.000000 295.499969,649.500000 
"/>
<path fill="none" stroke="#000000" stroke-linecap="round" stroke-linejoin="round" stroke-width="9.000000"
	d="
M270.000000,583.500000 
	C270.000000,605.000000 270.000000,626.500000 270.000000,648.000000 
"/>
<path fill="none" stroke="#000000" stroke-linecap="round" stroke-linejoin="round" stroke-width="8.000000"
	d="
M420.500000,583.000000 
	C420.666656,598.000000 420.855438,612.999817 420.989929,628.000061 
	C421.049713,634.666260 421.000000,641.333313 421.000000,648.000000 
"/>
<path fill="none" stroke="#000000" stroke-linecap="round" stroke-linejoin="round" stroke-width="8.000000"
	d="
M406.500000,528.000000 
	C416.129639,530.313538 425.824677,528.835205 435.500000,528.500000 
"/>
<path fill="none" stroke="#000000" stroke-linecap="round" stroke-linejoin="round" stroke-width="8.000000"
	d="
M320.500000,514.000000 
	C320.500000,523.500000 320.500000,533.000000 320.500000,542.500000 
"/>
<path fill="none" stroke="#000000" stroke-linecap="round" stroke-linejoin="round" stroke-width="10.000000"
	d="
M480.000000,177.500000 
	C417.500000,177.500000 355.000000,177.500000 292.500000,177.500000 
	C264.500000,177.500000 236.499985,177.489792 208.500031,177.521530 
	C206.499832,177.523804 204.500000,177.833328 202.500000,178.000000 
"/>
<path fill="none" stroke="#000000" stroke-linecap="round" stroke-linejoin="round" stroke-width="10.000000"
	d="
M563.500000,178.000000 
	C561.833313,177.833328 560.166870,177.523682 558.500000,177.521500 
	C534.500000,177.490067 510.500000,177.489105 486.500031,177.521576 
	C484.666473,177.524063 482.833344,177.833328 481.000000,178.000000 
"/>
<path fill="none" stroke="#000000" stroke-linecap="round" stroke-linejoin="round" stroke-width="10.000000"
	d="
M563.500000,146.000000 
	C561.500000,146.166656 559.500183,146.475403 557.499939,146.478302 
	C534.166687,146.512177 510.833344,146.500000 487.500000,146.500000 
	C441.166656,146.500000 394.833344,146.500000 348.500000,146.500000 
	C301.666656,146.500000 254.833328,146.505661 208.000015,146.478882 
	C206.166595,146.477829 204.333328,146.166672 202.500000,146.000000 
"/>
<path fill="none" stroke="#000000" stroke-linecap="round" stroke-linejoin="round" stroke-width="8.000000"
	d="
M519.500000,579.500000 
	C512.282776,579.623169 505.076233,580.228577 498.032440,581.659668 
	C495.380249,582.198486 493.836395,580.119690 491.493866,580.457336 
	C486.861542,581.125061 482.210541,579.962097 477.452728,581.336426 
	C472.428680,582.787659 467.185944,582.177002 461.939575,580.717163 
	C459.458344,580.026672 456.459442,579.580750 453.472168,580.398315 
	C448.238647,581.830688 442.827454,580.733337 437.501678,580.466675 
	C432.238708,580.203125 427.123474,581.261292 422.020050,582.119263 
	C419.480164,582.546265 417.203247,581.754517 415.039368,581.308838 
	C410.500824,580.374084 406.031860,579.770630 401.506989,580.540955 
	C392.865448,582.012207 384.044708,578.880432 375.512787,581.541016 
	C369.144775,583.526733 363.188232,580.532715 357.007874,580.295288 
	C355.123810,580.222961 353.318756,580.423584 351.502502,580.539368 
	C343.341400,581.059631 335.059570,579.415222 327.012848,581.548462 
	C320.164703,583.363953 313.686920,580.440247 306.999878,580.477783 
	C306.500824,580.480591 305.970093,579.961914 305.504364,580.029907 
	C294.062256,581.700745 282.382233,579.750916 270.972687,582.381592 
	C268.830109,582.875549 266.265808,582.076782 264.013306,581.452026 
	C258.427155,579.902405 252.767990,579.305420 247.000000,579.500000 
"/>
<path fill="none" stroke="#000000" stroke-linecap="round" stroke-linejoin="round" stroke-width="10.000000"
	d="
M520.500000,610.500000 
	C462.166656,610.500000 403.833344,610.500000 345.500000,610.500000 
"/>
<path fill="none" stroke="#000000" stroke-linecap="round" stroke-linejoin="round" stroke-width="8.000000"
	d="
M371.000000,515.500000 
	C370.605042,519.689148 369.598755,523.898438 371.495209,528.002197 
	C372.295746,529.734497 370.470764,530.957275 370.525146,532.499084 
	C370.777771,539.664429 369.877655,546.855530 371.000000,554.000000 
"/>
<path fill="none" stroke="#000000" stroke-linecap="round" stroke-linejoin="round" stroke-width="8.000000"
	d="
M410.500000,514.500000 
	C400.792847,513.658875 391.131409,513.703796 381.487488,515.430054 
	C378.903595,515.892517 376.063995,515.967651 373.519958,515.409058 
	C366.863953,513.947754 360.178650,514.593567 353.500000,514.500000 
"/>
<path fill="none" stroke="#000000" stroke-linecap="round" stroke-linejoin="round" stroke-width="10.000000"
	d="
M344.500000,610.000000 
	C336.518890,611.072754 328.497955,610.235718 320.500000,610.500000 
"/>
<path fill="none" stroke="#000000" stroke-linecap="round" stroke-linejoin="round" stroke-width="8.000000"
	d="
M518.500000,542.500000 
	C512.746765,542.430664 507.043945,542.622192 501.474640,544.421448 
	C500.316071,544.795776 498.816315,544.247498 497.506012,543.971436 
	C496.640839,543.789185 495.495697,542.800293 495.051666,543.081543 
	C490.016724,546.271057 485.323059,542.964172 480.500000,542.500000 
"/>
<path fill="none" stroke="#000000" stroke-linecap="round" stroke-linejoin="round" stroke-width="9.000000"
	d="
M245.500000,544.500000 
	C246.243408,551.333313 246.336945,558.166687 245.500000,565.000000 
"/>
<path fill="none" stroke="#000000" stroke-linecap="round" stroke-linejoin="round" stroke-width="8.000000"
	d="
M496.000000,524.500000 
	C494.853546,530.472778 495.811554,536.504028 495.500000,542.500000 
"/>
<path fill="none" stroke="#000000" stroke-linecap="round" stroke-linejoin="round" stroke-width="8.000000"
	d="
M247.000000,566.500000 
	C252.500000,566.500000 258.000000,566.500000 263.500000,566.500000 
"/>
<path fill="none" stroke="#000000" stroke-linecap="round" stroke-linejoin="round" stroke-width="8.000000"
	d="
M388.500000,528.500000 
	C383.169952,528.771545 377.805115,527.930420 372.500000,529.000000 
"/>
<path fill="none" stroke="#000000" stroke-linecap="round" stroke-linejoin="round" stroke-width="8.000000"
	d="
M494.500000,514.000000 
	C489.330048,513.879883 484.182648,515.158264 479.000000,514.250000 
"/>
<path fill="none" stroke="#000000" stroke-linecap="round" stroke-linejoin="round" stroke-width="8.000000"
	d="
M460.500000,514.500000 
	C450.308075,513.126770 440.128662,512.514526 430.000000,515.000000 
"/>
<path fill="none" stroke="#000000" stroke-linecap="round" stroke-linejoin="round" stroke-width="8.000000"
	d="
M336.000000,515.000000 
	C325.871918,512.480347 315.692078,513.116699 305.500000,514.500000 
"/>
<path fill="none" stroke="#000000" stroke-linecap="round" stroke-linejoin="round" stroke-width="8.000000"
	d="
M410.500000,542.500000 
	C400.500000,544.254456 390.500000,544.829163 380.500000,542.500000 
"/>
<path fill="none" stroke="#000000" stroke-linecap="round" stroke-linejoin="round" stroke-width="8.000000"
	d="
M460.500000,542.500000 
	C458.491028,544.513672 455.668304,543.767822 453.497131,543.798889 
	C445.915344,543.907288 438.190125,545.171997 430.750000,542.500000 
"/>
<path fill="none" stroke="#000000" stroke-linecap="round" stroke-linejoin="round" stroke-width="8.000000"
	d="
M335.500000,542.500000 
	C331.055634,543.584412 326.620941,544.619385 321.996582,543.514282 
	C318.680847,542.721985 315.466278,544.651794 311.948608,543.687561 
	C309.940033,543.137024 307.658569,542.885925 305.500000,542.500000 
"/>
<path fill="none" stroke="#000000" stroke-linecap="round" stroke-linejoin="round" stroke-width="9.000000"
	d="
M245.500000,514.500000 
	C245.416901,518.900635 245.801758,523.248657 247.008957,527.497437 
	C247.197449,528.160889 248.192108,528.473816 247.528625,529.518188 
	C244.806702,533.802795 246.209656,538.453796 246.500000,543.000000 
"/>
</svg>