<svg xmlns="http://www.w3.org/2000/svg" width="100%" height="100%" viewBox="0 0 64 64" fill="none" stroke="currentColor" stroke-width="2" stroke-linecap="round" stroke-linejoin="round">
  <path d="M32 5 V12"/>
  <path d="M28.5 8 H35.5"/>
  <path d="M39 26 L45 26 M38.1 29.5 L43.3 32.5 M35.5 32.1 L38.5 37.3 M28.5 32.1 L25.5 37.3 M25.9 29.5 L20.7 32.5 M25 26 L19 26 M25.9 22.5 L20.7 19.5 M28.5 19.9 L25.5 14.7 M35.5 19.9 L38.5 14.7 M38.1 22.5 L43.3 19.5"/>
  <circle cx="32" cy="26" r="5"/>
  <path d="M32 31 V44"/>
  <circle cx="32" cy="37" r="2"/>
  <path d="M25 52 L28 44 H36 L39 52 Z"/>
</svg>
