<svg xmlns="http://www.w3.org/2000/svg" width="100%" height="100%" preserveAspectRatio="xMidYMid meet" viewBox="0 0 752 768" fill="currentColor">
<path 
	d="
M356.104156,123.148102 
	C367.371918,116.159340 379.148041,113.879028 391.731598,117.059120 
	C394.061188,117.647865 396.282715,117.856781 398.614075,117.715141 
	C403.511475,117.417610 408.260162,118.101807 412.760071,120.096344 
	C418.369202,122.582512 421.229462,126.970833 421.164276,133.087662 
	C421.116394,137.579514 420.983032,142.089157 420.515137,146.551788 
	C420.157379,149.964447 420.811310,151.594681 424.704254,152.068741 
	C445.179504,154.562134 465.549774,157.673813 485.597504,162.726517 
	C519.583374,171.292145 551.066895,185.156998 579.193359,206.252823 
	C581.707214,208.138321 583.966309,210.407349 586.133789,212.696930 
	C587.839417,214.498581 588.539795,216.727509 587.093323,219.100708 
	C585.711243,221.368317 583.498657,222.045639 581.056641,221.709976 
	C579.260803,221.463135 577.471558,220.920486 575.770325,220.271179 
	C537.306641,205.591003 497.481995,196.504639 456.688599,191.552643 
	C450.275085,190.774094 443.706757,191.329453 437.214844,191.119049 
	C432.165222,190.955368 429.826599,193.645233 429.472168,198.286972 
	C429.117157,202.935684 429.148651,207.612595 428.875671,212.269226 
	C428.576874,217.365692 426.725677,221.398224 421.050171,222.319611 
	C418.432556,222.744583 418.073151,224.569672 417.976074,226.703629 
	C417.749023,231.695480 417.243805,236.687271 417.276337,241.676315 
	C417.483887,273.507355 416.755310,305.328033 415.980957,337.141388 
	C415.526917,355.796234 414.427795,374.451019 415.314667,393.097687 
	C416.604401,420.214081 418.572906,447.318115 418.579315,474.462921 
	C418.584198,495.116119 417.684357,515.780701 418.186615,536.436890 
	C418.765503,560.244141 420.680939,583.981384 422.660217,607.709900 
	C423.324402,615.672424 423.684204,623.660828 424.153625,631.639099 
	C424.476593,637.127869 422.047394,641.127502 417.685089,644.362793 
	C399.339691,657.968384 380.339996,657.419006 360.931610,647.078491 
	C353.363342,643.046265 350.447723,636.505310 351.031403,627.947693 
	C352.899994,600.551819 354.666840,573.152222 356.073273,545.722290 
	C357.509644,517.708679 354.706696,489.782898 355.692780,461.797638 
	C356.853607,428.853271 358.567322,395.925049 358.847321,362.950623 
	C359.102020,332.954407 357.582672,303.022827 356.047852,273.081696 
	C355.280609,258.114807 355.177063,243.111542 354.931610,228.122131 
	C354.878265,224.866028 354.551788,222.329727 350.880005,221.157562 
	C347.667969,220.132141 346.572540,217.187485 345.978973,214.133911 
	C345.598236,212.175064 345.443481,210.170074 345.020142,208.222107 
	C343.564423,201.523590 341.554382,199.784561 334.603729,200.357635 
	C321.863342,201.408051 309.909851,205.618179 298.084686,210.176285 
	C268.272156,221.667786 241.851044,238.291245 220.042023,261.871368 
	C210.949066,271.702728 203.293121,282.586212 196.532135,294.113922 
	C194.839417,297.000061 192.852173,299.596222 189.153900,298.939575 
	C185.237091,298.244171 184.745071,294.873322 184.496338,291.604706 
	C183.313751,276.063843 187.354599,261.511658 193.613586,247.595200 
	C207.487488,216.747391 230.572708,194.790054 260.255585,179.142258 
	C287.439240,164.811996 316.463989,156.781677 346.748047,152.955994 
	C351.967987,152.296570 353.216461,150.116653 352.534882,145.470490 
	C351.832916,140.685516 351.625977,135.888260 352.479736,131.044128 
	C352.988922,128.155121 353.867859,125.583771 356.104156,123.148102 
M408.671814,499.326599 
	C409.425232,469.600372 407.514313,439.944275 406.427002,408.834442 
	C404.582550,418.557159 405.572662,427.284027 402.926300,435.489929 
	C400.805542,434.947266 400.816559,433.678589 400.781677,432.539978 
	C400.460236,422.054657 400.577759,411.595520 401.245178,401.102844 
	C402.100647,387.652527 404.524170,374.392456 405.061005,360.877441 
	C405.556732,348.397644 405.549622,335.906830 406.157684,323.429688 
	C406.919159,307.803772 407.740967,292.140289 407.426575,276.515381 
	C407.178528,264.188599 406.728027,251.900894 407.525604,239.580658 
	C407.891205,233.933075 407.754456,228.252762 407.837921,222.587173 
	C407.869751,220.426529 407.544128,218.444672 404.776794,218.395309 
	C401.965485,218.345154 402.337616,220.530762 402.210632,222.312119 
	C402.175171,222.809723 402.188232,223.311966 402.199921,223.811584 
	C402.813904,250.004272 399.767426,276.046417 398.957672,302.180817 
	C398.913574,303.603790 399.212067,305.254730 397.502563,306.211578 
	C395.944885,305.638885 395.998657,304.232666 395.824799,302.941528 
	C395.068298,297.322845 394.402191,291.683716 394.810974,286.012085 
	C396.297974,265.380585 396.153992,244.725708 395.851196,224.066483 
	C395.831665,222.733658 395.822144,221.399277 395.746368,220.069138 
	C395.677368,218.859421 395.468842,217.584930 393.879913,217.652084 
	C392.335327,217.717377 392.197021,219.014587 392.094421,220.203354 
	C391.736572,224.349442 391.471924,228.505600 391.009338,232.639740 
	C390.788544,234.612793 391.076691,236.901657 388.721649,238.642471 
	C386.367249,233.041229 386.952606,227.475784 386.382446,222.139297 
	C385.917908,217.791641 383.835022,216.859634 380.086334,217.468552 
	C376.550598,218.042862 372.811310,217.612717 373.038666,223.386078 
	C373.438263,233.534012 373.240112,243.716385 372.961609,253.875259 
	C372.833557,258.545959 372.728302,263.323334 370.609863,267.874969 
	C368.059357,252.136719 368.018005,236.222046 366.641205,220.446640 
	C363.495056,227.824677 366.245026,296.700134 369.426361,304.544128 
	C370.107208,300.187256 369.629761,295.944489 372.173462,292.321503 
	C378.004456,300.570984 380.924713,367.026093 375.395782,374.769684 
	C373.004730,358.138580 375.219666,341.644867 370.947876,325.435730 
	C368.280304,327.241272 368.971649,329.248260 368.999664,330.935333 
	C369.378876,353.767853 368.706635,376.584991 367.996521,399.399231 
	C367.696106,409.051514 367.022095,418.691772 366.555908,428.339355 
	C365.381439,452.642365 364.246246,476.968903 365.460114,501.283020 
	C366.892456,529.972412 365.333557,558.551025 363.592651,587.150146 
	C362.712250,601.612915 362.014191,616.086975 361.261017,630.557312 
	C361.073883,634.152344 361.957733,637.075989 366.988617,638.004944 
	C365.714752,624.096252 368.606262,610.874634 369.598328,597.498962 
	C370.593262,584.085266 368.980072,570.474915 372.084808,557.062195 
	C374.007172,557.610107 374.107941,558.661560 374.186859,559.645447 
	C375.453278,575.438721 376.377655,591.264099 373.734436,606.981445 
	C372.055908,616.962524 372.223267,626.871643 373.214172,636.846924 
	C373.455292,639.274292 373.909607,641.465210 377.071350,641.244202 
	C378.825378,638.500183 376.620789,635.035278 379.201996,632.473816 
	C381.563324,634.572632 381.203766,637.208069 381.367706,639.588989 
	C381.627899,643.368042 384.372131,644.059875 387.231995,644.533264 
	C390.669556,645.102173 390.931122,642.382751 391.307556,640.115601 
	C392.049133,635.649109 391.904266,631.149414 391.317627,626.672363 
	C390.142853,617.706543 390.540680,608.716125 390.845520,599.727295 
	C390.884399,598.581848 390.886597,597.336975 392.340729,596.824829 
	C394.268250,597.600525 394.154449,599.437561 394.337402,601.016479 
	C395.774078,613.415222 397.548889,625.779724 398.125092,638.268066 
	C398.202362,639.942200 397.516907,642.421997 400.343567,642.419495 
	C402.618317,642.417480 403.300568,640.391968 403.410645,638.502502 
	C403.623718,634.846069 403.567352,631.174866 403.699860,627.512573 
	C403.803131,624.658081 403.382172,621.636536 405.932922,618.669373 
	C409.853180,624.554871 407.601074,631.410156 410.252930,637.041626 
	C414.069977,635.676086 413.953979,632.816650 413.984253,629.925903 
	C414.104797,618.407532 412.152863,607.043579 411.503326,595.575317 
	C409.705414,563.831543 406.759155,532.133362 408.671814,499.326599 
M273.006073,183.521378 
	C271.061157,184.472504 269.097595,185.387436 267.174133,186.380127 
	C233.712921,203.649368 209.018600,228.582153 198.078232,265.471924 
	C198.856781,264.662170 199.338242,263.653168 199.857239,262.663910 
	C200.398819,261.631592 200.927887,260.587769 201.545547,259.601044 
	C228.132568,217.128784 266.490448,191.604263 315.331543,182.179276 
	C334.062469,178.564728 352.281860,186.064743 355.274414,206.820374 
	C355.768219,210.245331 357.651337,211.244125 360.913635,210.415710 
	C378.663879,205.908417 396.468567,205.596252 414.255890,210.112686 
	C417.839874,211.022705 418.743256,209.594162 418.772552,206.421280 
	C418.834259,199.750687 419.699646,193.142273 420.843750,186.589279 
	C422.634735,176.331253 427.860626,171.995941 438.287750,171.651199 
	C456.862091,171.037125 474.598297,175.462906 492.195038,180.644257 
	C493.708069,181.089767 495.986694,181.040298 496.457520,184.184036 
	C479.578156,182.246124 463.180908,178.118546 446.287048,178.345169 
	C448.188934,178.753098 450.483490,178.752686 448.020599,181.466751 
	C485.540863,184.230759 521.630676,192.487549 557.242004,203.277039 
	C545.299988,195.060837 532.424255,188.846954 519.091064,183.605438 
	C495.767212,174.436325 471.596802,168.713470 446.786377,165.046173 
	C421.696533,161.337570 396.668823,158.342194 371.253265,160.165176 
	C337.478912,162.587723 304.597473,168.691681 273.006073,183.521378 
M364.891785,145.986572 
	C364.906311,141.832977 364.877899,137.670380 366.935791,133.152542 
	C371.211212,138.550308 368.951172,144.884949 371.687469,150.147202 
	C374.717438,146.474869 372.166565,141.779984 375.013611,138.744568 
	C376.285248,139.033112 376.565033,139.818588 376.897095,140.579224 
	C378.249664,143.677246 376.320435,148.443649 380.084137,149.960114 
	C383.127014,151.186157 386.957214,150.458939 390.438293,150.595322 
	C390.771149,150.608383 391.110901,150.560486 391.437164,150.609421 
	C396.166718,151.318497 398.084351,149.427856 397.795746,144.548553 
	C397.546600,140.336441 397.342255,135.927444 400.304626,132.198837 
	C402.794342,133.539948 402.830780,135.857651 403.034241,137.928268 
	C403.310516,140.739166 403.274292,143.583893 403.305115,146.414841 
	C403.331482,148.835556 403.833832,150.669846 406.852844,150.712158 
	C409.796570,150.753418 410.594238,149.016449 410.665741,146.585663 
	C410.778381,142.754959 410.766846,138.920456 410.891663,135.090286 
	C411.072876,129.529846 409.626953,128.470596 402.225433,126.818680 
	C397.088928,125.672264 396.890533,129.389526 395.690735,132.328125 
	C394.630096,134.925797 395.255005,138.250015 392.259460,140.436523 
	C389.766602,136.765274 389.989655,132.598114 388.848877,128.867355 
	C388.122589,126.492264 387.024475,125.171661 384.362793,125.120399 
	C378.466766,125.006844 372.741943,125.857140 367.173004,127.735115 
	C364.873871,128.510422 362.589050,129.818405 362.576996,132.452148 
	C362.551025,138.128235 362.974091,143.806351 363.232178,149.929276 
	C365.170349,148.784821 364.673584,147.672440 364.891785,145.986572 
M263.364044,215.770752 
	C278.002899,207.899521 292.853699,200.501694 308.853333,195.663544 
	C293.507629,199.289581 279.240784,205.843170 264.916504,212.145081 
	C263.924530,209.579163 266.486328,209.352646 266.439667,207.434799 
	C245.546234,218.512100 227.995071,232.945297 215.122818,252.749908 
	C229.401917,238.462418 245.358643,226.376373 263.364044,215.770752 
z"/>
<path 
	d="
M399.017395,378.885590 
	C398.606323,393.997742 394.906616,408.418365 396.168976,423.143646 
	C397.107056,434.086060 398.071991,445.026825 397.901855,456.019684 
	C397.804016,462.340210 397.457825,468.657379 397.176636,474.973999 
	C397.127502,476.077972 397.330261,477.360077 395.784515,478.153900 
	C393.989044,477.415649 394.065155,475.629425 393.962952,474.101227 
	C391.975159,444.384583 390.225403,414.708954 393.359436,384.902893 
	C394.817017,371.040619 394.333527,356.974854 394.752716,343.002014 
	C394.804382,341.279877 394.347015,339.419739 396.545135,336.607117 
	C399.930237,351.226257 399.169983,364.838348 399.017395,378.885590 
z"/>
<path 
	d="
M369.810120,461.142487 
	C371.501862,442.209076 372.897736,423.737976 372.861786,404.113678 
	C376.223663,406.861237 375.859253,409.708557 375.981750,412.052338 
	C376.885193,429.337830 376.524261,446.647339 375.685669,463.909637 
	C375.016174,477.690887 375.895294,491.533966 374.049072,505.255096 
	C373.431488,509.845123 373.705627,514.632507 371.182587,518.966187 
	C369.120544,499.844696 369.442352,480.734894 369.810120,461.142487 
z"/>
<path 
	d="
M404.082214,549.178528 
	C405.060974,568.088013 405.968231,586.527466 403.805206,604.915527 
	C397.811401,596.865906 395.575226,517.101196 401.402802,508.679932 
	C402.637665,522.791199 402.388397,535.838196 404.082214,549.178528 
z"/>
<path 
	d="
M376.843048,263.129120 
	C377.065765,258.920776 377.010040,255.135971 378.913391,251.569763 
	C383.277100,256.499329 384.225433,287.350433 379.808350,293.954559 
	C377.048309,283.519775 376.608337,273.604401 376.843048,263.129120 
z"/>
<path 
	d="
M374.727417,526.141235 
	C374.804108,522.257751 374.743317,518.817932 376.904175,515.774719 
	C381.067780,519.896545 381.198334,535.524353 376.745605,542.106262 
	C373.542175,536.901489 375.102386,531.586792 374.727417,526.141235 
z"/>
<path 
	d="
M403.450500,164.117981 
	C407.176056,165.146072 411.080322,164.649689 414.105988,168.744812 
	C404.890961,169.826828 396.640167,169.596634 388.536407,166.261734 
	C393.067352,163.422195 398.023987,163.624054 403.450500,164.117981 
z"/>
<path 
	d="
M337.422516,172.269653 
	C335.612274,172.045273 333.955444,172.558289 332.802460,170.333755 
	C341.032379,166.869995 349.182068,164.346359 358.190155,167.028061 
	C351.885773,170.666016 345.078430,172.284027 337.422516,172.269653 
z"/>
<path 
	d="
M411.984924,201.705444 
	C414.317535,203.635773 413.644562,205.043427 411.385590,205.107803 
	C404.308899,205.309479 397.454132,203.859177 390.698761,201.677994 
	C397.729858,198.439560 404.684601,199.012070 411.984924,201.705444 
z"/>
<path 
	d="
M409.142853,193.267059 
	C410.743011,193.904663 411.990326,194.361008 413.124512,195.013901 
	C414.016052,195.527115 414.596649,196.410004 414.236053,197.509201 
	C413.949219,198.383667 413.100311,198.848145 412.282532,198.762192 
	C406.977112,198.204605 401.603943,197.870056 396.146515,195.099197 
	C400.399292,191.694839 404.619720,192.752502 409.142853,193.267059 
z"/>
<path 
	d="
M406.804443,183.326019 
	C404.117645,182.066895 401.132507,182.836792 399.048309,180.787354 
	C402.363800,177.980988 411.169281,177.848358 414.046326,180.428574 
	C414.805084,181.109039 415.575745,181.799240 415.287384,182.916092 
	C414.919128,184.342117 413.678131,184.514923 412.515381,184.377335 
	C410.726715,184.165695 408.962006,183.751877 406.804443,183.326019 
z"/>
<path 
	d="
M398.824524,173.207886 
	C405.390625,170.658432 412.586914,171.842712 415.679962,175.642807 
	C412.140747,177.896561 402.669678,176.713593 398.824524,173.207886 
z"/>
<path 
	d="
M411.657471,191.114624 
	C407.606537,190.395035 403.761475,190.224243 400.397827,187.912430 
	C403.689331,185.307617 410.119049,184.958618 412.899567,187.124191 
	C415.225189,188.935440 415.021729,190.353455 411.657471,191.114624 
z"/>
<path 
	d="
M365.357483,201.024750 
	C366.623932,201.398438 367.628479,201.550247 368.166870,202.834641 
	C365.765869,205.726852 362.786682,205.741882 359.299835,204.692078 
	C359.742065,200.960861 362.449371,201.082138 365.357483,201.024750 
z"/>
</svg>