<svg xmlns="http://www.w3.org/2000/svg" width="100%" height="100%" preserveAspectRatio="xMidYMid meet" viewBox="0 0 768 768" fill="currentColor">
<path fill="none" stroke="#000000" stroke-linecap="round" stroke-linejoin="round" stroke-width="10.000000"
	d="
M532.000000,590.000000 
	C533.242310,592.726379 533.487793,595.403015 533.176147,598.517639 
	C532.682373,603.451538 533.007690,608.537292 533.574951,613.491455 
	C534.469177,621.301392 530.693665,626.404236 524.468445,629.944519 
	C515.292358,635.162720 505.233612,638.185059 494.989166,640.450989 
	C486.375305,642.356323 477.717712,644.229065 468.981415,645.355835 
	C463.492401,646.063721 457.997833,647.154114 452.494965,647.374390 
	C445.322815,647.661377 438.108002,648.089966 431.024506,648.759277 
	C419.317017,649.865479 407.658264,649.494812 396.001251,649.377197 
	C382.995850,649.245972 369.911011,648.898804 357.020416,647.332031 
	C336.601044,644.850098 316.078156,642.404968 296.515747,635.455627 
	C290.005035,633.142822 283.476624,630.775452 278.445862,625.552124 
	C276.179230,623.198730 274.952698,620.731750 274.983582,617.499817 
	C275.040924,611.500366 274.371796,605.418213 275.140106,599.518250 
	C276.450958,589.452026 272.983826,579.478699 275.044037,569.509094 
	C276.056763,564.608582 274.633453,560.903381 271.628174,556.903687 
	C265.554688,548.820557 268.452606,540.684998 275.000000,535.000000 
"/>
<path fill="none" stroke="#000000" stroke-linecap="round" stroke-linejoin="round" stroke-width="8.000000"
	d="
M274.000000,300.500000 
	C285.321899,311.346680 300.165344,313.457916 314.515137,316.426880 
	C351.639160,324.107849 389.326111,324.907104 426.994202,323.802002 
	C451.482208,323.083588 476.000092,321.073975 499.988129,315.449310 
	C512.172852,312.592255 524.431213,309.693604 534.500000,301.500000 
"/>
<path fill="none" stroke="#000000" stroke-linecap="round" stroke-linejoin="round" stroke-width="8.000000"
	d="
M275.000000,479.500000 
	C285.533813,487.417267 298.114563,490.033112 310.513245,492.943634 
	C324.476562,496.221466 338.720581,497.664337 352.988159,499.116455 
	C372.794067,501.132294 392.617249,502.310791 412.498444,501.920776 
	C427.027771,501.635742 441.518799,500.445190 456.012726,499.141296 
	C474.812286,497.450073 493.319794,494.653687 511.524170,489.586823 
	C519.593018,487.341003 526.866577,483.658173 534.000000,479.500000 
"/>
<path fill="none" stroke="#000000" stroke-linecap="round" stroke-linejoin="round" stroke-width="8.000000"
	d="
M276.000000,502.500000 
	C274.405121,504.414001 274.483368,506.703674 274.491577,509.000031 
	C274.515320,515.666626 274.786865,522.350098 274.397552,528.994019 
	C274.144745,533.308411 275.816620,535.553223 279.452332,537.585266 
	C289.651245,543.285522 300.757599,546.124023 312.009430,548.454468 
	C333.273712,552.858643 354.814941,554.994995 376.497925,556.042664 
	C402.377411,557.293152 428.183289,556.797546 454.007568,554.588440 
	C473.986694,552.879333 493.693542,549.950623 512.998230,544.493835 
	C520.195374,542.459351 526.714294,538.968628 533.000000,535.000000 
"/>
<path fill="none" stroke="#000000" stroke-linecap="round" stroke-linejoin="round" stroke-width="8.000000"
	d="
M275.500000,381.000000 
	C291.637482,390.145630 309.554932,393.078064 327.495148,396.029572 
	C343.569611,398.674133 359.823181,399.438507 376.004883,400.947540 
	C379.805176,401.301971 383.666656,401.006714 387.500000,400.998901 
	C408.171326,400.956787 428.883301,401.722290 449.490784,399.895844 
	C471.212646,397.970642 492.904999,395.330627 513.964294,389.373779 
	C520.526855,387.517487 526.666687,384.166687 533.000000,381.500000 
"/>
<path fill="none" stroke="#000000" stroke-linecap="round" stroke-linejoin="round" stroke-width="9.000000"
	d="
M369.000000,230.000000 
	C357.781250,230.418457 346.652435,231.825485 335.486328,232.851120 
	C320.159332,234.258972 305.231323,237.222076 290.494171,241.479858 
	C284.381592,243.245850 278.490814,245.527908 273.536957,249.545563 
	C267.282104,254.618362 269.156403,264.565216 277.032104,266.891327 
	C285.884247,269.505890 294.438507,272.997498 303.480438,275.084747 
	C319.975067,278.892365 336.689606,280.909973 353.496857,282.532501 
	C376.960327,284.797607 400.493378,285.033020 423.995789,284.353851 
	C444.066315,283.773865 464.119476,282.476562 484.025085,279.150177 
	C496.577850,277.052490 508.881561,274.277740 521.005066,270.516235 
	C524.480103,269.438049 527.421753,266.476227 531.500000,267.500000 
"/>
<path fill="none" stroke="#000000" stroke-linecap="round" stroke-linejoin="round" stroke-width="9.000000"
	d="
M531.500000,564.000000 
	C526.414062,563.355835 522.505188,566.686035 518.009644,568.032288 
	C500.173340,573.373535 482.085724,577.114929 463.519867,579.178650 
	C443.710083,581.380615 423.898071,582.934753 404.000092,582.914734 
	C384.436615,582.894958 364.953308,581.353577 345.483734,579.143311 
	C325.884674,576.918274 306.706024,573.239197 287.984772,567.046082 
	C284.236328,565.806091 280.916779,562.763428 276.500000,564.000000 
"/>
<path fill="none" stroke="#000000" stroke-linecap="round" stroke-linejoin="round" stroke-width="9.000000"
	d="
M531.500000,502.500000 
	C527.498474,501.859924 524.018677,503.728058 520.521423,505.056366 
	C507.409332,510.036621 493.783142,512.732544 480.013245,515.077698 
	C467.724487,517.170654 455.354309,518.542847 442.987518,519.885010 
	C436.709259,520.566345 430.312378,520.624939 423.994476,520.827942 
	C405.159943,521.433289 386.314850,520.977661 367.495667,519.557556 
	C356.286377,518.711731 345.099396,517.666870 334.010498,515.932861 
	C316.991425,513.271484 300.041229,510.167816 284.000702,503.498322 
	C282.828766,503.011047 281.650635,502.034790 280.502563,502.074310 
	C272.069885,502.364594 270.893646,495.344238 268.667084,489.931274 
	C267.332489,486.686737 269.202850,483.024384 272.086853,481.132416 
	C274.822723,479.337585 274.998718,476.999481 274.950256,474.500977 
	C274.801697,466.834229 275.597565,459.146515 274.500366,451.499939 
	C274.161835,449.140656 275.120392,447.079071 276.000000,445.000000 
"/>
<path fill="none" stroke="#000000" stroke-linecap="round" stroke-linejoin="round" stroke-width="9.000000"
	d="
M531.500000,409.500000 
	C525.196167,409.170288 519.769958,412.401703 514.049011,414.159454 
	C502.379120,417.744965 490.519623,420.184265 478.497284,421.981812 
	C463.250916,424.261414 447.893829,425.181122 432.516479,426.239319 
	C416.481049,427.342804 400.484589,427.057404 384.503754,426.782166 
	C373.858826,426.598816 363.110443,426.119415 352.512848,424.889282 
	C331.732788,422.477234 310.979034,419.699860 290.989594,413.031189 
	C286.273773,411.457947 281.770905,408.853912 276.500000,409.500000 
"/>
<path fill="none" stroke="#000000" stroke-linecap="round" stroke-linejoin="round" stroke-width="9.000000"
	d="
M275.500000,322.500000 
	C273.645599,328.621063 274.374298,334.816071 275.016235,340.998322 
	C275.258667,343.332977 276.577240,344.150482 278.928833,345.164948 
	C302.122009,355.170105 326.773651,358.286377 351.508728,360.917847 
	C360.955017,361.922821 370.495880,362.108704 380.001221,362.467621 
	C388.495392,362.788330 397.001465,363.027435 405.499725,362.962830 
	C429.059937,362.783752 452.652618,362.209839 475.974762,358.826019 
	C493.022888,356.352539 510.302032,354.099457 526.032776,346.064148 
	C527.621765,345.252472 529.666687,345.333313 531.500000,345.000000 
"/>
<path fill="none" stroke="#000000" stroke-linecap="round" stroke-linejoin="round" stroke-width="10.000000"
	d="
M532.000000,445.000000 
	C533.217346,447.356537 533.577698,449.847778 533.533752,452.500549 
	C533.429016,458.832184 533.570801,465.167725 533.475098,471.499634 
	C533.411316,475.723999 533.424744,479.534943 537.401794,482.626343 
	C540.768738,485.243469 540.322449,491.777893 537.005371,495.504791 
	C533.949158,498.938477 531.881653,502.102997 533.196411,507.572968 
	C534.559814,513.245239 533.455994,519.500427 533.513367,525.499878 
	C533.562744,530.670227 533.342468,535.394409 537.212708,540.229919 
	C541.313293,545.353271 540.877747,552.348938 535.987366,557.989075 
	C533.431946,560.936218 531.885559,563.401123 533.168335,568.090698 
	C534.610474,573.362915 533.708740,579.345276 533.385254,584.993408 
	C533.274048,586.934875 532.605835,589.008606 530.033630,590.080688 
	C518.498718,594.888367 506.815002,599.232422 494.490540,601.447449 
	C483.380737,603.444153 472.236115,605.198364 461.021362,606.663513 
	C435.731506,609.967590 410.364655,609.738647 385.001587,609.385498 
	C367.746216,609.145203 350.574646,607.343933 333.482819,604.607361 
	C318.723755,602.244141 304.061249,599.764709 289.991730,594.522217 
	C285.696899,592.921875 281.738678,590.329041 277.000000,590.000000 
"/>
<path fill="none" stroke="#000000" stroke-linecap="round" stroke-linejoin="round" stroke-width="10.000000"
	d="
M276.000000,345.000000 
	C274.782623,347.356537 274.376068,349.845886 274.477356,352.500854 
	C274.807770,361.163239 273.949158,369.847290 274.957672,378.504944 
	C275.075348,379.514923 274.943756,380.433075 274.105255,381.577148 
	C266.173828,392.399078 266.320251,395.755737 274.481506,406.514038 
	C275.057129,407.272827 275.367920,408.232574 275.910431,409.315521 
	C275.408905,410.808502 274.151459,412.470215 274.513855,414.497528 
	C275.855560,422.003754 274.225891,429.498535 274.486969,437.000458 
	C274.706421,443.307007 275.481323,443.664825 281.463867,445.611084 
	C289.940399,448.368683 298.284546,451.519135 306.999847,453.500610 
	C329.056641,458.515350 351.424408,460.983582 373.997864,462.045319 
	C392.999939,462.939087 412.030975,463.012634 430.993103,462.312988 
	C460.439087,461.226532 489.736969,458.304993 518.018677,449.057098 
	C522.028625,447.745850 525.511414,445.179321 529.990295,444.862549 
	C533.033813,444.647278 533.229126,441.178558 533.371582,438.991638 
	C533.749939,433.182922 534.064331,427.258820 533.307007,421.525482 
	C532.778198,417.522003 535.199646,413.234650 532.156616,409.376465 
	C531.827881,408.959656 533.554932,406.746002 534.517883,405.513977 
	C541.435791,396.663269 541.604370,391.616119 534.962585,383.028931 
	C533.744202,381.453674 533.461792,379.871124 533.475647,377.999817 
	C533.533447,370.166901 534.071533,362.279877 533.345276,354.514465 
	C532.559875,346.117218 533.711975,337.834259 533.526184,329.499420 
	C533.474670,327.186005 533.492065,324.902405 532.411377,322.821381 
	C533.621338,319.230835 537.321960,317.560822 538.568542,314.024139 
	C539.793213,310.549561 540.169189,307.251953 537.452759,304.547485 
	C534.009705,301.119568 533.351501,297.048706 533.462585,292.499084 
	C533.613037,286.336090 533.534668,280.166321 533.477112,274.000214 
	C533.461548,272.332153 533.735779,270.235870 532.873047,269.096100 
	C531.401367,267.151764 532.731323,266.170502 533.542053,265.029907 
	C534.349976,263.893341 535.575867,263.064209 536.486084,261.988251 
	C539.507874,258.416199 539.354492,254.368561 535.988770,251.011276 
	C530.292786,245.329681 522.854736,242.838058 515.474976,240.581772 
	C503.731964,236.991455 491.597748,234.954025 479.484344,233.102524 
	C471.567383,231.892456 463.471497,231.898041 455.510162,230.917389 
	C450.337372,230.280212 445.196777,229.866516 440.000000,230.000000 
"/>
<path fill="none" stroke="#000000" stroke-linecap="round" stroke-linejoin="round" stroke-width="9.000000"
	d="
M444.000000,258.500000 
	C440.096710,254.646530 438.201263,250.088409 438.464935,244.498352 
	C439.336060,226.030212 437.987274,207.734604 432.447388,190.016449 
	C422.803284,159.171921 401.770264,139.850021 370.963928,131.127350 
	C364.467102,129.287811 358.260040,126.658577 352.152100,124.132271 
	C347.965851,122.400803 343.890167,120.481438 339.489258,120.137184 
	C334.704987,119.762932 329.777466,119.151772 325.366638,122.840530 
	C323.351715,124.525581 320.263794,124.419090 316.947205,123.769592 
	C306.947601,121.811356 296.759216,120.336136 286.502197,120.588707 
	C282.463715,120.688156 279.195831,123.376442 277.083496,126.555473 
	C270.462708,136.519653 267.151062,147.120224 269.196320,159.549973 
	C270.195801,165.624039 272.715851,170.677475 275.063477,175.971848 
	C277.903137,182.375793 284.324341,182.514114 290.010712,183.433823 
	C295.962830,184.396515 302.001404,184.821075 307.999146,185.507507 
	C309.788696,185.712311 311.370728,185.020309 313.000000,184.500000 
"/>
<path fill="none" stroke="#000000" stroke-linecap="round" stroke-linejoin="round" stroke-width="6.000000"
	d="
M383.000000,270.500000 
	C383.166656,260.000000 383.770142,249.483765 383.380676,239.004440 
	C382.967651,227.892700 383.126282,216.693512 378.841919,205.963287 
	C373.109131,191.605545 362.789368,183.094772 348.006378,179.473938 
	C343.908539,178.470245 339.864166,176.573685 336.000000,180.000000 
"/>
<path fill="none" stroke="#000000" stroke-linecap="round" stroke-linejoin="round" stroke-width="10.000000"
	d="
M276.000000,267.500000 
	C274.607300,269.276825 274.460876,271.339172 274.480804,273.500183 
	C274.536194,279.499664 274.447510,285.500610 274.517303,291.499786 
	C274.569519,295.991821 274.167999,299.851410 270.672180,303.658112 
	C265.516144,309.272675 270.988312,320.616241 278.471405,322.140442 
	C283.950836,323.256592 289.068451,326.059814 294.519684,327.421234 
	C307.369171,330.630432 320.301117,333.355896 333.478729,335.155792 
	C349.940277,337.404266 366.397949,339.122620 383.000000,339.499542 
	C383.166595,339.503296 383.333344,339.500000 383.500000,339.500000 
"/>
<path fill="none" stroke="#000000" stroke-linecap="round" stroke-linejoin="round" stroke-width="7.000000"
	d="
M532.000000,322.500000 
	C529.458862,322.524963 526.985596,322.318787 524.476257,323.447174 
	C512.229675,328.954102 499.064270,331.080658 485.996399,333.480438 
	C465.671783,337.212891 445.158997,339.129578 424.500000,339.500000 
"/>
<path fill="none" stroke="#000000" stroke-linecap="round" stroke-linejoin="round" stroke-width="24.000000"
	d="
M288.500000,256.500000 
	C289.676971,256.594482 291.202118,255.987885 291.954315,257.032898 
	C296.232178,262.975952 302.968933,261.904816 308.493256,261.753540 
	C326.835449,261.251190 345.168091,261.823517 363.500000,261.500000 
"/>
<path fill="none" stroke="#000000" stroke-linecap="round" stroke-linejoin="round" stroke-width="6.000000"
	d="
M386.500000,200.500000 
	C390.786224,205.359756 391.514740,211.770401 392.252960,217.531662 
	C394.438324,234.587280 393.494080,251.827087 393.478851,268.999969 
	C393.478241,269.666779 393.166687,270.333344 393.000031,271.000000 
"/>
<path fill="none" stroke="#000000" stroke-linecap="round" stroke-linejoin="round" stroke-width="24.000000"
	d="
M518.500000,256.750000 
	C517.841187,257.581696 516.800537,256.454742 515.952026,257.459503 
	C512.391541,261.675812 507.456940,261.547211 502.499878,261.528412 
	C483.833496,261.457642 465.166656,261.500000 446.500000,261.500000 
"/>
<path fill="none" stroke="#000000" stroke-linecap="round" stroke-linejoin="round" stroke-width="6.000000"
	d="
M355.500000,242.000000 
	C337.781616,243.233444 320.209900,245.476105 303.011627,250.043793 
	C298.690125,251.191544 294.239655,252.398376 291.500000,256.500000 
"/>
<path fill="none" stroke="#000000" stroke-linecap="round" stroke-linejoin="round" stroke-width="6.000000"
	d="
M454.500000,241.500000 
	C459.839874,243.487793 465.527069,242.582932 471.002533,243.484680 
	C483.429626,245.531250 495.953430,247.102219 507.994019,251.018387 
	C511.282532,252.087967 514.730347,253.022766 516.500000,256.500000 
"/>
<path fill="none" stroke="#000000" stroke-linecap="round" stroke-linejoin="round" stroke-width="5.000000"
	d="
M279.500000,551.000000 
	C290.646545,556.416321 302.403168,560.016663 314.507782,562.461487 
	C322.132690,564.001404 329.833344,565.166687 337.500000,566.500000 
"/>
<path fill="none" stroke="#000000" stroke-linecap="round" stroke-linejoin="round" stroke-width="5.000000"
	d="
M528.500000,550.500000 
	C519.912781,556.477600 509.839722,558.416199 500.001556,561.005981 
	C490.622284,563.474854 481.019897,564.769775 471.500000,566.500000 
"/>
<path fill="none" stroke="#000000" stroke-linecap="round" stroke-linejoin="round" stroke-width="5.000000"
	d="
M420.500000,202.500000 
	C416.535339,180.214310 405.230591,162.973572 385.529297,151.449921 
	C384.796387,151.021240 384.183167,151.100693 383.500000,151.000000 
"/>
<path fill="none" stroke="#000000" stroke-linecap="round" stroke-linejoin="round" stroke-width="5.000000"
	d="
M528.000000,396.000000 
	C521.242859,401.368744 512.951843,403.391083 504.950195,405.290100 
	C493.971710,407.895630 482.834290,410.187744 471.500000,411.000000 
"/>
<path fill="none" stroke="#000000" stroke-linecap="round" stroke-linejoin="round" stroke-width="5.000000"
	d="
M280.000000,396.000000 
	C289.673340,402.033905 300.611176,404.550201 311.519257,406.911072 
	C319.755371,408.693634 328.166656,409.666656 336.500000,410.999969 
"/>
<path fill="none" stroke="#000000" stroke-linecap="round" stroke-linejoin="round" stroke-width="8.000000"
	d="
M350.500000,126.000000 
	C344.606445,130.687683 338.390167,135.046997 335.485931,142.494507 
	C329.472809,157.914383 329.391876,172.790115 338.915955,187.056107 
	C340.153839,188.910294 342.330261,190.528137 342.000000,193.250000 
"/>
<path fill="none" stroke="#000000" stroke-linecap="round" stroke-linejoin="round" stroke-width="6.000000"
	d="
M285.500000,361.000000 
	C302.277679,367.345886 319.749359,370.553619 337.500000,372.500000 
"/>
<path fill="none" stroke="#000000" stroke-linecap="round" stroke-linejoin="round" stroke-width="6.000000"
	d="
M285.500000,461.000000 
	C300.434113,465.628632 315.413452,470.028107 330.985779,472.106628 
	C333.186279,472.400360 335.328125,472.400940 337.500000,472.500000 
"/>
<path fill="none" stroke="#000000" stroke-linecap="round" stroke-linejoin="round" stroke-width="6.000000"
	d="
M521.500000,361.500000 
	C505.036255,367.652985 487.911041,370.739044 470.500000,372.500000 
"/>
<path fill="none" stroke="#000000" stroke-linecap="round" stroke-linejoin="round" stroke-width="5.000000"
	d="
M285.500000,373.000000 
	C301.295105,379.197815 317.866577,382.228210 334.505646,384.965698 
	C335.128021,385.068146 335.833344,384.666687 336.500000,384.500000 
"/>
<path fill="none" stroke="#000000" stroke-linecap="round" stroke-linejoin="round" stroke-width="5.000000"
	d="
M285.500000,423.000000 
	C301.983398,429.124390 319.118103,432.360260 336.500000,434.500000 
"/>
<path fill="none" stroke="#000000" stroke-linecap="round" stroke-linejoin="round" stroke-width="6.000000"
	d="
M522.500000,461.000000 
	C507.805908,466.703033 492.411560,469.644623 476.992004,472.456177 
	C475.217651,472.779694 473.333344,472.500000 471.500000,472.500000 
"/>
<path fill="none" stroke="#000000" stroke-linecap="round" stroke-linejoin="round" stroke-width="5.000000"
	d="
M522.500000,607.000000 
	C516.646729,607.500793 511.649506,610.763062 506.012573,612.054932 
	C494.590088,614.672668 483.358124,618.234070 471.500000,618.500000 
"/>
<path fill="none" stroke="#000000" stroke-linecap="round" stroke-linejoin="round" stroke-width="5.000000"
	d="
M336.500000,618.500000 
	C321.020172,617.056458 305.994904,613.684143 291.486267,608.035278 
	C289.582367,607.294006 287.713806,606.144836 285.500000,606.500000 
"/>
<path fill="none" stroke="#000000" stroke-linecap="round" stroke-linejoin="round" stroke-width="5.000000"
	d="
M522.500000,374.000000 
	C516.211304,374.627380 510.618134,377.721130 504.507965,379.036926 
	C493.912567,381.318573 483.435181,384.228943 472.500000,384.500000 
"/>
<path fill="none" stroke="#000000" stroke-linecap="round" stroke-linejoin="round" stroke-width="5.000000"
	d="
M335.500000,307.500000 
	C319.296692,305.194855 303.238678,302.297760 287.984589,296.037567 
	C287.271362,295.744873 286.333344,296.000000 285.500000,296.000000 
"/>
<path fill="none" stroke="#000000" stroke-linecap="round" stroke-linejoin="round" stroke-width="5.000000"
	d="
M335.500000,446.000000 
	C320.768890,443.891602 306.051849,441.800079 291.951965,436.631073 
	C289.870483,435.868011 288.064819,433.872650 285.500000,434.500000 
"/>
<path fill="none" stroke="#000000" stroke-linecap="round" stroke-linejoin="round" stroke-width="5.000000"
	d="
M523.500000,336.000000 
	C510.958221,340.455811 498.039642,343.475494 484.993439,345.965668 
	C481.202789,346.689209 477.333344,346.999969 473.500000,347.499969 
"/>
<path fill="none" stroke="#000000" stroke-linecap="round" stroke-linejoin="round" stroke-width="5.000000"
	d="
M285.500000,529.000000 
	C298.962830,534.795166 313.334717,537.282043 327.512939,540.441956 
	C330.088806,541.016052 332.833344,540.833374 335.500000,541.000000 
"/>
<path fill="none" stroke="#000000" stroke-linecap="round" stroke-linejoin="round" stroke-width="5.000000"
	d="
M522.500000,529.000000 
	C510.988495,534.091919 498.904572,537.107422 486.502808,539.018127 
	C481.818939,539.739807 477.166656,540.666687 472.500000,541.500000 
"/>
<path fill="none" stroke="#000000" stroke-linecap="round" stroke-linejoin="round" stroke-width="5.000000"
	d="
M285.500000,580.000000 
	C299.651184,585.805603 314.371002,589.459412 329.507477,591.442932 
	C331.533569,591.708435 333.249573,593.669312 335.500000,592.500000 
"/>
<path fill="none" stroke="#000000" stroke-linecap="round" stroke-linejoin="round" stroke-width="5.000000"
	d="
M521.500000,423.500000 
	C510.078369,427.452942 498.367523,430.313171 486.490387,432.446503 
	C481.882568,433.274109 477.166656,433.500000 472.500000,434.000000 
"/>
<path fill="none" stroke="#000000" stroke-linecap="round" stroke-linejoin="round" stroke-width="9.000000"
	d="
M320.000000,125.500000 
	C320.114868,127.617523 319.029022,129.387741 317.954773,130.969284 
	C310.070526,142.576782 307.643524,155.095917 309.748077,169.038025 
	C310.557617,174.401047 312.253296,179.577515 313.983612,184.323700 
	C315.541748,188.597717 319.702271,193.547516 325.999420,193.459274 
	C328.659210,193.421997 331.027069,194.411285 333.486389,195.052216 
	C335.223389,195.504898 336.810303,195.662827 338.503662,195.009476 
	C351.927246,189.830154 363.179474,197.921494 366.965759,208.512253 
	C369.385223,215.279831 370.772919,221.923676 370.034088,229.551727 
	C369.547485,234.575745 371.362793,240.419510 371.558960,245.997925 
	C371.720947,250.604691 370.442230,254.426666 367.000000,257.500000 
"/>
<path fill="none" stroke="#000000" stroke-linecap="round" stroke-linejoin="round" stroke-width="5.000000"
	d="
M285.500000,284.000000 
	C296.867859,287.646576 308.278534,291.241058 320.023499,293.370300 
	C325.763916,294.410950 331.553833,295.820496 337.500000,295.500000 
"/>
<path fill="none" stroke="#000000" stroke-linecap="round" stroke-linejoin="round" stroke-width="5.000000"
	d="
M520.500000,284.500000 
	C504.713745,290.603607 488.315765,293.982361 471.500000,295.500000 
"/>
<path fill="none" stroke="#000000" stroke-linecap="round" stroke-linejoin="round" stroke-width="5.000000"
	d="
M521.500000,580.500000 
	C514.145020,583.955811 506.277191,585.907837 498.476990,587.910400 
	C490.413849,589.980225 482.169098,591.345581 473.993439,592.966980 
	C473.544159,593.056030 473.000000,592.666626 472.500000,592.500000 
"/>
<path fill="none" stroke="#000000" stroke-linecap="round" stroke-linejoin="round" stroke-width="5.000000"
	d="
M521.500000,434.500000 
	C510.031281,439.679962 497.836456,442.081970 485.505646,444.035583 
	C481.174286,444.721863 476.927094,445.942749 472.500000,446.000000 
"/>
<path fill="none" stroke="#000000" stroke-linecap="round" stroke-linejoin="round" stroke-width="5.000000"
	d="
M287.500000,618.000000 
	C301.902924,624.946655 317.318024,628.209167 333.000061,630.499512 
	C334.166199,630.669861 335.333344,630.833313 336.500000,631.000000 
"/>
<path fill="none" stroke="#000000" stroke-linecap="round" stroke-linejoin="round" stroke-width="5.000000"
	d="
M286.500000,336.500000 
	C302.121857,341.816803 318.165771,345.291718 334.500000,347.500000 
"/>
<path fill="none" stroke="#000000" stroke-linecap="round" stroke-linejoin="round" stroke-width="6.000000"
	d="
M520.500000,618.500000 
	C505.147766,625.154114 489.029449,628.866455 472.500000,631.000000 
"/>
<path fill="none" stroke="#000000" stroke-linecap="round" stroke-linejoin="round" stroke-width="5.000000"
	d="
M288.500000,519.000000 
	C302.719727,523.661133 317.360687,526.581604 332.007477,529.461914 
	C333.451630,529.745911 335.000000,529.500000 336.500000,529.500000 
"/>
<path fill="none" stroke="#000000" stroke-linecap="round" stroke-linejoin="round" stroke-width="5.000000"
	d="
M287.500000,473.500000 
	C297.818085,477.136658 308.277771,480.310059 319.008942,482.455200 
	C324.457794,483.544434 330.000000,484.166656 335.500000,485.000000 
"/>
<path fill="none" stroke="#000000" stroke-linecap="round" stroke-linejoin="round" stroke-width="5.000000"
	d="
M521.500000,473.500000 
	C510.830841,477.092834 500.118835,480.540771 488.997925,482.488190 
	C483.843414,483.390778 478.666656,484.166656 473.500000,484.999969 
"/>
<path fill="none" stroke="#000000" stroke-linecap="round" stroke-linejoin="round" stroke-width="8.000000"
	d="
M440.000000,268.000000 
	C437.851959,270.830994 434.961212,271.567078 431.499786,271.553711 
	C420.826599,271.512421 410.187225,273.156830 399.502472,272.462189 
	C392.338287,271.996399 385.213043,271.235718 377.997650,271.390076 
	C374.111694,271.473175 370.693146,269.447021 368.000000,266.500000 
"/>
<path fill="none" stroke="#000000" stroke-linecap="round" stroke-linejoin="round" stroke-width="5.000000"
	d="
M521.500000,518.500000 
	C509.996094,522.132935 498.405487,525.449646 486.495026,527.470642 
	C481.524994,528.314026 476.500000,528.833374 471.500000,529.500000 
"/>
<path fill="none" stroke="#000000" stroke-linecap="round" stroke-linejoin="round" stroke-width="5.000000"
	d="
M520.500000,296.500000 
	C506.373260,301.546356 491.733063,304.467529 476.994751,306.969055 
	C476.536224,307.046844 476.000000,306.666656 475.500000,306.500000 
"/>
<path fill="none" stroke="#000000" stroke-linecap="round" stroke-linejoin="round" stroke-width="5.000000"
	d="
M425.500000,224.500000 
	C424.749695,232.666672 425.034790,240.877029 425.714325,248.982025 
	C426.067505,253.194611 424.910400,257.370239 426.000000,261.500000 
"/>
<path fill="none" stroke="#000000" stroke-linecap="round" stroke-linejoin="round" stroke-width="4.000000"
	d="
M341.500000,166.500000 
	C351.456512,168.192078 360.899536,171.279144 368.956848,177.555405 
	C372.382050,180.223495 375.333344,183.500000 378.500000,186.500000 
"/>
<path fill="none" stroke="#000000" stroke-linecap="round" stroke-linejoin="round" stroke-width="6.000000"
	d="
M309.500000,173.500000 
	C303.373749,174.514893 297.519714,172.189713 291.499176,172.031250 
	C285.831360,171.882095 280.048065,168.300705 274.500000,172.500000 
"/>
<path fill="none" stroke="#000000" stroke-linecap="round" stroke-linejoin="round" stroke-width="5.000000"
	d="
M302.500000,162.500000 
	C294.536926,162.886185 286.804230,160.965485 279.026398,159.820663 
	C275.866516,159.355545 273.000000,158.884460 270.000000,160.000000 
"/>
<path fill="none" stroke="#000000" stroke-linecap="round" stroke-linejoin="round" stroke-width="4.000000"
	d="
M322.000000,163.500000 
	C321.599060,170.907349 323.589722,177.861023 326.609100,184.450012 
	C327.969940,187.419693 329.388458,190.160614 329.000000,193.500000 
"/>
<path fill="none" stroke="#000000" stroke-linecap="round" stroke-linejoin="round" stroke-width="4.000000"
	d="
M349.500000,138.500000 
	C356.371338,140.191635 363.473724,140.987915 370.033203,143.925888 
	C370.737457,144.241318 371.466736,144.399841 372.000000,145.000000 
"/>
<path fill="none" stroke="#000000" stroke-linecap="round" stroke-linejoin="round" stroke-width="4.000000"
	d="
M285.500000,131.000000 
	C292.200348,131.563873 298.709137,133.660202 305.500000,133.500000 
"/>
</svg>