<svg xmlns="http://www.w3.org/2000/svg" width="100%" height="100%" preserveAspectRatio="xMidYMid meet" viewBox="0 0 768 768" fill="currentColor">
<path 
	d="
M240.831207,487.000000 
	C240.769409,447.834473 240.773392,409.168640 240.611633,370.503540 
	C240.553802,356.680359 239.644562,342.848633 239.957001,329.039673 
	C240.223312,317.268341 240.490036,305.436951 243.285934,293.825897 
	C246.218063,281.649200 251.390656,270.624359 258.619202,260.458862 
	C261.977661,255.735870 265.637726,251.216370 266.947906,245.248779 
	C267.904694,240.890930 267.157349,237.583557 263.935242,234.407684 
	C259.017242,229.560287 256.321777,223.881485 259.241547,216.811890 
	C260.494659,213.777771 263.465576,212.146317 265.220551,209.421417 
	C264.391602,207.070389 262.096802,206.059845 260.588837,204.355225 
	C255.938293,199.098145 255.609406,193.974258 259.311218,188.011108 
	C262.083618,183.545120 263.276733,179.187576 261.395935,173.468735 
	C258.030121,163.234375 259.917999,152.662292 262.889557,142.554977 
	C264.301483,137.752487 268.724670,135.047501 273.132202,132.790421 
	C285.481476,126.466415 298.918579,123.971436 312.401276,121.800179 
	C337.254211,117.797867 362.271271,115.191078 387.466278,115.849266 
	C417.615387,116.636879 447.632629,119.034035 476.952667,126.757675 
	C483.074677,128.370361 489.004913,130.647598 494.396271,134.091034 
	C499.427917,137.304764 502.776520,141.679214 503.480042,147.751785 
	C504.438873,156.028519 505.005249,164.176224 502.725403,172.506287 
	C501.440063,177.202652 503.423004,182.554825 505.311462,186.868851 
	C509.772186,197.058807 509.738525,199.805328 501.709808,207.208771 
	C501.117950,207.754562 500.601807,208.382523 499.890808,209.143036 
	C500.711975,210.175201 501.396210,211.078140 502.124512,211.944031 
	C508.860382,219.952393 508.573517,226.925186 501.191162,234.385239 
	C496.697784,238.925949 496.556458,245.019012 500.921967,252.143738 
	C504.921417,258.670959 509.850464,264.562805 513.435669,271.405823 
	C521.856873,287.479309 524.968689,304.809540 524.987427,322.589691 
	C525.032532,365.247772 524.369751,407.906128 524.169434,450.565155 
	C523.994141,487.896790 524.098633,525.229675 524.001404,562.561707 
	C523.958740,578.959473 520.598022,594.683472 513.352051,609.426819 
	C506.261017,623.855042 494.816833,633.451538 479.834778,639.214600 
	C458.027191,647.603149 435.333374,651.394226 412.197021,653.537170 
	C377.057831,656.791931 342.397797,653.927856 308.035065,646.383728 
	C301.687164,644.990112 295.565399,642.816467 289.384918,640.815918 
	C266.306366,633.345764 252.727554,617.156494 245.659866,594.521179 
	C241.875854,582.402222 241.235306,569.951843 241.045654,557.494080 
	C240.690491,534.167053 240.872849,510.831818 240.831207,487.000000 
M293.015839,630.997864 
	C293.015839,630.997864 292.982758,630.970032 293.517151,631.427551 
	C301.910583,635.318115 310.976990,636.877625 319.923950,638.623474 
	C353.316925,645.139648 386.985199,646.543274 420.778748,642.621277 
	C440.137665,640.374512 459.273834,636.817871 477.489410,629.459839 
	C489.567932,624.580872 498.648254,616.508850 504.504883,604.770264 
	C510.567230,592.619446 513.512390,579.728394 513.656128,566.251465 
	C514.091370,525.437622 514.184631,484.617065 514.329590,443.805176 
	C514.481567,401.014648 517.006958,358.223602 514.751343,315.424744 
	C513.904785,299.361237 510.151917,284.222137 501.523651,270.446838 
	C495.935699,261.525513 488.062408,253.755524 487.826385,242.043915 
	C483.713959,243.269348 480.409882,244.357300 477.051483,245.238113 
	C452.766327,251.607452 427.965271,253.638657 402.960632,254.487473 
	C365.239502,255.767990 327.784546,254.236069 290.861664,245.700180 
	C287.950653,245.027206 286.502869,245.558517 286.180603,248.795334 
	C285.656677,254.057587 283.560791,258.763214 280.174316,262.834259 
	C278.960480,264.293488 277.805267,266.265991 275.071442,264.698608 
	C276.388550,260.768982 277.810760,256.888458 278.988434,252.935104 
	C281.290314,245.207886 281.139923,244.252518 277.737488,242.129608 
	C277.455719,242.716934 276.980896,243.265991 276.948761,243.839859 
	C276.475372,252.290237 271.897339,258.779175 267.085876,265.266449 
	C258.275330,277.145599 252.973785,290.492371 251.227386,305.205597 
	C249.200699,322.280273 249.388290,339.382782 249.815338,356.557190 
	C250.602081,388.196228 250.689713,419.854431 250.889572,451.505768 
	C251.129456,489.493652 251.089996,527.483398 251.366425,565.470947 
	C251.461807,578.578064 253.910980,591.267273 259.756348,603.174500 
	C266.745605,617.411865 277.484558,627.082764 293.015839,630.997864 
M398.588867,177.395386 
	C398.628998,180.487305 399.978027,183.972473 395.950989,186.247757 
	C392.216522,182.448257 394.502899,177.901093 393.976166,173.559113 
	C391.970215,173.261780 390.108429,172.831802 388.356140,173.796982 
	C387.683929,178.104614 389.724854,182.542984 386.635437,186.875748 
	C381.746826,182.871109 384.838837,177.771530 383.725922,173.391769 
	C381.693237,173.493896 379.728394,172.468872 378.022278,174.142471 
	C378.139832,176.543854 378.359833,178.863708 378.331726,181.180527 
	C378.310852,182.900589 378.722382,185.441147 376.105164,185.325104 
	C373.750275,185.220673 373.897705,182.780075 373.838623,180.981796 
	C373.758575,178.547928 373.818695,176.109451 373.818695,173.659012 
	C371.751190,172.993500 369.860413,172.523407 367.997711,173.914246 
	C367.282135,177.313599 369.621582,181.154388 366.556152,184.424789 
	C363.838348,182.214722 364.529205,179.329834 364.836090,176.886856 
	C365.306274,173.143799 363.753815,172.285538 360.411407,172.268234 
	C355.590485,172.243301 350.772980,171.781815 345.951569,171.559998 
	C343.033203,171.425735 340.067200,170.700363 337.471588,171.748901 
	C335.981140,174.808365 338.399841,178.414047 335.303314,180.839569 
	C333.217987,179.415726 334.020844,177.418015 333.821747,175.708405 
	C333.553101,173.401917 334.638123,170.402649 330.546143,170.316666 
	C326.208649,170.225540 327.545074,173.343506 327.457397,175.585693 
	C327.369720,177.827972 327.991760,180.271774 325.175079,181.563660 
	C322.770782,179.253738 323.737885,176.429932 323.696472,173.904877 
	C323.646790,170.877060 323.487122,168.419098 319.323792,169.723114 
	C318.170074,173.267014 320.926819,177.723114 316.809692,180.756622 
	C313.325562,176.984390 315.463776,172.613876 314.952332,168.758118 
	C313.541199,168.238678 312.330414,167.665466 311.002960,168.303711 
	C310.213989,172.014145 312.822296,176.479294 308.578094,179.773529 
	C305.962494,177.070984 306.978607,174.100555 306.643494,171.406799 
	C306.432220,169.708694 308.248840,166.603195 304.962067,166.749634 
	C301.997009,166.881744 303.664703,169.898315 303.500549,171.645172 
	C303.265137,174.150116 304.034485,176.981552 301.009369,178.442764 
	C297.961060,176.464600 299.035583,173.491455 298.397308,171.044220 
	C297.881561,169.066849 301.154999,165.124039 295.610626,165.172821 
	C295.056030,169.223633 297.778625,173.782867 293.086395,176.883865 
	C288.217438,173.234131 292.474457,167.520157 289.941498,162.828033 
	C287.790710,166.008408 289.721985,168.839905 289.050507,171.434509 
	C288.629669,173.060501 288.498169,175.125366 286.487274,175.231827 
	C284.461121,175.339127 284.148499,173.350861 283.618652,171.720322 
	C282.561951,168.468369 283.857788,165.031265 282.582001,161.784348 
	C282.091736,163.870102 282.138824,165.952423 282.078308,168.031616 
	C282.019226,170.062347 281.890808,172.660812 279.345367,172.560318 
	C276.891144,172.463409 276.852631,169.811035 276.790222,167.822861 
	C276.699493,164.930450 276.766937,162.033066 276.766937,158.144882 
	C274.472351,162.624222 276.875824,167.275681 273.069794,170.750916 
	C268.834045,166.458496 271.664642,161.191681 270.510437,155.779495 
	C269.163757,159.174377 269.345673,161.801926 269.374603,164.398682 
	C269.471832,173.122330 271.084229,175.360733 279.547760,177.845337 
	C305.921082,185.587601 333.059967,188.432999 360.355103,189.583679 
	C381.817322,190.488449 403.333435,190.256790 424.707428,187.601242 
	C436.092957,186.186691 447.415161,184.246170 458.743683,182.405945 
	C460.567871,182.109634 463.321198,181.743088 462.460907,178.869095 
	C461.282288,174.931610 462.015869,170.960724 461.682068,166.800522 
	C459.155670,167.020447 457.772644,167.339996 458.122528,170.644867 
	C458.499420,174.204666 459.667480,178.386093 456.204193,181.671936 
	C452.920624,179.023956 454.013855,175.823151 453.668976,172.978516 
	C453.455017,171.213623 454.613007,168.348953 451.328369,168.557587 
	C448.181488,168.757477 449.981903,171.287842 449.916718,172.853134 
	C449.774811,176.258698 450.932037,180.051361 446.973206,182.650589 
	C444.220367,178.451767 445.405670,174.059097 445.265656,169.817596 
	C440.925140,169.139862 440.066162,171.280075 440.415833,174.691284 
	C440.726746,177.724579 441.398804,180.898682 438.165710,183.500504 
	C434.898956,179.567139 436.344452,175.100693 436.062927,170.243958 
	C430.388519,171.739426 424.704315,170.580078 419.487854,172.469391 
	C418.250549,176.610031 420.875305,181.165573 417.456787,184.943466 
	C414.991150,182.608276 415.694122,180.137589 415.641296,177.923904 
	C415.497925,171.913528 414.998016,171.500443 408.757812,173.177490 
	C407.706970,177.124481 411.191833,181.971069 406.602783,185.799942 
	C403.833801,182.767105 404.804565,179.325409 404.715912,176.168396 
	C404.636627,173.345627 402.977478,173.001724 400.724304,173.000076 
	C397.856598,172.997971 397.928772,174.634491 398.588867,177.395386 
M364.270416,206.072739 
	C363.180023,205.609238 361.571869,205.985107 361.175049,204.157562 
	C363.808929,202.503876 366.700531,203.046143 369.456116,203.038574 
	C395.114746,202.968201 420.682220,201.548248 446.063721,197.662933 
	C461.381470,195.318130 476.464996,191.957001 490.945435,186.240082 
	C493.964050,185.048325 495.961792,183.659454 493.817871,179.731140 
	C489.889374,181.358429 486.148163,183.082779 482.288116,184.478577 
	C458.209808,193.185349 432.900696,195.218521 407.732880,196.991959 
	C378.490234,199.052505 349.167023,198.412231 320.044312,194.276123 
	C305.070282,192.149445 290.048370,190.172562 275.812500,184.617218 
	C274.080414,183.941299 271.997101,182.225540 270.817108,185.207397 
	C269.820740,187.725235 269.192596,190.456802 271.797699,192.506927 
	C272.820984,193.312210 274.109039,193.827438 275.339447,194.316345 
	C300.704926,204.395142 327.390411,207.833588 354.338165,209.635086 
	C373.605499,210.923141 392.880035,211.127441 412.210358,209.849258 
	C429.358093,208.715363 446.377380,207.184509 462.971802,202.592819 
	C472.261810,200.022247 481.834961,198.307205 490.620361,194.100388 
	C492.942963,192.988205 495.616882,191.928329 494.317902,187.896286 
	C491.390656,190.009705 488.690002,191.865585 485.670135,193.242584 
	C469.519104,200.607040 452.186249,203.314224 434.852875,205.143768 
	C411.681213,207.589554 388.372406,208.520767 364.270416,206.072739 
M485.845367,146.073654 
	C484.060059,149.737579 481.295349,151.808212 475.992371,151.890350 
	C478.036011,150.168869 479.308014,149.174606 480.489441,148.082397 
	C481.916321,146.763260 483.265198,144.908875 481.582855,143.354782 
	C478.245544,140.271820 475.752716,136.006943 470.985962,134.737350 
	C453.382446,130.048782 435.357086,127.522476 417.269836,126.503365 
	C397.502991,125.389618 377.658997,125.281837 357.825897,126.075027 
	C334.953369,126.989769 312.469299,130.368759 290.253326,135.679031 
	C284.912811,136.955566 279.659515,138.789352 275.090057,141.954926 
	C271.328491,144.560822 271.431702,146.703415 275.179901,149.209106 
	C278.961609,151.737183 283.246918,153.167923 287.549591,154.488068 
	C308.551575,160.931839 330.274078,163.247025 352.018158,164.454208 
	C387.475739,166.422729 422.935364,165.967712 458.034088,159.583145 
	C468.809082,157.623138 479.764191,155.795609 489.244202,149.668091 
	C493.770599,146.742401 493.708923,144.358871 489.237427,141.473740 
	C488.052460,140.709167 486.881653,139.645477 485.202423,139.985779 
	C485.473450,141.815186 485.734741,143.578598 485.845367,146.073654 
M495.522736,226.954498 
	C497.526703,224.484360 498.755219,221.971878 495.873688,218.787857 
	C489.040405,226.036865 480.159088,228.761185 471.175201,231.292587 
	C448.083588,237.799210 424.321320,239.154404 400.561920,240.168076 
	C376.076355,241.212723 351.583435,240.259796 327.304474,237.062073 
	C307.037048,234.392715 286.110657,233.074997 269.144928,218.825851 
	C266.294830,221.963684 267.063385,224.607925 269.816406,227.055878 
	C273.728882,230.534805 278.245209,232.968384 283.188263,234.650955 
	C307.721283,243.001862 333.283539,245.458633 358.862976,246.450272 
	C392.637329,247.759613 426.465942,247.517929 459.812988,240.571579 
	C472.187500,237.993896 484.688354,235.615738 495.522736,226.954498 
M467.451477,224.882172 
	C474.395264,222.628174 481.734436,221.182495 487.847473,215.348083 
	C417.518951,232.524719 348.087494,231.689865 278.296448,215.103455 
	C279.637756,218.235855 282.191376,218.861755 284.375488,219.871201 
	C293.535400,224.104752 303.353668,225.994980 313.206726,227.651093 
	C342.890503,232.640381 372.823090,233.456284 402.829590,232.679260 
	C424.332031,232.122482 445.647522,229.845215 467.451477,224.882172 
M468.590210,208.311707 
	C452.669159,211.891235 436.535614,214.072510 420.274811,215.148987 
	C387.329529,217.329987 354.411469,217.016266 321.690369,212.244110 
	C302.707764,209.475632 283.375977,207.581650 266.403473,197.118423 
	C271.199158,201.904144 277.298065,204.301331 283.477264,206.522705 
	C298.285492,211.846176 313.707855,214.154114 329.245880,216.092255 
	C348.597137,218.506058 368.047516,219.501907 387.484497,219.353134 
	C408.259674,219.194153 429.039825,217.844131 449.627594,214.699127 
	C463.122406,212.637665 476.511749,210.067551 489.111847,204.482086 
	C494.597565,202.050339 497.077850,200.114365 498.573883,196.850845 
	C489.763092,203.091217 479.518982,205.448959 468.590210,208.311707 
M476.577789,171.039276 
	C476.236847,168.667725 477.157288,166.149719 475.621796,162.810593 
	C472.061096,167.869919 477.454712,174.382874 471.748962,178.046112 
	C468.544983,175.313828 469.186646,171.842194 469.515503,168.431931 
	C469.644592,167.093369 469.830109,165.511108 467.832397,165.543518 
	C465.892151,165.574997 466.026031,167.053436 466.191528,168.458084 
	C466.657501,172.413452 466.494385,176.346130 465.250732,180.849457 
	C473.967499,178.732361 482.156586,176.865768 489.583130,172.671143 
	C495.526733,169.314087 497.002899,164.475906 494.212097,157.184372 
	C493.548981,161.561172 496.074432,166.386932 491.573547,169.715729 
	C488.420929,167.013885 490.412628,163.109268 488.412537,159.860840 
	C488.412537,163.280869 488.562225,166.229645 488.356842,169.153488 
	C488.231934,170.931854 487.847137,173.215942 485.497009,173.167984 
	C483.332062,173.123810 483.552490,170.851898 483.155273,169.308029 
	C482.522003,166.846710 483.736420,164.166199 481.978088,160.221222 
	C479.942596,166.082565 484.274323,171.844437 479.248413,175.709869 
	C477.325867,174.984390 476.775513,173.525436 476.577789,171.039276 
z"/>
<path 
	d="
M260.111328,364.999847 
	C260.567352,400.817383 261.379486,436.135590 261.319855,471.452393 
	C261.281952,493.913971 262.185333,516.443787 259.333099,538.837585 
	C259.126984,540.455811 259.287750,542.183289 257.930328,543.807861 
	C256.141541,542.623291 256.772034,540.840332 256.705353,539.378845 
	C255.543213,513.906128 256.151520,488.402954 255.508179,462.927856 
	C254.822403,435.771271 255.519699,408.592743 254.444290,381.468872 
	C253.545212,358.792419 253.835403,336.179108 254.763123,313.548553 
	C255.297318,300.517914 258.999786,288.330475 265.813354,277.148712 
	C267.787415,273.909027 270.640503,271.626068 274.033478,270.079681 
	C285.731628,264.748047 298.308838,262.625580 310.898590,262.097870 
	C318.011658,261.799744 325.248566,264.573120 332.436554,265.926422 
	C358.136414,270.765045 383.985046,271.366730 410.005219,269.132263 
	C424.782410,267.863312 439.313354,265.055664 453.965607,263.165497 
	C467.487183,261.421143 481.131836,264.135742 492.911743,271.321106 
	C502.110443,276.932037 505.071320,287.325012 507.688843,297.168884 
	C509.518188,304.048645 510.848969,311.174835 509.296356,318.409760 
	C509.029663,319.652496 509.354401,321.145142 506.985107,322.271820 
	C503.719604,309.983582 503.101746,297.015625 496.050781,284.863525 
	C491.740448,290.394348 485.822845,292.544800 480.176300,295.187805 
	C474.894836,297.659882 469.416473,299.073578 463.752258,297.054810 
	C455.891266,294.252991 448.703644,295.929962 441.648499,299.557343 
	C439.723236,300.547180 437.627838,301.257477 435.826904,302.428772 
	C428.698334,307.065033 421.158081,307.514832 413.352600,304.723541 
	C408.862762,303.117920 404.849884,303.151672 400.506042,305.623840 
	C392.859924,309.975372 384.630463,308.014557 376.573029,306.792542 
	C374.440948,306.469208 372.319946,305.972015 370.248199,305.368195 
	C357.815399,301.744568 345.314941,300.169373 332.311676,302.154907 
	C324.039978,303.417938 315.790436,301.686035 308.086975,298.585052 
	C306.075714,300.889099 305.275696,303.192200 304.681915,305.708679 
	C313.952637,307.999298 323.693085,307.936859 332.262787,312.659698 
	C322.336365,315.244110 313.086426,313.079590 303.809998,308.708221 
	C299.933990,315.773590 298.798553,323.379364 297.700897,331.211761 
	C304.147705,333.629913 311.279083,332.929047 317.253235,337.919159 
	C312.410919,340.420441 308.354553,338.844330 304.238861,338.250092 
	C301.850037,337.905151 298.263611,334.159180 297.167816,338.311127 
	C295.984100,342.796173 301.196442,341.350616 303.560181,342.283234 
	C307.018921,343.647919 311.000275,343.664276 315.061462,346.884033 
	C308.194824,349.947449 302.558228,345.832428 296.721039,345.839386 
	C295.483490,349.373352 296.198822,351.132965 300.104492,351.851624 
	C307.625885,353.235535 315.055817,355.116821 322.522369,356.797699 
	C323.493561,357.016327 324.497040,357.205994 324.929596,358.297821 
	C321.228668,361.527161 321.228668,361.527161 295.616394,355.655182 
	C293.674652,356.348114 294.950806,358.869110 293.337128,359.762817 
	C284.785156,349.399994 297.353729,292.540802 310.171265,283.561584 
	C311.151306,283.931946 311.211517,284.790955 311.132050,285.612030 
	C310.443390,292.729980 310.465576,292.614166 317.114319,294.461273 
	C322.854462,296.055908 328.759552,296.433807 334.460876,295.471191 
	C345.754700,293.564331 356.677643,294.612366 367.491821,297.897797 
	C374.393677,299.994629 381.530212,300.611481 388.625153,301.475952 
	C392.214050,301.913239 395.576996,300.716309 398.688965,299.067963 
	C403.565430,296.484863 408.450104,296.093201 413.596710,298.173370 
	C420.009247,300.765137 426.157471,300.365356 432.303345,296.898743 
	C436.344849,294.619080 440.757385,292.969025 445.076721,291.216797 
	C451.275238,288.702179 457.495422,288.252045 464.090790,290.254150 
	C472.772766,292.889679 485.752014,287.473114 491.147949,279.478119 
	C489.846344,276.651215 486.965271,275.920441 484.460632,274.797424 
	C477.075195,271.485962 468.991058,271.044159 461.232819,269.249268 
	C453.228516,267.397491 446.264862,271.478149 438.785736,272.530029 
	C410.847992,276.459106 382.899750,278.457001 354.692627,275.571564 
	C341.916290,274.264618 329.255188,272.561829 316.828613,269.361938 
	C307.808838,267.039276 299.296387,269.565704 290.851837,271.946014 
	C285.528534,273.446594 279.751587,274.075195 274.437744,278.131134 
	C280.877197,283.324707 286.595886,287.908478 294.547577,280.128906 
	C289.784149,292.708374 282.664093,303.415222 279.971527,316.049011 
	C277.296814,328.599182 279.239960,341.530579 276.063934,354.455200 
	C274.276367,346.505646 264.637115,348.435974 261.426300,342.055298 
	C265.453125,338.883148 268.349457,343.024475 271.989410,343.154480 
	C273.534882,340.191376 272.631592,338.406036 269.379211,337.465302 
	C266.349640,336.589050 263.411591,335.513977 261.925140,332.030029 
	C265.644379,328.970856 268.476440,333.012543 272.570374,332.966095 
	C273.378265,325.815216 263.788635,327.841492 263.228577,322.259247 
	C266.353180,319.081360 269.133484,323.188232 272.184662,323.046875 
	C274.135956,320.041168 272.965759,318.634125 269.852386,317.759216 
	C267.483429,317.093475 265.262085,315.937042 264.031097,313.605316 
	C266.144836,310.613922 268.351440,312.278687 270.454468,312.950195 
	C271.883270,313.406403 273.443695,314.295654 274.292175,312.298706 
	C275.091614,310.417114 273.638000,309.682739 272.224701,308.961090 
	C270.090851,307.871552 267.338928,307.502930 266.588989,304.251740 
	C269.085388,302.452484 271.280701,304.270081 273.485352,304.874451 
	C275.052155,305.303986 276.395111,305.711914 277.122711,303.677155 
	C277.769928,301.867188 276.475555,301.338348 275.314392,300.678558 
	C273.355042,299.565186 270.808746,299.141266 270.196625,296.341003 
	C271.565796,293.928345 273.727356,294.514618 275.401703,295.403748 
	C280.317200,298.014252 281.901367,295.311188 283.031189,291.038605 
	C280.573822,289.765625 278.194183,288.633942 275.911987,287.331573 
	C269.322601,283.571228 269.252716,283.511169 266.413605,290.837860 
	C262.656799,300.532776 260.310028,310.528351 260.298187,321.007874 
	C260.281830,335.505310 260.169556,350.002594 260.111328,364.999847 
z"/>
<path 
	d="
M312.301453,624.614014 
	C344.329681,632.700378 376.484619,633.890320 408.856720,632.000366 
	C417.982880,631.467529 427.082275,630.487610 436.202484,629.832092 
	C438.098541,629.695801 440.148224,629.144470 442.029083,630.476868 
	C441.446625,632.888550 439.229248,632.684998 437.664551,633.056641 
	C427.791901,635.401550 417.811768,637.283203 407.700623,638.141968 
	C376.818756,640.764771 346.144836,638.955566 315.964996,631.969543 
	C301.449615,628.609497 286.729950,624.993835 275.390533,614.016418 
	C261.237915,600.315674 256.454498,583.199829 256.887512,564.129150 
	C256.913757,562.972839 257.210114,561.810425 258.516510,560.929016 
	C261.004974,562.391235 260.684235,565.192566 261.140228,567.404785 
	C262.753387,575.231079 264.526794,582.980347 267.126556,590.567078 
	C273.346344,608.717957 286.381531,618.672241 304.674164,622.587036 
	C307.110626,623.108459 309.492249,623.886169 312.301453,624.614014 
z"/>
<path 
	d="
M297.242188,480.895386 
	C293.086884,479.012451 291.948059,475.993561 291.666382,471.926025 
	C290.262756,451.656403 289.972443,431.384216 290.756805,411.087555 
	C290.955261,405.952118 291.613312,400.913208 293.021515,395.815552 
	C300.025146,400.736938 308.177124,400.299011 315.476868,402.700806 
	C320.891418,404.482330 326.917419,404.171509 331.907623,407.742126 
	C319.735107,410.507812 308.461090,406.527130 297.227356,402.756348 
	C295.041718,408.047150 295.561127,409.457245 300.604065,410.735291 
	C307.691223,412.531372 314.854279,414.026245 321.961548,415.746185 
	C323.837646,416.200165 325.912170,416.343231 327.366302,417.944885 
	C324.425507,420.806122 324.425507,420.806122 296.224762,414.706238 
	C296.210052,435.401367 297.225983,455.949402 294.519562,476.515472 
	C308.700012,479.353699 322.737061,481.533752 336.253784,486.102295 
	C322.900879,487.624878 309.979248,486.312653 297.242188,480.895386 
z"/>
<path 
	d="
M503.712524,459.000153 
	C503.676910,418.701782 503.757812,378.905670 506.198547,339.159760 
	C506.245361,338.397461 506.765991,337.664276 507.063629,336.922424 
	C509.476624,337.157135 509.161377,338.915253 509.371674,340.267639 
	C510.348633,346.549011 510.309723,352.886475 510.288544,359.215515 
	C510.171417,394.199432 510.261658,429.186737 509.751282,464.165131 
	C509.591370,475.124420 509.987915,486.158691 508.408783,497.079834 
	C508.254028,498.149994 508.645142,499.457550 506.526642,500.470947 
	C503.709930,486.766785 503.748322,473.130371 503.712524,459.000153 
z"/>
<path 
	d="
M278.018738,487.996033 
	C277.928833,496.716553 278.421783,504.996857 275.380859,513.437866 
	C275.481873,505.321594 265.705902,508.437592 263.902008,502.662140 
	C266.735901,500.680695 266.735901,500.680695 272.333313,502.642700 
	C273.383484,499.163055 272.854431,496.737335 269.076385,495.291351 
	C266.890259,494.454651 264.374786,493.628296 263.375610,490.842468 
	C266.499878,487.901459 269.116180,491.161987 272.119751,491.160645 
	C273.430237,487.005615 272.139374,482.950531 271.881134,478.903839 
	C271.564819,473.948090 264.638397,475.724976 263.844238,471.097626 
	C266.183929,468.121674 268.801971,471.391144 271.338135,470.692719 
	C274.168243,463.249817 264.420135,464.906433 263.568817,459.905457 
	C265.900208,457.003357 268.652802,459.751343 271.420776,459.730652 
	C273.239685,441.744446 271.580444,423.639130 274.556458,405.433716 
	C277.937500,407.154388 277.206604,409.575043 277.322601,411.560242 
	C278.801056,436.859741 277.861572,462.183563 278.018738,487.996033 
z"/>
<path 
	d="
M459.656311,628.368286 
	C458.139221,628.460754 456.976532,628.631592 456.120483,627.697815 
	C456.499207,624.953125 458.728210,624.602661 460.508392,624.031982 
	C468.186859,621.570801 475.159454,617.539551 481.939514,613.446533 
	C489.651062,608.791138 493.003082,600.401184 496.470032,592.449036 
	C501.892059,580.012634 503.019714,566.755981 503.577759,553.431519 
	C503.876770,546.292664 503.444611,539.120728 504.719147,532.031250 
	C505.006989,530.430115 504.793335,528.665100 506.420563,527.608459 
	C508.094635,527.719666 508.181000,529.016052 508.234039,530.121765 
	C509.086487,547.891846 510.808075,565.763062 506.137970,583.240662 
	C502.089081,598.393127 496.299500,612.749451 481.661102,621.126099 
	C474.974396,624.952515 467.702057,627.300598 459.656311,628.368286 
z"/>
<path 
	d="
M279.150513,548.995850 
	C279.441071,566.036316 281.163940,582.334839 288.660278,598.329956 
	C281.545197,598.877502 276.323151,596.460815 271.434631,592.990906 
	C270.561920,592.371399 270.276489,591.339172 270.769531,590.311951 
	C271.301483,589.203735 272.355011,589.132141 273.346344,589.430786 
	C275.395782,590.048218 277.408661,590.786926 279.953064,591.651123 
	C279.357819,587.555481 278.101654,584.851990 274.096802,583.634216 
	C271.545746,582.858521 268.720978,581.768311 267.967316,578.540161 
	C270.304535,575.703979 272.727203,579.133240 275.268799,578.045715 
	C275.672699,575.046082 274.848999,572.710754 271.683228,571.534729 
	C271.527496,571.476929 271.370605,571.411926 271.230286,571.324585 
	C268.826294,569.828491 264.120422,569.150513 265.405090,565.785828 
	C266.784790,562.172302 270.150848,566.498169 273.016693,566.214783 
	C274.570374,562.983521 273.435669,561.163269 270.229614,559.790771 
	C267.757812,558.732727 264.799347,558.068298 263.494720,554.833252 
	C266.783051,551.983032 269.781769,555.002197 273.014801,555.268005 
	C274.002289,551.129639 274.577026,547.691467 269.098236,546.448853 
	C266.816437,545.931274 264.586792,544.559265 263.208923,542.070557 
	C266.700867,539.091003 269.755615,542.380920 272.825226,542.215454 
	C274.252960,539.711365 273.581726,537.235229 273.552765,534.571289 
	C269.254822,533.349060 264.609680,532.545044 262.134613,527.595825 
	C267.498077,524.980774 270.090881,529.348877 273.266113,531.003784 
	C275.208618,530.578003 274.154816,527.829102 277.039490,527.853516 
	C279.111694,534.470825 278.645233,541.558350 279.150513,548.995850 
z"/>
<path 
	d="
M497.180237,336.477936 
	C494.627106,337.361450 492.450134,338.204041 490.205841,338.787720 
	C484.693146,340.221527 484.540222,340.426819 485.900208,346.790405 
	C491.817596,346.040192 496.570160,340.539825 504.214752,341.673737 
	C498.576538,350.519867 489.524200,349.967957 482.399109,353.456512 
	C479.878479,350.605469 480.180176,347.186676 479.828918,343.975342 
	C479.666748,342.492645 479.724457,340.984741 479.703461,339.487946 
	C479.593475,331.643707 479.595795,331.643677 473.063873,329.411804 
	C473.086304,327.492889 474.678070,326.978149 475.989258,326.488129 
	C482.546448,324.037537 488.771210,320.882355 495.033691,317.794495 
	C496.620667,317.012024 498.709381,315.740692 499.933136,317.804230 
	C501.179626,319.906189 498.875702,321.006531 497.556274,322.117462 
	C494.850861,324.395386 491.621216,325.755524 488.341522,326.991333 
	C482.798798,329.079803 482.650116,329.568848 485.850647,335.241821 
	C491.918365,334.719147 496.266724,328.338165 503.443542,329.509125 
	C502.644196,333.400726 500.059662,334.837830 497.180237,336.477936 
z"/>
<path 
	d="
M457.341553,515.262817 
	C471.802734,511.171906 485.108795,504.843842 499.134857,500.243622 
	C500.193634,503.957520 498.201019,504.861694 496.619904,505.926453 
	C491.018158,509.698792 484.777588,512.109253 478.181763,513.081299 
	C474.780914,513.582458 471.917572,514.655762 468.964508,516.260132 
	C455.293884,523.687561 440.555603,526.184082 425.140839,525.227844 
	C424.323181,525.177124 423.472839,525.121033 422.744507,523.922974 
	C424.233185,520.718872 427.588104,521.254333 430.215149,520.991089 
	C439.347443,520.076233 448.270416,518.314697 457.341553,515.262817 
z"/>
<path 
	d="
M449.888550,351.190674 
	C435.398315,354.609222 421.246826,356.059021 406.968719,353.456818 
	C406.926544,352.961090 406.884369,352.465393 406.842194,351.969666 
	C425.819946,349.030365 444.797729,346.091034 464.992645,342.963196 
	C460.612610,348.226196 455.255341,349.321289 449.888550,351.190674 
z"/>
<path 
	d="
M386.882355,499.686523 
	C398.438843,498.795074 409.511322,497.897156 420.587799,497.051788 
	C420.974731,497.022247 421.401672,497.516724 421.813904,497.769379 
	C416.423615,505.662659 370.035431,507.663361 362.739410,499.688568 
	C371.114105,499.688568 378.756531,499.688568 386.882355,499.686523 
z"/>
<path 
	d="
M351.607727,463.620422 
	C358.648438,464.081055 365.308868,464.184235 371.866425,465.058746 
	C380.392578,466.195801 388.746643,464.868378 397.164246,464.233795 
	C399.412109,464.064301 401.778107,463.340454 403.606354,465.469147 
	C397.301819,472.222595 353.850922,472.093018 344.998047,465.144684 
	C346.605011,462.630493 349.066162,463.701996 351.607727,463.620422 
z"/>
<path 
	d="
M342.076904,400.290161 
	C326.088043,398.752075 310.500977,397.553650 295.744354,390.630341 
	C297.847565,387.659637 299.928955,388.201111 301.774170,388.645020 
	C318.256989,392.610535 335.022491,394.811493 351.822418,396.816559 
	C352.848053,396.938965 353.710083,397.366913 354.442749,398.940063 
	C350.638458,401.394104 346.457703,399.990234 342.076904,400.290161 
z"/>
<path 
	d="
M354.928589,433.316772 
	C348.447784,432.229248 342.253052,431.685944 336.937683,427.639252 
	C355.530609,428.382202 374.012695,429.263336 392.557678,430.018799 
	C380.485016,435.875580 367.927429,434.573578 354.928589,433.316772 
z"/>
<path 
	d="
M492.798523,376.701355 
	C495.699310,375.941437 499.091553,372.587219 500.589142,375.606598 
	C502.281128,379.017822 497.566376,380.059784 495.256439,381.355164 
	C483.368439,388.021912 470.296021,391.010315 456.951477,392.996887 
	C455.685669,393.185303 455.673370,393.102753 451.509033,391.017975 
	C465.946747,386.247681 479.721771,382.935028 492.798523,376.701355 
z"/>
<path 
	d="
M416.609253,422.038574 
	C406.327637,422.223022 396.431946,423.202637 386.320129,419.921478 
	C388.218231,418.632782 437.897369,413.733124 439.858948,414.749420 
	C433.004517,420.517365 424.770355,420.479889 416.609253,422.038574 
z"/>
<path 
	d="
M440.663391,542.627075 
	C451.583038,540.186279 462.073517,537.793884 473.448669,535.199768 
	C468.671600,544.212158 432.338593,551.735901 420.156158,546.759644 
	C427.012543,543.521973 433.891235,544.235229 440.663391,542.627075 
z"/>
<path 
	d="
M340.059692,344.835297 
	C354.031281,347.002930 367.662659,346.710754 381.280731,346.738007 
	C383.191040,346.741821 383.190887,346.816101 385.559998,348.430420 
	C378.561127,354.175354 340.143280,352.529205 333.601471,346.149719 
	C335.255280,344.078674 337.578644,345.090454 340.059692,344.835297 
z"/>
<path 
	d="
M343.570862,449.846191 
	C343.373871,446.676025 343.543243,446.430389 346.838531,446.951447 
	C357.228638,448.594269 367.680847,448.985443 378.169495,448.662323 
	C380.988678,448.575500 383.795746,448.141968 386.615082,447.997711 
	C388.696198,447.891205 390.897888,447.675629 393.066559,450.621246 
	C376.134521,455.935120 360.019257,454.781067 343.570862,449.846191 
z"/>
<path 
	d="
M346.764984,572.447937 
	C341.603088,571.404968 336.532959,571.297363 332.806519,567.708618 
	C332.900299,567.094971 332.994080,566.481323 333.087860,565.867615 
	C347.887451,567.084778 362.687012,568.301880 377.486603,569.518982 
	C377.490631,570.252075 377.494629,570.985168 377.498627,571.718262 
	C367.681976,576.252258 357.395142,573.716187 346.764984,572.447937 
z"/>
<path 
	d="
M345.318604,389.351501 
	C324.261017,389.458679 303.657715,385.090210 298.936066,378.152466 
	C315.361389,381.036621 331.786682,383.920776 348.206390,386.803955 
	C347.813446,389.313965 346.690765,389.182129 345.318604,389.351501 
z"/>
<path 
	d="
M295.743652,554.275391 
	C294.661407,553.376038 293.789154,552.453430 294.580963,551.544800 
	C295.696136,550.265015 297.366150,550.622375 298.782379,551.075012 
	C305.436035,553.201294 312.183411,554.922607 319.072357,556.091675 
	C324.469574,557.007507 329.883911,557.848328 335.240753,558.962158 
	C337.031158,559.334412 339.242004,559.133362 341.341675,562.069641 
	C324.854950,564.051208 310.176605,561.159546 295.743652,554.275391 
z"/>
<path 
	d="
M429.542694,537.230347 
	C428.136017,537.073303 427.107635,537.023926 426.603821,535.941467 
	C428.121338,534.369385 468.974823,524.200562 471.072357,524.914490 
	C471.311707,527.502136 469.209808,528.159668 467.520844,529.047668 
	C455.761597,535.230347 442.980560,536.782410 429.542694,537.230347 
z"/>
<path 
	d="
M413.591309,323.808777 
	C415.505005,323.838806 417.022064,323.812592 418.020508,325.236969 
	C413.291168,330.775574 380.410553,333.344421 371.631683,328.009430 
	C386.087952,324.969879 399.752930,325.383270 413.591309,323.808777 
z"/>
<path 
	d="
M487.070038,413.937836 
	C491.453918,413.156128 495.006866,409.757080 499.670685,411.382172 
	C496.097351,419.018616 464.145111,427.944916 454.755554,423.307922 
	C466.069733,420.033051 476.381378,417.048370 487.070038,413.937836 
z"/>
<path 
	d="
M433.079559,474.295044 
	C426.992950,474.282135 426.992950,474.282135 424.135223,472.839325 
	C425.966400,471.329407 466.305786,463.393311 468.508301,464.245728 
	C467.821655,467.575470 464.966003,468.379852 462.406921,469.222168 
	C453.045624,472.303406 443.514679,474.555023 433.079559,474.295044 
z"/>
<path 
	d="
M340.466614,356.717468 
	C355.263885,358.106781 369.698639,358.745300 384.114655,359.610870 
	C376.459534,365.628601 343.504486,364.267944 336.815399,358.315125 
	C337.289124,356.570496 338.775970,356.865143 340.466614,356.717468 
z"/>
<path 
	d="
M337.654663,540.864685 
	C339.357819,541.495850 341.086884,541.420105 341.560242,543.247437 
	C334.385590,547.222656 302.672211,540.541565 297.781860,533.887451 
	C299.641998,532.037476 301.728394,532.885132 303.773682,533.321716 
	C314.956940,535.709351 325.851959,539.388794 337.654663,540.864685 
z"/>
<path 
	d="
M401.692688,527.658508 
	C403.124420,529.794250 401.456299,530.261292 400.322052,530.594849 
	C385.849518,534.849731 371.280792,534.714905 356.673523,531.329407 
	C356.263153,531.234314 355.949402,530.722412 355.609222,530.421448 
	C355.983429,528.439026 357.563904,528.753357 358.759552,528.754211 
	C372.024261,528.763550 385.289673,528.898560 398.470215,526.965515 
	C399.394928,526.829895 400.405609,527.280457 401.692688,527.658508 
z"/>
<path 
	d="
M455.123749,449.360229 
	C446.095154,451.134064 437.518799,453.723145 428.036316,451.259247 
	C431.519348,448.470154 467.068085,440.402893 470.582855,441.881989 
	C466.028259,446.084991 460.806305,447.737671 455.123749,449.360229 
z"/>
<path 
	d="
M384.146057,617.020264 
	C390.250092,617.152710 395.898743,616.282593 401.489838,617.423645 
	C402.262360,617.581238 403.111603,617.866638 403.314636,618.857422 
	C398.093689,624.212769 370.443359,624.492554 363.800385,618.705444 
	C370.641266,616.804565 377.269775,617.932617 384.146057,617.020264 
z"/>
<path 
	d="
M365.904480,585.212769 
	C356.503876,584.458252 347.329803,584.851074 338.685425,580.242004 
	C341.680145,577.689026 373.046448,579.094849 380.781494,581.845093 
	C376.042664,585.278076 370.991699,584.453430 365.904480,585.212769 
z"/>
<path 
	d="
M449.572754,362.830902 
	C436.129944,365.767303 424.874664,366.225067 419.901215,364.151794 
	C422.372742,361.934662 460.602142,355.023407 463.288818,356.622620 
	C459.668121,360.715363 454.654938,361.374878 449.572754,362.830902 
z"/>
<path 
	d="
M424.028900,441.844238 
	C421.803802,440.352570 422.738342,439.317444 424.260071,439.014313 
	C436.769104,436.522583 449.298462,434.132141 461.834747,431.780670 
	C462.545410,431.647339 463.370819,432.125885 464.169739,432.326385 
	C462.009552,438.056915 439.703308,443.356140 424.028900,441.844238 
z"/>
<path 
	d="
M400.065186,407.712036 
	C412.176422,406.674713 423.640991,402.903351 436.363464,403.900238 
	C431.013824,410.227814 403.597870,413.855164 394.659424,410.105835 
	C395.693268,407.860779 397.786835,408.024902 400.065186,407.712036 
z"/>
<path 
	d="
M422.386169,314.631073 
	C421.491394,316.414795 420.035583,316.943298 418.604004,317.281128 
	C407.532410,319.893494 396.359985,321.256561 384.994812,319.590240 
	C383.893585,319.428772 382.620178,319.446045 381.904877,318.255066 
	C381.775818,316.739594 382.972595,316.803558 383.897217,316.690704 
	C394.782135,315.362335 405.662628,313.989014 416.565216,312.823029 
	C418.534515,312.612396 420.970154,311.829681 422.386169,314.631073 
z"/>
<path 
	d="
M313.438965,545.464722 
	C320.750519,547.596802 328.067810,548.253967 335.151154,551.336914 
	C327.554688,555.968567 299.447693,549.336060 294.991394,541.826050 
	C301.618622,541.194092 307.148346,544.375488 313.438965,545.464722 
z"/>
<path 
	d="
M351.068848,518.730408 
	C356.757690,519.823425 362.329102,519.167419 367.722565,521.429749 
	C361.200592,526.677368 333.216553,524.024841 326.985504,517.364868 
	C335.367249,515.420227 342.947510,518.579773 351.068848,518.730408 
z"/>
<path 
	d="
M313.387817,497.016663 
	C306.531891,494.944061 299.381317,494.696228 293.791077,489.557922 
	C297.483795,487.507568 329.308350,493.785675 333.476440,497.263153 
	C326.614594,499.773895 320.197693,497.478882 313.387817,497.016663 
z"/>
<path 
	d="
M450.066650,607.335754 
	C439.130585,610.561279 428.526276,613.292786 416.639648,611.459839 
	C420.128448,607.779724 450.596191,601.487793 454.784363,603.096619 
	C454.505737,605.706787 452.183289,606.173889 450.066650,607.335754 
z"/>
<path 
	d="
M450.928558,551.824951 
	C458.538910,550.773010 465.193085,547.061584 473.013947,546.811218 
	C469.242310,554.716858 441.705994,561.287659 433.995270,556.395630 
	C439.038300,552.571350 445.200317,553.676392 450.928558,551.824951 
z"/>
<path 
	d="
M441.341248,374.557068 
	C435.880646,375.455536 430.880493,375.850769 425.939209,374.655243 
	C425.846649,374.020447 425.754120,373.385651 425.661560,372.750854 
	C438.188110,370.057190 450.714630,367.363556 463.238129,364.670563 
	C464.332947,368.403076 462.262695,369.124634 460.488953,369.902771 
	C454.528473,372.517731 448.286591,374.038635 441.341248,374.557068 
z"/>
<path 
	d="
M473.906891,401.215576 
	C470.526398,400.888794 467.488403,403.475403 463.252625,400.392181 
	C476.378845,395.654297 488.504974,391.277374 500.631134,386.900452 
	C500.944458,387.676849 501.257751,388.453247 501.571075,389.229645 
	C494.270599,396.901184 484.079407,398.575653 473.906891,401.215576 
z"/>
<path 
	d="
M472.593903,251.978516 
	C457.805786,258.480865 442.679260,261.009705 426.299225,260.041534 
	C427.762665,256.921631 430.204651,257.171265 432.047638,256.932281 
	C444.559570,255.309692 456.908691,252.816360 469.256897,250.299820 
	C471.782318,249.785126 471.785095,249.798706 472.593903,251.978516 
z"/>
<path 
	d="
M365.306000,444.786926 
	C357.545593,444.044159 350.071716,444.108856 343.416290,439.818726 
	C357.013336,438.250366 370.477478,439.884949 384.025909,441.188538 
	C378.346313,445.013977 371.978485,444.548370 365.306000,444.786926 
z"/>
<path 
	d="
M381.925018,545.283569 
	C374.861572,545.271729 368.270844,545.336609 362.044128,542.311768 
	C374.274048,538.630188 386.729919,540.330505 399.032532,539.070068 
	C399.155182,539.909424 399.277832,540.748840 399.400513,541.588196 
	C394.327881,544.910095 388.356812,545.054626 381.925018,545.283569 
z"/>
<path 
	d="
M363.604492,336.979645 
	C365.768188,337.844208 368.088959,337.267609 369.353973,339.258942 
	C364.902649,343.374573 339.187531,341.191345 332.052185,336.127930 
	C334.876251,333.524872 335.535736,333.552124 347.348114,335.200378 
	C352.606201,335.934082 357.910187,336.338623 363.604492,336.979645 
z"/>
<path 
	d="
M347.288849,593.142578 
	C345.831604,590.208252 348.088074,589.926819 349.506866,590.058533 
	C360.224182,591.053162 371.091370,589.736755 381.704773,592.160034 
	C381.947327,592.215393 382.105377,592.641052 382.298737,592.897217 
	C377.667236,597.281921 359.511414,597.531189 347.288849,593.142578 
z"/>
<path 
	d="
M312.498932,605.709473 
	C311.262054,604.847168 309.861084,604.279724 310.530090,602.887146 
	C311.341614,601.198120 313.142426,601.586182 314.517822,601.836060 
	C320.045959,602.840149 325.539459,604.033386 331.052399,605.123230 
	C335.105164,605.924438 339.176788,606.631897 343.222229,607.467346 
	C344.769806,607.786926 346.625732,607.675964 347.684601,610.497009 
	C335.395111,612.461731 324.056335,609.710266 312.498932,605.709473 
z"/>
<path 
	d="
M323.879517,613.925415 
	C331.223267,615.888977 338.608215,615.838501 345.647858,618.566528 
	C340.336487,624.094727 315.540344,620.005737 309.887665,612.672241 
	C314.810211,611.171509 319.096680,613.413635 323.879517,613.925415 
z"/>
<path 
	d="
M414.594666,512.001160 
	C406.336304,513.100098 398.533600,513.287781 390.451172,511.528931 
	C393.115356,508.497345 421.451324,504.700562 426.956329,506.600494 
	C423.655792,510.547058 419.071899,510.697845 414.594666,512.001160 
z"/>
<path 
	d="
M433.434906,458.982941 
	C445.375885,456.147583 456.914093,453.089783 468.972626,451.487213 
	C468.945862,454.989349 466.883728,455.455292 465.335236,456.105286 
	C455.875458,460.076050 445.964691,461.771118 435.730225,461.422394 
	C434.631287,461.384979 431.920135,462.259705 433.434906,458.982941 
z"/>
<path 
	d="
M413.735962,401.120178 
	C409.609467,400.943817 405.694183,402.324554 402.311096,399.605011 
	C405.948700,396.072235 433.091370,391.924347 437.775970,394.567963 
	C430.444580,399.734283 422.095123,399.653961 413.735962,401.120178 
z"/>
<path 
	d="
M378.507233,607.130737 
	C369.324280,607.252014 360.453796,608.143982 352.497101,602.803284 
	C363.739624,601.300415 374.892487,601.267517 386.833252,603.112244 
	C384.595520,607.023621 381.327179,606.073059 378.507233,607.130737 
z"/>
<path 
	d="
M324.645203,504.973389 
	C326.282440,505.708344 328.093140,505.376251 328.701813,507.147736 
	C322.475037,511.317657 297.933014,506.284668 293.286957,498.661285 
	C304.506989,499.736664 314.187439,503.507019 324.645203,504.973389 
z"/>
<path 
	d="
M301.002441,609.002441 
	C295.653137,598.356812 293.704315,587.145569 294.361755,575.248413 
	C297.662415,575.392395 298.006470,577.115234 298.144745,578.762268 
	C298.886475,587.596252 301.598206,595.986572 303.800201,604.494080 
	C304.327698,606.532166 305.504150,608.968201 301.353760,609.038086 
	C301.000000,609.000000 301.002441,609.002441 301.002441,609.002441 
z"/>
<path 
	d="
M331.554382,257.007782 
	C333.548126,257.713379 335.550690,257.387848 336.664429,259.447754 
	C321.832123,260.326874 307.535431,258.289612 293.951263,251.878052 
	C306.607666,251.726746 318.721619,255.531158 331.554382,257.007782 
z"/>
<path 
	d="
M441.794861,571.680847 
	C447.583740,570.865051 452.746033,567.901184 458.738586,569.501587 
	C454.653107,576.157227 432.048401,580.766174 425.153198,576.392212 
	C430.340454,573.261047 436.158295,573.445618 441.794861,571.680847 
z"/>
<path 
	d="
M474.210266,561.463379 
	C471.440674,562.225952 469.088348,562.800537 466.633331,561.743286 
	C467.030121,559.324707 468.866760,559.087341 470.322784,558.510376 
	C477.751892,555.566345 485.134735,552.529724 492.251709,548.869141 
	C493.797607,548.074036 495.865265,546.697510 497.109314,548.867798 
	C498.263794,550.881897 496.355927,552.203796 494.841797,553.238770 
	C488.705231,557.433350 481.870209,559.928894 474.210266,561.463379 
z"/>
<path 
	d="
M479.738556,411.000793 
	C475.634155,411.883942 471.960541,413.069885 468.068237,411.889740 
	C470.573456,408.545654 496.431885,399.359070 501.544891,400.562958 
	C495.830475,407.938202 487.551636,408.575134 479.738556,411.000793 
z"/>
<path 
	d="
M304.507172,316.080322 
	C316.004852,316.064423 326.743378,319.008789 337.574615,321.382568 
	C337.953247,321.465576 338.219788,322.059998 338.494019,322.366302 
	C338.273499,324.036407 337.042236,324.210785 335.904388,324.235474 
	C326.180420,324.446320 316.713013,322.845856 307.506470,319.814026 
	C306.033081,319.328827 303.637512,319.005127 304.507172,316.080322 
z"/>
<path 
	d="
M492.262634,301.157654 
	C483.385468,306.837372 474.203339,310.205292 463.696808,310.599030 
	C463.946625,308.457611 464.583954,307.934326 465.369415,307.598633 
	C473.480011,304.132446 481.591309,300.667725 489.719055,297.242065 
	C490.969666,296.714935 492.443817,296.378113 493.454956,297.526550 
	C494.666687,298.902771 493.466858,299.936554 492.262634,301.157654 
z"/>
<path 
	d="
M473.216248,597.262695 
	C470.759583,597.310791 468.535797,598.451294 466.758636,596.531616 
	C466.624908,594.939636 467.800507,594.396729 468.824341,593.984497 
	C475.775024,591.186035 482.651703,588.234985 489.301758,584.767212 
	C490.605194,584.087463 492.223602,583.154419 493.410339,584.628052 
	C494.880768,586.453979 493.154663,587.755737 492.002350,588.800781 
	C486.777649,593.539185 480.271301,595.570312 473.216248,597.262695 
z"/>
<path 
	d="
M490.399414,561.323547 
	C493.135010,560.738159 495.941162,556.962891 497.661530,560.009277 
	C499.377289,563.047546 495.298523,564.403442 493.099274,565.851562 
	C487.908173,569.269653 482.022003,570.994141 476.009552,572.191406 
	C474.232635,572.545349 472.086334,573.246643 470.006317,570.927246 
	C476.200745,566.451416 483.735596,565.166077 490.399414,561.323547 
z"/>
<path 
	d="
M354.833862,477.005493 
	C365.227814,474.686066 375.324036,475.516876 385.363800,477.248138 
	C385.314453,479.387756 384.407959,479.903717 383.451355,480.103333 
	C374.394379,481.992981 365.379059,481.814026 356.428894,479.400421 
	C355.392181,479.120850 354.618683,478.591522 354.833862,477.005493 
z"/>
<path 
	d="
M492.465240,307.460510 
	C494.520813,306.748688 496.235168,305.951904 497.872742,307.466064 
	C496.398682,313.240387 478.280273,320.603485 469.321777,318.164001 
	C476.980927,313.182037 484.836975,310.950653 492.465240,307.460510 
z"/>
<path 
	d="
M367.138611,486.838684 
	C374.419373,487.187500 381.375122,485.980011 388.412018,488.356232 
	C383.058014,493.630798 365.223450,493.758331 358.503784,488.782349 
	C360.803162,486.001923 363.941681,487.162201 367.138611,486.838684 
z"/>
<path 
	d="
M319.335236,277.899200 
	C328.859161,274.506348 340.582367,276.781647 345.837280,282.918213 
	C343.579712,285.277954 340.848389,284.565399 338.517242,283.606415 
	C332.793823,281.252014 327.024902,280.498077 320.990021,281.919617 
	C319.797424,282.200470 318.590790,282.253693 317.904602,281.036591 
	C317.163513,279.722107 318.119934,278.880829 319.335236,277.899200 
z"/>
<path 
	d="
M455.742920,589.783447 
	C458.141235,590.028992 459.600952,590.627136 457.763702,592.841675 
	C454.243378,597.084778 435.089386,600.064880 428.562531,596.726501 
	C437.714142,593.135620 446.630859,591.816406 455.742920,589.783447 
z"/>
<path 
	d="
M420.673035,293.816711 
	C416.720795,293.798981 413.071106,294.253876 410.001831,290.945618 
	C419.859131,289.656158 429.232910,286.131042 439.360809,286.372864 
	C434.630829,292.283722 427.761383,292.760468 420.673035,293.816711 
z"/>
<path 
	d="
M481.131592,599.911072 
	C483.354950,599.330322 485.140961,597.964905 487.139435,599.333008 
	C485.174652,605.837585 469.070923,612.034973 459.879944,609.175659 
	C466.647308,604.549866 474.048035,603.021912 481.131592,599.911072 
z"/>
<path 
	d="
M485.078186,521.309509 
	C481.149384,522.022766 477.669525,524.535522 472.383118,520.903870 
	C482.120911,517.844910 489.519836,512.054749 499.303406,512.535217 
	C496.559753,518.516052 490.512360,519.065186 485.078186,521.309509 
z"/>
<path 
	d="
M314.457764,475.842377 
	C308.633881,474.455841 303.061523,473.624756 297.888519,470.413605 
	C302.786102,467.548492 323.637726,471.317810 328.580841,475.824524 
	C323.818817,478.057098 319.313751,476.222321 314.457764,475.842377 
z"/>
<path 
	d="
M339.033661,459.306122 
	C340.782776,461.230652 339.590210,462.071533 338.142487,462.165649 
	C329.679962,462.716064 321.285370,462.468353 313.325806,459.023102 
	C312.804474,458.797424 312.480438,458.115814 310.873840,456.301758 
	C321.256287,454.998932 330.015076,456.778473 339.033661,459.306122 
z"/>
<path 
	d="
M402.702698,560.596680 
	C409.076721,559.830444 415.009521,557.725525 421.255005,559.990173 
	C417.874817,565.442505 400.723663,567.435364 394.495453,563.388000 
	C396.225769,559.947998 399.589630,561.202332 402.702698,560.596680 
z"/>
<path 
	d="
M310.437012,594.875244 
	C308.225769,593.544983 305.437317,593.699951 304.229309,589.662903 
	C314.591736,589.970642 323.647949,592.941162 332.591675,596.734863 
	C325.014862,599.519226 317.943512,596.812134 310.437012,594.875244 
z"/>
<path 
	d="
M308.809753,446.504059 
	C305.243103,445.260834 301.885437,444.399384 299.231689,439.828247 
	C310.029358,440.989746 319.213348,443.294464 328.095245,447.111023 
	C321.624664,449.247803 315.406769,448.069366 308.809753,446.504059 
z"/>
<path 
	d="
M493.568115,577.723511 
	C487.111023,581.788940 480.615631,584.509155 472.606964,584.613831 
	C475.733490,579.828735 493.474731,571.501892 497.247650,572.570007 
	C497.565125,575.199402 495.481445,576.205627 493.568115,577.723511 
z"/>
<path 
	d="
M409.730591,341.033386 
	C408.334229,340.506683 406.996368,340.628021 406.425446,338.921143 
	C408.987335,336.953796 412.110138,336.948792 415.142761,336.581146 
	C419.895020,336.005096 424.628754,335.263153 429.389008,334.773224 
	C430.941986,334.613403 433.141113,334.409027 433.340393,336.662445 
	C433.531311,338.820892 431.374878,339.002106 429.829651,339.391174 
	C423.364838,341.019165 416.797729,341.580902 409.730591,341.033386 
z"/>
<path 
	d="
M377.843567,295.258850 
	C368.782074,295.001038 363.614349,293.225006 360.352295,288.710388 
	C369.537415,289.266418 377.991486,289.778198 387.205597,290.335999 
	C384.872681,295.163055 381.333344,294.692261 377.843567,295.258850 
z"/>
<path 
	d="
M478.146790,428.848022 
	C485.610687,426.230133 492.368805,422.374268 500.642212,421.701599 
	C498.421478,428.048737 483.773987,433.369720 476.071655,431.525757 
	C475.538666,429.914459 476.928802,429.628418 478.146790,428.848022 
z"/>
<path 
	d="
M432.907227,281.895111 
	C429.946838,282.700897 427.433746,283.607513 424.842316,284.010071 
	C422.578583,284.361694 419.945496,285.459351 418.125946,282.800262 
	C423.209259,276.521576 437.841431,274.865112 444.371979,279.890167 
	C440.901520,282.289215 436.840118,280.601837 432.907227,281.895111 
z"/>
<path 
	d="
M446.256348,611.940796 
	C448.599182,611.730164 450.578735,611.281006 452.349274,612.581970 
	C449.243896,617.897095 435.967621,620.913391 425.946167,618.253967 
	C432.484924,614.071228 439.341858,613.574463 446.256348,611.940796 
z"/>
<path 
	d="
M396.046509,553.590027 
	C388.326904,558.292236 380.646240,557.218872 372.526733,555.056885 
	C373.022644,553.938171 373.122284,553.215759 373.414581,553.127014 
	C380.114563,551.090332 387.005096,550.824890 393.931244,551.162292 
	C395.021454,551.215454 396.245026,551.706726 396.046509,553.590027 
z"/>
<path 
	d="
M382.783997,281.501587 
	C389.246521,279.851349 395.310699,278.407776 401.519714,281.552612 
	C398.578400,285.384735 382.297333,287.418640 377.304871,284.812592 
	C378.099426,282.289886 380.522736,282.368744 382.783997,281.501587 
z"/>
<path 
	d="
M300.998779,608.998779 
	C300.682404,611.669006 298.588989,611.297974 296.839844,611.344116 
	C289.962402,611.525513 283.914703,608.918579 278.128723,605.565125 
	C276.886658,604.845215 275.183868,603.929688 275.978088,602.166077 
	C276.885040,600.152222 278.678833,600.941895 280.296509,601.452148 
	C287.069885,603.588623 293.075104,607.771179 300.609863,608.959229 
	C301.002441,609.002441 301.000000,609.000000 300.998779,608.998779 
z"/>
<path 
	d="
M382.431641,381.331848 
	C381.114258,380.680145 380.217285,379.392426 381.565735,379.152710 
	C389.034943,377.824738 396.490173,375.566345 404.193817,377.598480 
	C405.000000,377.811127 405.712189,378.282471 406.004791,380.251404 
	C398.516693,383.655548 390.657898,382.583496 382.431641,381.331848 
z"/>
<path 
	d="
M484.170349,359.029602 
	C490.198273,356.527161 495.884705,354.184021 502.125793,351.612335 
	C501.315277,358.688812 486.405212,365.519989 480.349243,362.830444 
	C480.297455,360.467651 482.396851,360.139282 484.170349,359.029602 
z"/>
<path 
	d="
M293.035339,631.007446 
	C289.418152,628.586853 284.838318,627.693726 281.645416,624.213684 
	C284.158844,623.631714 311.652710,632.166687 315.278900,634.955017 
	C307.096802,635.737610 300.556702,632.580627 293.372009,631.033081 
	C292.982758,630.970032 293.015839,630.997864 293.035339,631.007446 
z"/>
<path 
	d="
M489.326691,464.670654 
	C485.648682,465.612854 482.380981,467.061768 478.774231,465.688751 
	C481.249146,461.231903 496.065796,455.274475 500.762543,457.032562 
	C498.489349,461.817413 493.843201,462.824310 489.326691,464.670654 
z"/>
<path 
	d="
M479.610046,453.202026 
	C484.372345,447.760162 491.173004,446.392792 497.387146,443.887817 
	C498.277588,443.528931 499.408630,443.938629 499.857147,445.051422 
	C500.297760,446.144684 499.769440,447.124390 498.968628,447.689758 
	C493.222748,451.746246 487.332245,455.429169 479.610046,453.202026 
z"/>
<path 
	d="
M316.754547,430.927185 
	C319.435272,432.155060 322.298645,432.146210 324.181488,434.315704 
	C319.201447,438.438446 304.551636,434.898956 300.914642,428.373230 
	C306.528412,427.674683 311.360596,429.975800 316.754547,430.927185 
z"/>
<path 
	d="
M309.445251,578.484497 
	C314.818085,580.255066 320.451385,580.145752 325.305756,583.682983 
	C318.284241,587.314758 305.161163,584.108093 301.167999,578.170166 
	C303.885162,575.951416 306.464142,577.992981 309.445251,578.484497 
z"/>
<path 
	d="
M310.064148,574.305969 
	C305.218414,572.792786 300.376007,572.125610 297.476013,567.416199 
	C305.645355,567.717834 313.510681,569.037109 321.634369,573.257690 
	C317.380188,576.455933 313.888641,574.826111 310.064148,574.305969 
z"/>
<path 
	d="
M496.884247,438.120667 
	C491.245789,440.692139 485.987366,443.413086 479.713196,441.321381 
	C486.285736,437.125732 493.176727,433.834503 500.948822,431.334686 
	C501.383453,435.699982 498.830688,436.478668 496.884247,438.120667 
z"/>
<path 
	d="
M458.704529,494.028320 
	C456.192810,494.119354 453.994598,494.674286 452.207306,492.938568 
	C454.857574,489.616974 469.651642,484.989960 474.591949,486.367310 
	C470.569489,491.960175 464.741028,492.764282 458.704529,494.028320 
z"/>
<path 
	d="
M443.400940,505.027832 
	C442.074890,503.330078 443.277679,502.581573 444.317657,502.262939 
	C449.556396,500.657990 454.822174,499.129700 460.124725,497.752625 
	C461.478302,497.401062 463.380981,497.053894 464.043915,498.889557 
	C464.756195,500.861816 462.826508,501.426544 461.597107,502.057922 
	C455.973511,504.946045 449.976562,505.906036 443.400940,505.027832 
z"/>
<path 
	d="
M498.482361,525.674438 
	C491.547668,530.904846 484.316681,532.890442 479.549072,530.399048 
	C484.903595,526.144897 490.896057,524.027100 496.784393,521.990906 
	C499.023407,521.216675 499.956024,523.167786 498.482361,525.674438 
z"/>
<path 
	d="
M327.362976,289.997955 
	C323.768402,288.873138 319.989319,289.176514 317.691956,285.956146 
	C321.428345,282.787231 333.542023,284.883911 339.726410,289.826080 
	C335.652100,292.604370 331.649200,289.974091 327.362976,289.997955 
z"/>
<path 
	d="
M295.634521,509.994629 
	C302.484283,510.391937 312.114197,513.177124 315.258392,515.453979 
	C315.157898,517.028809 313.919525,517.236023 312.788025,517.266174 
	C307.237854,517.414368 301.837921,516.633606 296.845490,514.062866 
	C295.334045,513.284546 293.145203,512.479492 295.634521,509.994629 
z"/>
<path 
	d="
M420.217041,484.748169 
	C414.960510,485.307495 410.089600,486.229584 405.017700,484.198761 
	C409.306824,480.016510 421.687378,478.433228 426.750305,481.140015 
	C425.571655,483.855286 422.966400,484.014343 420.217041,484.748169 
z"/>
<path 
	d="
M447.388184,581.176697 
	C454.330109,579.722839 454.330109,579.722839 456.969818,581.128540 
	C453.361603,585.752319 441.661591,588.559937 434.798004,586.013062 
	C438.381165,582.408020 443.035095,582.658752 447.388184,581.176697 
z"/>
<path 
	d="
M302.984131,324.714783 
	C310.013000,324.736359 316.410217,325.877625 322.771729,329.414764 
	C318.110352,332.051422 304.684570,330.308838 302.093170,327.213531 
	C301.291046,326.255402 301.585632,325.405457 302.984131,324.714783 
z"/>
<path 
	d="
M497.929352,537.070190 
	C492.773285,541.048645 487.658112,544.153320 481.066833,542.735962 
	C484.918213,537.578979 490.562927,535.710693 496.146057,533.938232 
	C497.829987,533.403687 498.859955,534.851440 497.929352,537.070190 
z"/>
<path 
	d="
M482.905273,247.625183 
	C485.464996,253.139984 487.822876,258.377045 490.041595,263.304993 
	C489.014038,264.848206 488.046478,264.840881 487.085510,264.371216 
	C482.306671,262.035492 478.803741,252.794693 480.776978,247.857788 
	C481.209869,246.774734 481.880554,246.834015 482.905273,247.625183 
z"/>
<path 
	d="
M373.830170,401.946686 
	C376.646393,402.275177 379.229248,402.001923 381.097778,404.045929 
	C377.901794,408.488190 366.522888,408.772736 362.023926,404.279327 
	C365.566742,401.760895 369.682159,402.674225 373.830170,401.946686 
z"/>
<path 
	d="
M474.644714,474.482941 
	C474.888275,475.348816 475.123596,476.147491 474.826385,476.581207 
	C472.008057,480.693817 461.407623,483.032532 456.933014,480.054596 
	C462.439453,476.431610 467.988159,474.185059 474.644714,474.482941 
z"/>
<path 
	d="
M445.288513,319.025269 
	C450.439423,318.199158 454.975098,314.620270 460.324738,317.242035 
	C457.834503,321.528748 446.670135,325.193268 443.525452,322.798492 
	C440.858521,320.767609 443.442993,320.004028 445.288513,319.025269 
z"/>
<path 
	d="
M491.957642,481.850708 
	C494.417358,480.954681 496.515045,479.495697 498.744385,481.448181 
	C496.411377,487.088989 486.531708,491.223663 481.229370,488.453094 
	C483.998016,484.990601 488.061493,483.870270 491.957642,481.850708 
z"/>
<path 
	d="
M492.676086,475.987244 
	C486.442322,478.272583 486.442322,478.272583 482.809692,477.678864 
	C484.271576,472.994781 494.042358,468.280731 499.555603,469.832245 
	C498.877594,473.514801 495.619751,474.330872 492.676086,475.987244 
z"/>
<path 
	d="
M416.857849,601.285156 
	C411.667603,602.604553 406.923157,603.129150 401.831635,601.053650 
	C406.361755,596.731812 415.500153,595.491699 420.567993,598.102356 
	C420.608124,600.345581 418.622559,600.432007 416.857849,601.285156 
z"/>
<path 
	d="
M460.835754,375.257965 
	C461.784668,377.213440 460.620422,377.924774 459.411652,378.554779 
	C453.786499,381.486542 447.883698,381.951691 441.590271,379.986572 
	C447.631256,377.270386 453.707306,374.807861 460.835754,375.257965 
z"/>
<path 
	d="
M500.745941,365.447540 
	C495.671112,369.715210 490.450867,372.562988 483.832794,370.895721 
	C487.899506,366.929749 492.870911,364.789124 497.985748,362.997772 
	C499.467377,362.478821 501.090179,362.800446 500.745941,365.447540 
z"/>
<path 
	d="
M469.831421,285.841492 
	C467.627197,286.044769 465.794220,286.212463 464.332977,283.541077 
	C469.822632,281.047913 474.994415,278.340637 482.131317,279.090118 
	C479.374359,284.819733 474.464203,284.695862 469.831421,285.841492 
z"/>
<path 
	d="
M360.942993,371.827393 
	C366.248260,372.034241 371.507294,370.319580 376.049133,374.013824 
	C372.618835,377.458160 362.159302,377.833160 359.450409,374.824677 
	C358.086304,373.309662 359.191315,372.508179 360.942993,371.827393 
z"/>
<path 
	d="
M376.958069,388.356415 
	C371.710602,389.090210 366.987701,389.070892 362.810364,385.850891 
	C368.373749,382.537964 373.894897,383.552765 379.340240,385.150635 
	C379.910187,387.383789 378.630585,387.835632 376.958069,388.356415 
z"/>
<path 
	d="
M316.886536,373.543274 
	C322.619995,372.548157 327.822296,373.780487 332.106842,377.101410 
	C327.843536,380.725983 323.574127,378.039856 319.541229,377.500183 
	C317.748535,377.260284 315.279846,376.831055 316.886536,373.543274 
z"/>
<path 
	d="
M403.819580,583.474365 
	C406.792572,583.015808 409.382263,582.628540 411.986359,582.436462 
	C412.934723,582.366516 414.025665,582.679077 414.309601,583.848572 
	C414.578217,584.955078 413.879578,585.644531 413.063263,586.296936 
	C410.021942,588.727539 403.863251,588.987549 400.220947,586.770874 
	C400.194122,584.605103 402.054810,584.352417 403.819580,583.474365 
z"/>
<path 
	d="
M272.106628,359.332489 
	C267.834778,358.195007 263.805267,357.351227 261.651337,353.195312 
	C266.114227,351.126770 273.403137,353.757172 276.505646,358.246094 
	C275.512268,359.796997 273.917847,359.248962 272.106628,359.332489 
z"/>
<path 
	d="
M461.982605,330.013672 
	C457.793579,332.684082 453.788422,334.183167 448.408966,331.603333 
	C452.122253,327.958862 455.931946,326.575012 460.367157,326.825867 
	C462.052063,326.921143 463.333038,327.677612 461.982605,330.013672 
z"/>
<path 
	d="
M267.716827,364.120087 
	C270.854034,365.440369 274.082489,365.964569 275.761047,369.119324 
	C270.251495,371.297272 265.170258,369.575928 262.050049,364.645752 
	C263.546173,362.289032 265.544281,363.791565 267.716827,364.120087 
z"/>
<path 
	d="
M268.917480,381.221436 
	C266.080017,380.009644 263.114929,379.562317 261.969910,376.536285 
	C265.534363,373.962128 271.610504,375.791901 275.159607,380.437164 
	C273.503815,382.783478 271.289795,381.335480 268.917480,381.221436 
z"/>
<path 
	d="
M467.310211,274.574585 
	C469.290070,274.552917 471.045715,274.163605 472.099762,276.742584 
	C468.277557,279.722412 464.167511,279.774475 459.247406,278.710541 
	C460.986725,274.604095 464.239685,275.177185 467.310211,274.574585 
z"/>
<path 
	d="
M267.958160,396.776672 
	C270.152283,397.855621 272.451538,398.277893 273.140167,401.058167 
	C269.354797,403.707092 266.355408,401.466644 263.394775,399.484497 
	C262.521027,398.899506 262.174927,397.776550 262.981293,396.878632 
	C264.388977,395.311005 266.038177,396.256042 267.958160,396.776672 
z"/>
<path 
	d="
M265.986359,385.336365 
	C269.417908,385.897064 271.805389,387.334351 273.425201,390.478851 
	C269.464447,392.339630 266.540009,390.625763 264.107697,388.510468 
	C262.070953,386.739288 263.666321,385.708771 265.986359,385.336365 
z"/>
<path 
	d="
M269.151031,429.563599 
	C271.462494,432.367401 271.009033,433.811066 267.566620,433.342743 
	C265.471558,433.057709 263.430695,432.273834 262.523834,429.653992 
	C264.510742,426.964539 266.703705,428.292328 269.151031,429.563599 
z"/>
<path 
	d="
M263.716980,440.950409 
	C264.579468,439.775238 265.567627,439.711945 266.534424,439.981628 
	C267.982025,440.385406 269.391418,441.015930 269.671509,442.694183 
	C269.752014,443.176453 269.296967,444.009033 268.848511,444.269562 
	C267.522583,445.039795 266.343445,444.282684 265.219177,443.575012 
	C264.360748,443.034729 263.649536,442.388000 263.716980,440.950409 
z"/>
<path 
	d="
M393.954346,290.228027 
	C391.972412,290.872559 390.304108,291.885193 388.547852,289.932404 
	C389.804749,287.964874 391.744141,287.020111 393.797546,287.160675 
	C396.778656,287.364777 395.998535,288.766296 393.954346,290.228027 
z"/>
<path 
	d="
M322.023621,201.336578 
	C305.401520,200.593246 289.364685,199.014984 274.380524,191.083527 
	C276.325958,188.094437 278.013367,189.080688 279.473907,189.533279 
	C292.960999,193.712830 306.756561,196.498901 320.663605,198.805710 
	C323.396545,199.259064 323.386810,199.317749 322.023621,201.336578 
z"/>
<path 
	d="
M412.003662,127.891403 
	C429.579773,129.086594 446.643677,130.563568 463.133240,135.706116 
	C465.821136,136.544373 468.550751,137.454987 471.002350,138.802826 
	C476.534027,141.844009 476.688232,146.393692 471.562683,150.139679 
	C468.831238,152.135925 465.643799,153.197311 462.465302,154.159622 
	C448.543854,158.374435 434.182129,160.229492 419.760101,161.262802 
	C395.995270,162.965546 372.170380,163.070145 348.417267,161.248398 
	C332.205841,160.005066 315.971527,158.326248 300.357391,153.236893 
	C299.408447,152.927567 298.450684,152.627136 297.537445,152.229691 
	C293.961609,150.673508 290.044189,148.945419 289.962128,144.516724 
	C289.881256,140.153458 293.906860,138.679596 297.271545,137.291336 
	C308.161652,132.798065 319.731659,131.276215 331.307892,129.945496 
	C352.497009,127.509766 373.753784,126.235031 395.091797,126.899544 
	C400.577179,127.070381 406.053253,127.539436 412.003662,127.891403 
M326.917328,152.521820 
	C335.530212,153.341415 344.128601,154.386826 352.758545,154.940567 
	C385.757812,157.058044 418.672791,156.716827 451.315277,150.652512 
	C456.090454,149.765366 460.986877,148.934875 465.429504,146.157013 
	C448.485260,131.322556 318.339081,131.135574 300.524597,145.991913 
	C308.798065,149.979187 317.495514,150.894974 326.917328,152.521820 
z"/>
<path 
	d="
M282.686920,150.428253 
	C280.176117,148.284515 278.192719,146.264114 279.420410,142.950546 
	C280.454285,140.160141 282.907349,138.711929 287.718994,138.191406 
	C287.768738,141.583084 282.178253,142.049011 283.653992,145.880615 
	C284.836945,148.951996 288.883423,149.163651 290.564301,152.344254 
	C287.254333,153.813492 285.242065,151.703156 282.686920,150.428253 
z"/>
<path 
	d="
M303.261658,234.607147 
	C307.995667,235.652512 312.315369,236.648865 317.132507,237.759979 
	C309.669556,242.528702 277.975891,234.064270 272.080719,225.183746 
	C282.946838,229.163452 292.735321,232.463089 303.261658,234.607147 
z"/>
<path 
	d="
M468.192627,237.407700 
	C461.968628,238.792709 456.214020,240.694641 450.195282,240.123276 
	C450.070557,239.528900 449.945831,238.934525 449.821106,238.340149 
	C462.206940,235.022202 474.592773,231.704254 486.978638,228.386307 
	C487.166626,228.841843 487.354645,229.297363 487.542664,229.752899 
	C482.021088,233.997833 475.071167,235.151031 468.192627,237.407700 
z"/>
<path 
	d="
M312.469299,147.353943 
	C311.155548,145.165237 311.176849,145.000366 314.002228,143.920456 
	C320.884583,141.289825 328.129089,140.124283 335.359741,139.077820 
	C346.250061,137.501663 357.231750,137.375198 368.214783,137.744965 
	C369.806458,137.798553 371.580170,137.535446 373.681671,140.191223 
	C352.870453,142.574219 332.591431,143.195358 312.469299,147.353943 
z"/>
<path 
	d="
M434.216705,143.958954 
	C426.319855,142.097916 418.337006,143.311020 410.546143,140.268799 
	C418.289551,136.056580 447.947906,140.461868 454.239807,147.154266 
	C447.050781,146.018921 440.847870,145.039307 434.216705,143.958954 
z"/>
</svg>