<svg xmlns="http://www.w3.org/2000/svg" width="100%" height="100%" preserveAspectRatio="xMidYMid meet" viewBox="0 0 752 768" fill="currentColor">
<path 
	d="
M245.786713,394.154663 
	C249.922852,373.011780 258.441620,354.459869 272.935150,338.933929 
	C279.419342,331.987823 286.403320,325.540802 294.411774,320.318817 
	C296.102325,319.216461 297.639465,318.000580 298.735382,316.249237 
	C314.373108,291.259949 327.721039,265.286011 333.217865,235.948395 
	C335.881195,221.733475 336.561340,207.213806 339.720764,193.075302 
	C340.989868,187.395935 342.193146,181.687027 343.816254,176.104904 
	C346.517761,166.813950 352.299133,159.628052 359.867126,154.231476 
	C360.260284,152.750748 359.657318,151.937668 359.027161,151.158981 
	C352.767151,143.423309 350.266937,134.590500 350.568726,124.664726 
	C351.006683,110.260902 357.886932,105.729782 370.931763,111.942719 
	C371.611725,110.685875 372.270050,109.394707 372.994751,108.141953 
	C376.858795,101.462418 383.452148,100.839165 388.452637,106.801575 
	C391.496674,110.431183 392.997375,114.889389 394.564453,119.288551 
	C395.102020,120.797646 395.442657,122.302841 397.613861,122.745979 
	C405.625854,124.381264 408.092041,127.388588 408.282074,135.547531 
	C408.378937,139.707550 408.302307,143.883804 408.032104,148.035034 
	C407.897064,150.110031 408.173828,151.544571 410.265015,152.421066 
	C424.595734,158.427856 430.042877,170.676010 433.333344,184.708694 
	C437.253601,201.427185 437.986084,218.617676 441.329620,235.405502 
	C443.806824,247.843506 447.730957,259.855469 452.318970,271.658783 
	C452.732330,272.722168 453.108612,273.858459 454.553925,274.636536 
	C456.363739,271.838806 456.760620,268.540894 457.699982,265.492371 
	C462.174530,250.970642 468.803802,237.675751 479.409180,226.593430 
	C481.488342,224.420746 483.718842,222.424500 486.543213,221.210846 
	C492.677704,218.574768 496.825073,220.602692 498.738220,226.994324 
	C499.660736,230.076401 498.943604,233.265549 499.559570,236.463318 
	C501.928314,236.229935 502.911102,234.213684 504.538635,233.196182 
	C509.566620,230.052872 514.520752,231.729111 516.406738,237.395508 
	C518.885986,244.844009 518.468567,252.509003 517.929932,260.166443 
	C517.812683,261.832916 517.252258,263.649750 519.575317,264.216461 
	C527.713867,266.201813 528.618164,273.079895 529.104980,279.471863 
	C530.083374,292.318481 529.051636,305.088348 525.207581,317.504944 
	C524.624146,319.389587 523.672058,321.231659 525.044128,323.217804 
	C529.459656,329.609497 528.579041,336.503265 526.770874,343.418335 
	C525.335693,348.907166 523.525513,354.303375 520.787842,359.276306 
	C519.254761,362.061218 519.210815,364.535126 520.510742,367.309906 
	C528.385254,384.118652 531.138306,401.863464 530.276917,420.306244 
	C529.100220,445.499420 519.712585,467.201050 502.290710,485.282532 
	C498.891998,488.809937 499.000946,492.843201 498.477661,496.742493 
	C496.158447,514.025208 490.074951,529.568237 478.528931,542.796875 
	C474.547852,547.358154 472.087830,552.896973 468.750732,557.870728 
	C467.915436,559.115662 467.292725,560.720337 466.129456,561.492554 
	C458.889740,566.298279 458.657684,573.445679 459.338715,580.933960 
	C460.166382,590.034668 460.640228,599.157410 462.088104,608.214111 
	C463.513031,617.127075 468.550293,622.649841 476.774841,625.441772 
	C483.231079,627.633423 489.850067,629.340576 496.350891,631.407166 
	C503.774750,633.767273 508.923737,638.745483 512.076843,645.793213 
	C512.803101,647.416565 513.769348,649.226196 512.290283,650.956055 
	C510.760895,652.744873 508.970734,652.046753 507.286133,651.203247 
	C505.435699,650.276733 503.416290,649.920349 501.456909,650.036743 
	C492.822266,650.549377 484.809937,647.651855 475.734680,645.113159 
	C478.605347,650.062683 480.408936,654.397644 480.981781,659.193848 
	C481.414795,662.818909 480.791473,666.206360 479.220123,669.370911 
	C477.433136,672.969727 474.920197,673.175659 472.240234,670.228027 
	C465.336639,662.634827 456.547089,656.772034 451.549377,647.414734 
	C450.126160,644.750122 447.825623,644.769531 445.733490,646.751099 
	C439.984131,652.196594 433.140381,655.927368 426.320160,659.802307 
	C420.420319,663.154358 420.602570,663.475159 416.923706,657.512207 
	C397.128998,670.904724 377.229858,671.018311 357.722809,657.268738 
	C356.319489,657.444214 356.458099,658.392395 356.268433,659.157288 
	C355.344696,662.882324 353.805420,663.593567 350.290527,661.265808 
	C342.160797,655.881714 333.143646,651.844360 326.596771,644.670044 
	C323.825684,646.097900 322.817688,648.081421 321.662415,649.852844 
	C317.706573,655.918335 312.983856,661.240112 307.041565,665.419312 
	C305.228149,666.694641 303.976166,668.443115 302.646118,670.156433 
	C300.031281,673.524719 297.477661,673.276001 295.627808,669.223389 
	C292.570099,662.524719 293.390472,655.920166 296.775421,649.540161 
	C297.388428,648.384766 298.138458,647.302002 298.842041,646.158386 
	C297.176239,644.661194 295.812378,645.983948 294.590759,646.376282 
	C287.404266,648.684448 280.108948,650.190613 272.527344,650.125854 
	C270.683563,650.110046 268.893066,650.395325 267.191132,651.216736 
	C265.839142,651.869324 264.368256,652.541504 263.021942,651.235291 
	C261.608459,649.863892 261.869629,648.226135 262.524017,646.595825 
	C265.339233,639.582092 270.168335,634.482971 277.288391,631.900635 
	C281.971069,630.202209 286.804016,628.882385 291.628418,627.617310 
	C307.571503,623.436646 312.339478,617.649780 313.807404,601.186646 
	C314.620270,592.069885 315.651672,582.985718 315.719452,573.810608 
	C315.745819,570.243958 315.004608,567.449036 312.161224,565.016174 
	C308.862549,562.193726 306.267578,558.621155 304.296997,554.752563 
	C301.854553,549.957703 298.874725,545.536743 295.363281,541.533997 
	C282.831024,527.248108 277.850952,510.036743 275.755127,491.689728 
	C275.519897,489.630585 275.125580,487.973206 273.565308,486.386139 
	C258.319061,470.878052 248.486984,452.709473 245.540512,430.858795 
	C243.899139,418.686432 243.876068,406.668976 245.786713,394.154663 
M278.675842,407.365387 
	C281.293152,393.587006 284.894989,380.099640 290.928467,367.380951 
	C292.035950,365.046417 292.607635,361.966034 296.088165,361.209290 
	C297.776276,364.303528 296.316010,366.977570 295.640167,369.542084 
	C292.671143,380.808136 289.814911,392.092102 287.809723,403.579926 
	C284.544006,422.289398 283.421478,440.899078 289.494843,459.348267 
	C292.999817,469.995331 298.160675,479.894745 302.793274,490.037598 
	C303.728241,492.084625 305.163116,494.051422 303.982819,498.082825 
	C294.820984,489.862366 289.521606,480.052185 284.083252,468.655975 
	C284.152008,479.497528 284.512634,488.832245 285.666321,498.233063 
	C288.339508,520.014893 303.174042,535.139221 314.239807,552.349915 
	C314.372101,552.555725 314.821594,552.557495 315.194153,552.677368 
	C316.402252,550.619629 313.378204,548.215698 315.919189,546.042114 
	C321.122406,548.262939 321.753021,554.585266 326.037109,557.853760 
	C327.960175,555.680603 326.479889,552.043823 329.257202,550.449402 
	C331.604095,552.068237 330.630005,554.888000 332.141602,557.141968 
	C338.578979,548.422363 333.957458,538.206238 336.859558,529.366760 
	C329.004303,522.318420 319.741241,516.690002 315.994141,505.434906 
	C320.969879,505.917084 320.913940,505.984497 325.611389,509.882812 
	C351.879761,531.682251 381.445923,538.420898 414.385345,528.914368 
	C428.217468,524.922363 440.141022,517.371277 451.057800,508.114166 
	C452.935974,506.521515 454.665680,503.985657 457.869843,505.634888 
	C458.185577,508.497681 456.739471,510.605652 455.370056,512.632324 
	C452.066010,517.522156 447.619507,521.300781 442.979462,524.865173 
	C441.133179,526.283447 438.969849,527.584351 438.698944,530.147766 
	C437.718445,539.425232 437.862793,548.580750 442.178406,557.675476 
	C443.518616,554.772217 442.681824,551.603333 445.005310,549.636108 
	C448.299469,551.615906 446.216431,555.578979 448.706757,557.885254 
	C452.504517,554.500671 453.549744,548.826294 458.075684,546.189392 
	C460.734192,548.803650 457.590454,551.261597 459.223145,554.622314 
	C466.897644,540.474182 478.979248,530.002991 484.412231,515.270813 
	C489.793304,500.679413 491.355377,485.447052 490.436951,468.863464 
	C485.093903,479.896759 480.116882,489.829773 471.019196,497.176819 
	C469.083984,494.275269 470.598267,492.539337 471.358765,490.826111 
	C474.938385,482.762054 478.943848,474.873718 482.222656,466.692383 
	C488.312592,451.496796 490.976044,435.850891 488.981812,419.311920 
	C486.880432,401.884216 482.703430,384.971954 478.365417,368.052002 
	C477.811523,365.891571 476.887054,363.686096 478.302887,361.437347 
	C488.218445,366.759460 498.472382,409.966370 500.497711,454.912048 
	C502.936768,445.711395 502.410492,437.284271 503.572998,429.024506 
	C507.392426,434.039062 506.101898,439.736542 506.321259,445.175720 
	C506.548004,450.796692 505.757050,456.349182 504.618011,461.862671 
	C513.036316,443.026581 508.712097,424.200897 504.589355,405.226196 
	C511.116486,410.226959 512.247009,417.723602 513.865356,424.714722 
	C515.562683,432.046936 516.084656,439.632141 515.852966,447.204498 
	C524.284668,426.467194 513.491638,408.405853 507.364288,389.583618 
	C515.117981,392.540710 516.579529,400.164581 520.861572,406.428711 
	C520.757446,404.104370 520.730469,402.606415 520.609436,401.116089 
	C520.528870,400.123657 520.313232,399.142334 520.159668,398.155762 
	C515.762634,369.906250 501.335297,347.727417 479.262054,330.047699 
	C475.283356,326.860931 471.230438,325.693878 466.400208,326.712738 
	C465.728363,328.588776 466.768280,330.039978 467.238586,331.594421 
	C468.154175,334.620483 469.135284,337.633362 469.282227,340.828644 
	C469.633606,348.469147 466.477264,350.669037 459.587524,347.560364 
	C457.535645,346.634521 455.523315,345.620972 453.236420,344.524689 
	C453.236420,347.725494 453.393280,350.388336 453.192383,353.023865 
	C452.990936,355.666321 452.640442,358.334259 451.990723,360.898651 
	C450.219788,367.888611 445.565369,369.435516 439.730347,365.214569 
	C436.530914,362.900116 434.102509,359.756409 430.915161,356.658722 
	C430.311584,360.396759 430.016205,363.513367 429.266846,366.516724 
	C428.464325,369.733246 427.552734,372.995758 426.128021,375.969513 
	C422.598297,383.336853 417.845154,384.096497 412.169769,378.265686 
	C409.696045,375.724182 407.621826,372.793854 405.085999,369.698090 
	C402.853027,374.823822 401.390533,379.651489 398.533813,383.758362 
	C389.771637,396.354919 385.147217,397.588531 375.672028,383.394348 
	C372.808868,379.105225 371.426849,374.080688 369.278992,369.089630 
	C366.909943,372.274170 365.006561,375.394104 362.561859,378.007629 
	C356.607819,384.372864 351.823151,383.469055 347.972351,375.659180 
	C345.244110,370.126007 344.476410,364.049652 343.113892,357.515411 
	C340.083038,360.326935 337.851776,363.010834 334.988007,365.027222 
	C328.700592,369.454315 325.146667,368.376923 322.660278,361.075592 
	C320.917358,355.957458 321.279694,350.643250 321.469635,345.294373 
	C318.846405,345.123932 317.155457,346.697571 315.210968,347.483246 
	C307.723694,350.508667 305.490326,348.910614 305.566132,340.924225 
	C305.615234,335.754364 308.288574,331.226715 309.023254,326.417694 
	C302.524231,326.026398 297.347778,328.129822 292.775757,332.193665 
	C287.292145,337.067749 281.874023,341.956116 277.144012,347.614136 
	C263.160828,364.340576 255.931961,383.756958 253.269028,406.210480 
	C257.705566,400.052155 259.496307,393.102356 265.678619,389.508606 
	C267.799164,391.798370 266.167267,393.343597 265.612640,394.939331 
	C262.664886,403.420502 258.766205,411.553101 256.809387,420.402435 
	C254.885513,429.102753 254.545959,437.581329 258.484802,446.552399 
	C258.960236,431.604889 260.341003,417.655762 269.412018,405.541687 
	C265.272064,424.956787 261.826935,444.223114 270.010040,463.283142 
	C266.588593,441.495880 266.660950,433.419434 270.860229,428.941010 
	C272.112549,437.838837 271.649048,446.665558 274.175598,455.086060 
	C273.659210,439.256134 275.951355,423.724487 278.675842,407.365387 
M347.466980,233.164856 
	C346.082306,232.067917 345.565765,230.056274 343.289490,229.289703 
	C341.046692,244.623978 337.069336,259.305145 331.509064,273.611511 
	C325.935974,287.950928 317.982697,301.069733 310.205078,315.253235 
	C317.152130,312.635803 320.831329,307.022705 327.040192,304.776733 
	C325.137085,316.666321 315.967468,325.703552 314.398315,338.156952 
	C321.397888,335.187653 325.071228,328.731934 331.506134,325.699768 
	C330.700714,336.433533 327.670776,346.718719 330.010864,357.891174 
	C339.612640,352.326904 341.763794,341.336029 349.951752,334.943390 
	C352.396271,347.508972 349.325897,360.818146 355.917236,373.102264 
	C364.757172,365.642059 365.618561,354.517975 371.052460,345.687286 
	C373.848816,347.971069 373.881012,350.710846 374.261108,353.234039 
	C375.560425,361.859100 377.969818,370.121765 382.082031,377.839600 
	C383.388672,380.291870 384.646545,382.848053 387.796753,384.190674 
	C396.973419,372.975250 398.742157,358.968750 402.742310,345.683777 
	C409.215698,354.171722 409.046173,366.024811 418.584686,372.856110 
	C424.914246,360.463440 421.206757,347.185669 424.114746,333.919067 
	C432.069427,341.246704 434.905945,351.855743 443.989319,357.887939 
	C446.767548,346.493866 442.621124,336.041626 442.409637,324.544647 
	C449.425629,328.748779 452.912842,335.658081 460.196228,338.188568 
	C458.832336,325.605621 449.790741,316.492249 447.282501,304.712494 
	C453.739746,307.029724 457.454742,313.238922 464.595886,315.164490 
	C456.375885,301.179688 448.797821,287.686249 443.113190,273.232758 
	C437.432373,258.789001 433.675476,243.798386 430.905640,227.680389 
	C427.355316,232.615082 424.479309,236.812607 419.188324,238.022522 
	C417.612579,238.382858 415.702209,238.820190 414.776367,236.873062 
	C413.948975,235.133026 415.250793,234.009201 416.544067,233.216904 
	C421.934113,229.914841 424.192352,224.618027 425.793793,218.904007 
	C430.443054,202.315399 425.224457,186.905014 419.304382,171.897232 
	C416.983521,166.013702 411.655396,161.656799 404.712097,159.466721 
	C402.363068,168.055466 399.017303,175.663376 394.923401,182.912872 
	C393.109070,186.125641 391.820343,191.197357 387.446136,190.600739 
	C382.986328,189.992416 382.594086,184.877411 381.632233,181.035614 
	C380.095490,174.897766 378.743317,168.701675 375.319275,163.228806 
	C372.985870,159.499115 370.152649,158.474884 366.111908,160.857010 
	C358.952667,165.077606 354.530762,171.349442 352.346863,179.145996 
	C350.419952,186.025223 348.683990,192.994415 347.468109,200.028381 
	C345.224701,213.006073 347.010620,224.893204 358.279236,233.631836 
	C359.325989,234.443542 360.510864,235.366089 359.643433,236.930954 
	C358.880341,238.307632 357.452515,238.397247 356.112793,238.167908 
	C352.895660,237.617172 350.173340,236.083084 347.466980,233.164856 
M387.502991,657.899414 
	C404.098938,657.325745 417.321625,647.534485 423.108185,631.953552 
	C427.503357,620.119019 427.369324,608.190491 424.708923,596.107666 
	C421.395905,581.060974 415.677002,567.137146 404.572052,556.082764 
	C393.119232,544.682129 382.631836,544.315857 370.932098,555.326660 
	C353.662842,571.579041 341.641724,607.871887 351.926392,632.818237 
	C358.329742,648.350220 369.779114,656.784302 387.502991,657.899414 
M478.213470,291.007874 
	C479.216614,284.257629 480.663269,277.613922 482.525330,271.038513 
	C484.925293,262.563599 488.298615,254.300690 489.183990,245.477570 
	C489.690796,240.427139 491.898682,235.213165 489.209106,230.059143 
	C486.718811,230.664841 485.604858,232.414749 484.337067,233.901321 
	C471.396179,249.075317 465.312836,267.270264 461.388855,286.384460 
	C460.632111,290.070679 462.264832,293.012085 465.109589,295.995087 
	C467.767303,279.761444 470.671814,264.171844 479.086182,249.370193 
	C480.766785,252.472549 479.675201,254.220520 479.157867,255.861847 
	C474.898865,269.374725 471.868561,283.156311 469.623810,297.134613 
	C468.510193,304.069183 473.790680,315.785065 479.675964,319.650970 
	C486.927490,324.414368 493.643677,329.868134 499.509247,336.317047 
	C501.153595,338.124969 502.534698,340.276489 505.504364,341.418365 
	C515.638550,320.394714 523.669617,299.146332 519.167358,274.722229 
	C515.817444,276.259491 514.972107,278.790558 514.175293,281.292572 
	C511.851105,288.590759 509.589539,295.914093 506.370911,302.881775 
	C504.417450,307.110626 502.371887,311.303864 500.174957,315.410004 
	C499.275085,317.091888 498.140839,319.608765 495.841736,318.750458 
	C493.117523,317.733429 494.488068,315.010406 494.835297,313.023590 
	C495.146576,311.242462 495.860321,309.509827 496.555084,307.821045 
	C501.254120,296.399139 505.004333,284.687195 507.241638,272.528839 
	C509.074127,262.570343 509.417755,252.553879 508.477417,241.369263 
	C499.750488,250.149017 494.211945,259.414886 491.219482,270.197083 
	C488.816254,278.856201 486.586853,287.566162 483.422668,295.993713 
	C482.554749,298.305237 481.764282,300.754456 478.397247,300.342529 
	C477.152039,297.459717 477.758698,294.658691 478.213470,291.007874 
M397.913666,153.485199 
	C399.783569,146.806061 400.584778,140.111267 398.734833,132.575043 
	C396.232819,134.660675 396.171387,136.994751 395.229675,138.848175 
	C394.560913,140.164398 394.125214,141.964691 392.269897,141.736450 
	C390.240631,141.486786 389.998016,139.652969 389.726410,137.941498 
	C389.075165,133.838440 388.546356,129.697525 387.565308,125.669998 
	C386.411316,120.932533 385.188721,116.114700 381.400452,112.443817 
	C378.891449,114.341545 378.561584,116.624840 378.329132,118.942993 
	C377.947662,122.746803 377.641602,126.559372 377.184265,130.353851 
	C376.959747,132.216248 376.404572,134.051041 374.101959,134.319580 
	C371.973755,134.567795 371.241516,132.948395 370.610962,131.379044 
	C370.116119,130.147446 369.900269,128.796021 369.344391,127.598099 
	C367.557373,123.747025 366.067474,119.624641 361.767426,117.636009 
	C355.910034,127.039131 361.154480,144.440247 371.469421,149.321365 
	C377.774536,152.305008 381.941406,156.859695 384.279114,163.232239 
	C385.905090,167.664536 387.304321,172.179993 389.016724,177.290665 
	C392.836853,169.425079 395.779938,162.044388 397.913666,153.485199 
M465.626251,652.857849 
	C467.532928,655.076721 469.439606,657.295532 471.346283,659.514404 
	C471.799591,659.131897 472.252899,658.749390 472.706207,658.366821 
	C470.670105,648.331299 460.610138,641.932617 459.201782,630.139404 
	C472.321747,636.620422 485.091217,640.671143 498.659241,641.668762 
	C492.497711,637.151428 485.075012,636.390442 478.111420,634.371460 
	C465.106995,630.600891 455.518250,623.666931 453.802429,609.201721 
	C452.862213,601.274963 451.765259,593.360718 451.551941,585.348206 
	C451.425598,580.602783 450.704468,575.873169 450.262756,571.261047 
	C448.107880,570.761169 446.515137,570.728271 444.853180,571.993164 
	C445.851562,580.461243 446.890198,589.009216 447.861511,597.564880 
	C449.759033,614.278381 448.612976,629.989136 433.697052,641.309937 
	C431.345337,643.094849 429.834991,645.701782 428.310883,649.087585 
	C435.241394,646.720032 439.262299,641.614075 444.255463,637.911926 
	C449.183594,634.257996 451.225586,634.412537 455.081787,639.276978 
	C458.496674,643.584717 461.792542,647.986755 465.626251,652.857849 
M342.655273,647.608276 
	C343.816284,648.003113 344.590973,649.527466 346.351929,648.786987 
	C344.712219,645.379395 342.575562,642.402161 339.772247,640.065552 
	C330.231689,632.113464 326.246857,621.956848 326.617493,609.647522 
	C326.933502,599.153259 327.857239,588.746765 329.475433,578.389648 
	C330.474823,571.993347 329.750519,570.865723 324.458832,571.378967 
	C324.347504,573.127441 324.279053,574.933289 324.110626,576.729797 
	C323.009888,588.469849 322.857666,600.299927 320.467804,611.917664 
	C318.366913,622.130493 312.473694,628.995361 302.669373,632.271606 
	C295.898193,634.534302 288.955322,636.281433 282.097778,638.288391 
	C280.273804,638.822144 278.219238,639.064941 277.011383,641.782532 
	C284.092255,642.159546 290.023163,639.429749 296.199066,637.915894 
	C302.608276,636.344910 308.651855,633.871094 315.759979,629.815735 
	C314.191650,641.728760 304.420044,648.299927 302.730011,658.351685 
	C304.621735,657.428772 306.148438,656.362488 307.269714,654.969727 
	C311.443268,649.785522 315.450439,644.467712 319.583801,639.250549 
	C323.383820,634.454224 325.574615,634.111633 330.454224,637.805725 
	C334.433472,640.818176 338.222626,644.081787 342.655273,647.608276 
M414.879120,553.650696 
	C431.705811,574.979553 438.003113,599.355103 435.282623,627.111145 
	C438.862946,623.369690 439.459381,619.624023 439.698456,615.842102 
	C440.521393,602.825623 438.584076,589.984680 436.926147,577.143311 
	C436.488098,573.750488 437.039337,569.413330 434.231049,567.286987 
	C425.524780,560.694763 420.186768,551.900452 415.990387,542.161560 
	C415.290894,540.538208 414.335144,539.079590 412.274353,539.675171 
	C409.305023,540.533264 406.031769,540.428650 403.060211,542.416382 
	C406.831207,546.223755 411.225494,549.048584 414.879120,553.650696 
M335.193085,606.584961 
	C334.874390,619.255737 335.722778,623.131958 339.384521,626.112793 
	C336.401917,593.053162 345.943481,564.693848 371.641846,542.165466 
	C369.752716,541.641541 368.179138,541.193054 366.599030,540.768982 
	C359.965302,538.988403 359.815033,538.932373 357.251434,545.458008 
	C354.117493,553.435425 348.931976,559.812622 342.446442,565.197327 
	C340.530762,566.787781 339.490723,568.542725 338.991119,570.972107 
	C336.638855,582.410278 336.103516,594.032410 335.193085,606.584961 
M518.815186,337.714508 
	C518.774475,336.303497 519.666931,334.914185 518.649658,332.741119 
	C516.276367,336.598602 514.397583,340.233887 511.967072,343.452362 
	C509.062805,347.298187 509.557922,350.175568 513.589600,352.925354 
	C516.212830,348.314575 517.677551,343.467133 518.815186,337.714508 
z"/>
<path 
	d="
M415.152832,451.702667 
	C415.943665,449.557404 415.373596,447.263336 417.479950,446.028931 
	C419.374695,447.998871 418.859009,450.790253 420.119171,453.448303 
	C429.855438,447.255951 432.452759,436.718445 436.875275,427.249939 
	C442.459045,431.003571 440.233765,437.068390 443.830658,441.250916 
	C452.711426,433.621979 453.920776,422.348816 457.650482,411.931488 
	C460.035156,413.510895 460.239288,415.237183 460.243195,417.055267 
	C460.266144,427.805389 456.999603,437.396484 449.800171,445.438110 
	C444.432281,451.433929 441.791595,451.258423 436.734436,444.801453 
	C434.630737,447.622986 432.657135,450.438354 430.504913,453.109863 
	C428.292084,455.856567 425.633545,458.121399 422.377014,459.597473 
	C416.902649,462.078735 414.530396,460.531738 414.705475,454.567108 
	C414.729706,453.741302 414.918304,452.920319 415.152832,451.702667 
z"/>
<path 
	d="
M358.370636,459.933838 
	C353.566925,461.896667 350.459076,459.090454 347.293518,456.756500 
	C343.097229,453.662628 340.681213,449.008270 337.789825,444.652985 
	C332.283142,451.326324 329.965942,451.420563 324.207642,445.118866 
	C317.003571,437.234955 314.210815,427.623718 313.865570,417.165527 
	C313.810394,415.494659 314.077545,413.846283 316.354553,411.984680 
	C320.227356,422.265930 321.916168,433.379852 330.075012,441.610992 
	C333.866821,437.679138 331.769531,431.402313 337.169952,427.507935 
	C341.978180,436.646759 344.157776,447.343414 353.586609,453.386139 
	C355.603210,451.089722 354.660492,447.785461 357.065338,444.899597 
	C359.055939,450.095703 360.116180,454.687286 358.370636,459.933838 
z"/>
<path 
	d="
M458.600647,398.364105 
	C454.014099,405.037537 453.105042,405.247375 446.429199,401.374847 
	C444.623169,404.262543 444.572052,407.709015 443.425354,410.795563 
	C442.080811,414.414703 440.460846,417.880493 437.828796,420.722382 
	C436.105835,422.582764 433.952576,424.173828 431.232971,423.355682 
	C428.557892,422.550964 428.341125,420.034302 427.957794,417.199127 
	C433.310608,418.447510 434.772400,414.491730 436.327362,410.958588 
	C439.236877,404.347748 440.508606,397.344513 440.881744,390.141693 
	C441.024353,387.388306 441.552856,384.654846 442.022125,381.005676 
	C446.985535,384.942108 447.714172,390.852112 451.929077,394.483215 
	C455.860107,390.948181 455.844055,386.115662 456.610474,381.703369 
	C457.390625,377.212097 457.648712,372.630127 458.171143,367.754120 
	C463.925446,372.887909 463.996063,386.263977 458.600647,398.364105 
z"/>
<path 
	d="
M343.358521,423.144775 
	C338.391388,423.944580 335.976868,420.856262 333.922974,417.576599 
	C330.695953,412.423676 329.356323,406.563751 328.336273,400.216156 
	C325.679657,401.344238 324.458527,405.141571 321.108032,403.871887 
	C317.328094,402.439514 315.784882,399.026886 314.325226,395.640106 
	C311.188751,388.362732 311.034760,380.761719 312.173370,373.086456 
	C312.431030,371.349426 312.900269,369.480896 315.316010,367.863464 
	C317.728729,377.040039 316.601532,386.841248 321.980408,395.297638 
	C326.305664,391.193573 327.247833,385.265778 331.501953,381.686615 
	C334.083649,383.616913 333.157867,386.157166 333.198456,388.319366 
	C333.350250,396.407318 334.898041,404.183289 338.041199,411.618530 
	C339.404175,414.842621 340.894653,418.126740 345.348785,417.343109 
	C346.020660,419.865326 345.342896,421.590149 343.358521,423.144775 
z"/>
<path 
	d="
M453.405945,475.499512 
	C449.748962,478.792419 446.226929,480.552826 442.089874,476.462891 
	C436.316772,482.808533 432.218597,491.269470 421.749207,490.792145 
	C431.495392,482.481201 437.363953,471.331207 443.890106,461.006073 
	C448.577942,462.363953 446.100708,467.242371 449.706726,469.212830 
	C457.037994,463.301514 458.112274,453.364014 463.725159,446.200134 
	C464.995056,457.522919 461.245880,467.037781 453.405945,475.499512 
z"/>
<path 
	d="
M329.735321,461.339111 
	C332.078979,462.571808 332.880585,464.647888 333.895203,466.534149 
	C337.955048,474.081635 343.150085,480.759613 349.204559,486.797485 
	C350.456848,488.046356 351.978973,489.117828 352.599915,490.973969 
	C347.701080,492.175323 347.701080,492.175323 331.719116,475.772858 
	C328.823700,481.064423 325.372375,479.070618 321.884766,476.422058 
	C314.175873,470.567780 308.174225,454.724426 310.701935,445.031891 
	C316.112427,453.528229 317.390442,463.722900 325.172089,469.997955 
	C327.979340,467.561401 325.746674,463.010254 329.735321,461.339111 
z"/>
<path 
	d="
M414.352600,415.242340 
	C416.062408,411.948242 416.911926,408.739075 417.959717,405.584137 
	C418.959717,402.572968 418.277405,398.903229 421.175446,396.332916 
	C423.949524,397.596436 423.268585,399.956360 423.328094,401.960907 
	C423.613129,411.560181 420.567322,419.987976 413.913025,426.907379 
	C410.320374,430.643188 406.556183,430.093231 404.287903,425.479401 
	C401.555573,419.921753 400.604309,414.053284 402.903717,407.202301 
	C406.885651,411.483765 406.056122,417.049530 409.433868,420.898895 
	C412.075714,420.026764 412.921814,417.599762 414.352600,415.242340 
z"/>
<path 
	d="
M357.185303,422.674377 
	C350.459412,410.793457 348.936066,402.070251 353.121704,396.040558 
	C357.583130,404.470520 356.808685,415.038879 364.941345,421.425629 
	C368.341125,417.512360 367.947449,412.123627 370.916595,408.233215 
	C374.178741,412.737579 372.301178,425.430176 368.140045,428.322723 
	C365.617340,430.076385 363.318909,429.222290 361.337524,427.454590 
	C359.865326,426.141113 358.698517,424.485291 357.185303,422.674377 
z"/>
<path 
	d="
M375.783997,430.821686 
	C378.791809,431.954254 378.676666,434.778656 379.654449,436.964355 
	C381.593292,441.298523 382.910156,445.970551 386.718597,450.052612 
	C392.171173,444.263672 393.491241,436.653687 397.094635,430.640747 
	C399.245300,431.094391 399.305023,432.370239 399.214203,433.495117 
	C398.769226,439.007599 397.662231,444.393616 394.469696,449.015778 
	C389.763702,455.829132 381.689606,455.173187 378.337860,447.612701 
	C376.012268,442.367065 373.525543,436.987701 375.783997,430.821686 
z"/>
<path 
	d="
M303.278259,398.818085 
	C303.442047,403.457855 304.264130,407.541992 305.525848,411.501984 
	C306.097443,413.295929 306.447876,415.651215 308.812927,416.116455 
	C311.460754,416.637268 310.658356,418.452301 310.497192,419.989624 
	C310.346741,421.424408 310.556946,423.180450 308.782593,423.834778 
	C306.845673,424.549042 305.559052,423.172699 304.525146,421.939331 
	C298.524292,414.781128 298.039948,406.133087 298.392883,397.408264 
	C298.504089,394.658630 297.991028,391.303406 301.376495,389.275787 
	C303.911072,392.076996 302.853119,395.384064 303.278259,398.818085 
z"/>
<path 
	d="
M469.718750,421.812866 
	C467.922943,423.338501 466.178436,425.228210 464.445404,422.876862 
	C463.175568,421.153900 462.775482,418.288055 464.555634,416.894928 
	C469.797180,412.792755 469.714539,406.842529 470.665253,401.250885 
	C471.299072,397.523041 471.513916,393.723938 471.931488,389.814575 
	C478.707581,393.231537 477.359955,411.344482 469.718750,421.812866 
z"/>
<path 
	d="
M472.797791,525.839417 
	C469.550842,527.628479 468.520477,526.252808 469.572571,523.614624 
	C472.677551,515.828796 476.093933,508.167175 479.424713,500.372131 
	C483.740662,505.240906 480.839447,516.437317 472.797791,525.839417 
z"/>
<path 
	d="
M424.448090,510.439026 
	C428.804443,507.649506 431.604218,503.170868 436.708557,501.639008 
	C437.222870,509.823883 423.493530,520.815979 414.484802,519.383423 
	C416.367798,514.721680 421.095856,513.537720 424.448090,510.439026 
z"/>
<path 
	d="
M353.171387,519.173096 
	C345.318176,515.761841 339.976715,510.476135 336.694336,503.281067 
	C337.180695,502.740112 337.667084,502.199188 338.153442,501.658234 
	C345.369690,507.209595 352.585968,512.760986 360.104736,518.545105 
	C357.477753,521.145813 355.484711,519.747925 353.171387,519.173096 
z"/>
<path 
	d="
M457.913391,482.950562 
	C460.491058,480.038849 461.831451,476.478027 465.143860,474.518097 
	C467.758148,481.637695 458.191742,495.581665 449.346130,496.977631 
	C450.215668,490.958221 455.075836,487.721710 457.913391,482.950562 
z"/>
<path 
	d="
M293.304199,506.686035 
	C292.909821,504.130157 293.028259,502.089203 295.427368,499.211182 
	C297.697815,509.254517 303.158600,517.098450 305.826691,526.599182 
	C299.163757,525.398621 294.802521,518.033875 293.304199,506.686035 
z"/>
<path 
	d="
M476.509705,445.613159 
	C478.344177,441.268829 478.484802,436.642242 481.337402,432.740173 
	C485.755981,439.821625 481.159454,455.814240 473.805878,459.490540 
	C473.333160,454.586670 475.056030,450.321838 476.509705,445.613159 
z"/>
<path 
	d="
M318.166931,493.838928 
	C311.149628,486.770538 307.996857,480.309235 309.408295,473.856567 
	C315.035736,482.143616 321.594635,488.379181 326.299316,496.851685 
	C322.130585,497.927551 320.492249,495.483551 318.166931,493.838928 
z"/>
<path 
	d="
M292.154388,433.499603 
	C292.904785,433.434326 293.657532,433.511414 293.753693,433.804199 
	C296.521637,442.230682 300.119385,450.418823 301.716125,459.466156 
	C294.865601,457.653839 289.222626,442.230774 292.154388,433.499603 
z"/>
<path 
	d="
M362.941315,462.505127 
	C363.385986,460.656525 364.640594,459.997040 365.439209,461.277374 
	C368.954376,466.912537 374.115814,471.378693 376.868195,477.526337 
	C376.971802,477.757751 376.726379,478.145386 376.640564,478.459412 
	C370.192596,479.616760 365.249542,473.995789 362.941315,462.505127 
z"/>
<path 
	d="
M507.719177,374.243439 
	C510.840668,377.450867 510.840668,377.450867 510.930817,380.641418 
	C505.212952,380.728607 494.889679,373.283356 492.494873,366.826080 
	C498.746613,367.213165 502.925018,371.003845 507.719177,374.243439 
z"/>
<path 
	d="
M276.876923,367.870850 
	C278.677368,367.079315 280.098846,365.906036 281.783722,367.221680 
	C279.991364,373.183502 269.783386,380.517792 262.696930,380.135864 
	C265.326691,373.297150 271.353210,371.096649 276.876923,367.870850 
z"/>
<path 
	d="
M377.294037,507.996216 
	C376.985779,508.667419 376.701324,509.284210 376.348511,509.326172 
	C369.587891,510.130157 360.861511,499.744781 362.699554,492.016541 
	C367.937256,497.302979 373.375763,501.723999 377.294037,507.996216 
z"/>
<path 
	d="
M404.335754,499.333069 
	C406.958862,497.151154 407.829437,493.691956 411.009979,492.484528 
	C413.933441,499.011444 405.411224,509.564941 397.204590,509.182526 
	C397.348389,504.344604 401.706390,502.621521 404.335754,499.333069 
z"/>
<path 
	d="
M407.699615,472.499634 
	C405.000732,476.098541 402.589966,479.521484 396.199677,478.762848 
	C400.849274,472.161499 404.996277,466.273743 409.914581,459.290863 
	C411.876648,464.863342 409.439972,468.463776 407.699615,472.499634 
z"/>
<path 
	d="
M320.190918,537.643433 
	C319.581482,539.845886 318.393341,539.667969 317.076508,538.889526 
	C312.610596,536.249512 308.497498,524.706055 310.225311,517.991455 
	C315.063110,524.141663 317.539490,530.762939 320.190918,537.643433 
z"/>
<path 
	d="
M459.637451,536.493286 
	C458.338745,538.268738 457.093414,540.243347 455.103455,539.089050 
	C452.843048,537.777832 454.651886,535.820435 455.357147,534.320618 
	C457.679840,529.381104 460.141571,524.506592 462.595428,519.630005 
	C462.789215,519.244873 463.333801,519.036255 463.719788,518.742249 
	C466.299408,522.573364 465.174194,527.565918 459.637451,536.493286 
z"/>
<path 
	d="
M398.283508,519.275391 
	C400.644318,518.660400 402.438293,517.132385 404.756714,517.675537 
	C403.260651,523.961853 394.158417,527.607056 388.577972,524.118286 
	C390.769958,520.610229 394.822327,520.896606 398.283508,519.275391 
z"/>
<path 
	d="
M279.434143,351.354004 
	C281.321136,350.351898 282.825562,349.099213 285.365417,350.448669 
	C281.848969,355.473816 278.249512,360.038818 271.434875,362.733704 
	C272.045715,356.776917 276.039307,354.468475 279.434143,351.354004 
z"/>
<path 
	d="
M491.381348,349.910004 
	C496.993591,352.264160 500.915649,355.773254 502.086823,361.781555 
	C496.827972,359.768646 492.756439,356.422668 489.944305,351.629425 
	C489.441193,350.771881 490.031281,350.069550 491.381348,349.910004 
z"/>
<path 
	d="
M445.498138,534.826538 
	C446.449402,532.911072 447.043945,531.163879 448.958954,530.535339 
	C451.559082,534.777649 449.752869,540.579529 444.825165,543.812012 
	C442.640747,540.750000 444.020477,537.963440 445.498138,534.826538 
z"/>
<path 
	d="
M325.854492,539.889404 
	C324.882843,536.693054 322.592010,534.010193 324.538818,530.729187 
	C329.404572,533.245972 331.678284,539.176880 329.639954,543.726257 
	C327.337555,543.709412 326.902985,541.725952 325.854492,539.889404 
z"/>
<path 
	d="
M397.261292,198.790894 
	C399.901886,203.526550 402.887390,207.329636 407.914490,209.126083 
	C409.113525,209.554535 410.182037,210.532974 411.130341,211.445724 
	C414.750946,214.930527 414.556183,217.949005 409.954254,219.892761 
	C405.545349,221.755005 404.843719,224.260178 406.238861,228.453476 
	C407.449829,232.092972 408.678925,235.649628 410.592194,239.010864 
	C414.619751,246.086395 417.166870,253.526718 415.290192,261.865540 
	C414.469055,265.514221 412.940918,268.767853 410.447571,271.564514 
	C403.738129,279.090271 395.431488,278.748260 389.402344,270.691132 
	C388.812012,269.902252 388.229889,269.107269 387.676270,268.358765 
	C385.919464,268.645996 385.614441,270.141754 384.858032,271.130219 
	C379.027771,278.749146 369.529633,278.891113 363.756683,271.152344 
	C357.646637,262.961700 357.171204,253.978836 361.043274,244.706528 
	C363.472412,238.889572 366.935364,233.538986 368.621460,227.368820 
	C369.563507,223.921661 368.838226,221.861496 365.419586,220.251678 
	C359.513641,217.470627 359.210358,213.627579 364.959930,210.172516 
	C369.884705,207.213074 373.726044,203.788223 377.056976,198.958710 
	C382.258575,191.416840 389.816315,191.667297 397.261292,198.790894 
M392.197266,248.689682 
	C392.141815,254.001587 391.880981,259.330139 394.797150,264.165253 
	C396.069672,266.275146 397.503632,267.945343 400.234619,267.807556 
	C402.872131,267.674500 404.544464,266.115204 405.590637,263.921875 
	C407.492950,259.933685 408.145386,255.824890 407.146851,251.358994 
	C405.372772,243.424454 400.202454,236.718750 399.163574,228.400314 
	C395.306793,234.423035 392.736633,240.726746 392.197266,248.689682 
M379.588318,219.919601 
	C382.833923,222.719177 383.867554,227.297577 387.695099,230.317352 
	C391.651611,223.817764 395.470245,217.556442 402.956818,214.423126 
	C400.603485,212.986313 398.795349,211.872162 396.976990,210.774933 
	C394.955841,209.555313 394.740906,207.149445 393.449677,205.440384 
	C389.334351,199.993439 384.745575,199.534622 381.535919,204.912949 
	C379.176086,208.867172 376.466919,212.086914 371.937042,214.044754 
	C374.605835,216.061813 376.834595,217.746277 379.588318,219.919601 
M373.034149,267.625061 
	C376.821411,268.492706 378.463348,266.118622 379.763489,263.194214 
	C383.958221,253.758865 382.706940,244.399872 379.195068,235.155930 
	C378.266724,232.712402 377.610046,229.901840 374.595673,227.762527 
	C374.239471,235.845367 369.822845,241.863815 368.141235,248.755859 
	C366.488342,255.530197 365.852661,262.313599 373.034149,267.625061 
z"/>
<path 
	d="
M417.862549,326.287598 
	C417.987122,330.561829 417.380859,334.342407 416.041473,337.920746 
	C414.967468,340.790039 412.879791,342.255219 409.785767,340.435059 
	C404.622040,337.397400 399.050018,323.620880 400.560699,317.267212 
	C403.898743,318.741455 404.019135,322.286926 405.637360,324.732941 
	C407.228119,327.137482 408.152161,330.030151 410.696075,331.932495 
	C413.847076,326.647308 411.592041,320.630798 413.781830,315.056213 
	C417.671051,318.203491 416.936066,322.317627 417.862549,326.287598 
z"/>
<path 
	d="
M361.382507,324.476593 
	C361.883484,327.136780 362.357941,329.368042 362.932617,332.070557 
	C368.363434,328.205994 368.909454,321.547577 373.269043,316.839935 
	C374.832886,319.876495 374.299835,322.359467 373.615784,324.891418 
	C372.106384,330.478241 369.319397,335.335968 365.342499,339.507507 
	C363.456116,341.486267 361.322235,341.918732 359.245697,339.821899 
	C355.362244,335.900543 355.911041,319.473999 360.334198,314.728210 
	C361.945038,317.842682 361.044647,321.035889 361.382507,324.476593 
z"/>
<path 
	d="
M435.239441,309.130981 
	C436.676025,314.195740 437.419586,318.905945 436.192474,323.731934 
	C435.451019,326.647858 433.834473,328.120880 430.748962,326.763245 
	C426.776581,325.015381 422.045135,316.128845 422.572418,311.483795 
	C424.603058,311.432495 425.157288,313.319000 426.342773,314.358521 
	C427.429626,315.311584 428.142426,316.765717 430.178497,316.992798 
	C431.646332,312.318451 428.760651,307.592407 430.126312,302.685852 
	C433.683868,303.308990 434.077606,306.321228 435.239441,309.130981 
z"/>
<path 
	d="
M348.884399,320.725464 
	C346.492676,323.762756 345.048798,328.381836 340.553650,326.829926 
	C336.403351,325.397034 337.670502,320.964020 337.669769,317.625031 
	C337.668243,310.654510 339.799469,305.411255 343.631622,302.549042 
	C345.678101,307.292267 342.163147,312.008972 343.822235,316.932678 
	C347.208405,316.312378 348.185028,311.962921 351.886719,311.620667 
	C352.689423,315.214386 350.172577,317.593384 348.884399,320.725464 
z"/>
<path 
	d="
M413.871765,182.350677 
	C420.018127,185.704163 421.039490,194.517380 416.096924,198.762115 
	C413.513611,200.980728 411.010071,200.912811 408.819305,198.150604 
	C404.833527,193.125259 407.378967,184.546692 413.871765,182.350677 
z"/>
<path 
	d="
M363.514954,199.854462 
	C358.830292,200.926315 356.815826,198.112198 356.037872,194.782715 
	C355.109833,190.811157 354.344788,186.353653 358.313751,183.335693 
	C360.905304,181.365097 363.356567,182.443146 365.189545,184.863922 
	C368.462158,189.186081 367.866730,195.647461 363.514954,199.854462 
z"/>
<path 
	d="
M336.131775,275.204620 
	C338.892609,267.430420 341.504700,260.014587 344.278137,252.140579 
	C348.770599,258.672058 341.594360,281.106934 334.109161,285.357727 
	C332.669403,281.607117 335.178345,278.723846 336.131775,275.204620 
z"/>
<path 
	d="
M433.082489,260.065155 
	C435.626709,268.564941 439.362854,276.334900 440.745270,285.440277 
	C432.920441,280.994720 425.993164,259.460327 429.620209,252.646011 
	C431.970734,254.444214 431.787598,257.402069 433.082489,260.065155 
z"/>
<path 
	d="
M347.565247,291.407654 
	C346.139221,293.651215 345.001617,295.671509 342.515045,296.286987 
	C340.619415,291.387878 344.807678,282.187073 350.495544,279.019806 
	C351.999054,283.744507 349.359253,287.317810 347.565247,291.407654 
z"/>
<path 
	d="
M430.324402,286.879303 
	C431.621368,289.898682 433.150940,292.494690 432.404388,295.629578 
	C426.763611,294.688263 422.184662,285.727142 424.156403,279.062561 
	C427.372528,280.720306 428.539948,283.828644 430.324402,286.879303 
z"/>
<path 
	d="
M363.868591,296.878906 
	C362.718109,300.345825 362.845642,304.138794 359.031921,305.809906 
	C356.853058,300.971008 358.130157,296.286774 362.422424,292.791992 
	C364.225677,293.491516 364.047424,295.017975 363.868591,296.878906 
z"/>
<path 
	d="
M415.454163,298.953949 
	C416.328644,301.388000 416.701172,303.436707 415.699219,305.543671 
	C411.061096,303.701599 408.943604,297.265717 411.431671,292.665070 
	C413.959839,293.839386 414.677338,296.191315 415.454163,298.953949 
z"/>
<path 
	d="
M414.010406,637.859985 
	C409.071686,644.224182 404.387238,650.370544 395.117279,649.423584 
	C400.467072,645.035950 405.849243,640.877258 409.459625,634.855774 
	C413.005005,628.942688 414.567444,622.137573 418.199097,616.193665 
	C420.444305,624.090576 417.885040,630.927612 414.010406,637.859985 
z"/>
<path 
	d="
M357.471680,593.988647 
	C357.010895,581.669006 365.434052,565.696838 373.865326,562.344666 
	C375.167542,563.819458 374.218170,565.175354 373.486389,566.383606 
	C368.645660,574.376770 365.335114,583.039429 362.050049,591.735352 
	C361.431519,593.372742 361.197815,597.126221 357.471680,593.988647 
z"/>
<path 
	d="
M355.291809,602.682617 
	C355.952576,601.277649 356.417603,600.049255 357.928467,600.569702 
	C359.014648,600.943970 359.216492,602.013611 359.232086,603.026123 
	C359.263123,605.038696 359.165344,607.023987 356.834198,607.999695 
	C354.225861,607.013367 354.834442,604.979858 355.291809,602.682617 
z"/>
<path 
	d="
M484.663025,309.855652 
	C487.770355,293.044586 491.882019,277.060120 501.596771,261.742126 
	C502.469482,265.863007 486.743744,317.298370 484.658356,319.377045 
	C482.751282,316.282654 484.131927,313.276398 484.663025,309.855652 
z"/>
<path 
	d="
M499.016235,331.672913 
	C502.255035,318.990021 508.094757,307.808929 513.621216,296.504089 
	C516.191956,297.554443 515.755188,298.948792 515.472168,300.218506 
	C513.072693,310.982971 509.015839,321.092957 503.217163,330.469452 
	C502.404877,331.782928 501.445831,334.083832 499.016235,331.672913 
z"/>
</svg>