<svg xmlns="http://www.w3.org/2000/svg" width="100%" height="100%" preserveAspectRatio="xMidYMid meet" viewBox="0 0 768 768" fill="currentColor">
<path fill="none" stroke="#000000" stroke-linecap="round" stroke-linejoin="round" stroke-width="8.000000"
	d="
M351.500000,464.500000 
	C348.591888,464.172516 346.456818,462.561523 344.479156,460.520203 
	C341.520508,457.466309 338.602417,454.367889 335.015656,451.976532 
	C331.321960,449.513916 330.306580,445.177826 330.236359,441.495483 
	C330.125763,435.697388 327.867859,431.054688 324.973785,426.516724 
	C313.959503,409.246063 297.462646,399.598358 278.495148,393.515106 
	C266.799561,389.764069 254.797043,387.716614 242.499954,387.502319 
	C241.500259,387.484894 240.453934,387.308685 239.508728,387.536255 
	C236.792709,388.190247 233.298157,388.125153 232.142151,391.056061 
	C231.028519,393.879578 233.236954,396.421875 235.038666,398.465912 
	C248.352692,413.570526 261.739685,428.643372 279.018127,439.471069 
	C290.307861,446.545990 302.720764,450.389923 315.998535,451.517090 
	C321.562347,451.989410 327.186462,453.910156 332.500000,450.500000 
"/>
<path fill="none" stroke="#000000" stroke-linecap="round" stroke-linejoin="round" stroke-width="8.000000"
	d="
M303.500000,376.000000 
	C302.442871,353.282257 289.717102,338.339722 270.984253,327.527313 
	C259.981293,321.176514 247.903061,317.795166 235.496490,315.519104 
	C229.880035,314.488678 224.273468,313.284668 218.499771,313.493774 
	C213.835785,313.662689 212.171127,315.743195 214.061646,319.972443 
	C218.124512,329.061493 224.274826,336.808319 230.476929,344.518555 
	C240.779282,357.326141 252.764221,367.702759 268.457245,373.613556 
	C277.759766,377.117340 287.159943,378.700958 297.000732,378.545746 
	C299.450043,378.507111 301.350372,377.222076 303.547333,376.464172 
	C308.724701,378.740448 312.107971,383.190002 315.965851,387.034271 
	C318.267334,389.327698 320.628693,391.252686 324.000000,391.500000 
"/>
<path fill="none" stroke="#000000" stroke-linecap="round" stroke-linejoin="round" stroke-width="8.000000"
	d="
M313.500000,317.500000 
	C317.675385,316.960785 320.311523,313.892792 322.396606,310.927307 
	C330.411011,299.529205 335.697052,287.115723 337.695282,273.027710 
	C339.974274,256.960236 338.549438,241.243057 335.938751,225.510162 
	C333.919189,213.339569 331.080872,201.322891 327.493835,189.501877 
	C326.576752,186.479538 325.472137,183.475632 323.460297,181.032700 
	C320.761658,177.755829 318.502258,177.553299 315.561218,180.559875 
	C313.415039,182.753860 311.485657,185.318192 310.065491,188.034256 
	C305.885559,196.028397 301.607513,204.001816 298.554199,212.519424 
	C297.719757,214.847214 296.199524,216.432983 294.500000,218.000000 
"/>
<path fill="none" stroke="#000000" stroke-linecap="round" stroke-linejoin="round" stroke-width="8.000000"
	d="
M287.000000,275.500000 
	C290.916840,271.198303 289.778839,265.842346 289.356110,261.012604 
	C288.427856,250.407135 290.395416,240.174698 292.718201,230.050049 
	C293.498413,226.649185 293.803314,223.378494 293.996063,219.999771 
	C294.024506,219.501404 294.200348,218.868805 293.971191,218.518860 
	C283.865753,203.086578 277.526398,185.238312 264.019806,171.979828 
	C259.395142,167.440155 255.015289,162.651779 250.494644,158.005203 
	C247.476776,154.903305 243.850830,151.436752 239.574905,152.744843 
	C234.461456,154.309143 234.068787,159.950912 233.578384,164.508438 
	C232.016464,179.024353 232.372147,193.485840 234.340790,208.021561 
	C235.858292,219.226181 238.816238,229.917694 242.524536,240.491394 
	C242.665146,240.892303 243.477905,241.190247 243.454712,241.496567 
	C242.786804,250.313339 249.651001,255.415634 253.493027,262.004059 
	C258.111298,269.923615 263.937897,277.103760 271.635895,281.776123 
	C279.479095,286.536621 280.945404,293.147217 280.403900,300.993378 
	C280.167725,304.414917 281.145844,307.651031 281.000000,311.000000 
"/>
<path fill="none" stroke="#000000" stroke-linecap="round" stroke-linejoin="round" stroke-width="6.000000"
	d="
M383.000000,300.000000 
	C380.025024,296.169861 379.325653,291.456055 378.016754,286.995087 
	C373.442444,271.404938 367.876007,256.263855 359.071289,242.454544 
	C357.500458,239.990784 356.040405,236.545685 353.095886,237.737030 
	C349.523224,239.182526 350.519592,243.621613 351.169830,246.461105 
	C352.624115,252.811646 354.995178,258.938934 357.443878,265.022583 
	C361.939117,276.190796 367.667023,286.746094 372.830841,297.580627 
	C375.405945,302.983612 378.722748,306.186493 384.500000,307.000000 
"/>
<path fill="none" stroke="#000000" stroke-linecap="round" stroke-linejoin="round" stroke-width="8.000000"
	d="
M243.500000,249.000000 
	C239.105652,250.150528 235.607880,247.620560 232.026367,245.943680 
	C220.351196,240.477310 208.009079,237.213470 195.489700,234.548386 
	C190.207581,233.423950 186.610413,238.617813 188.471359,244.009888 
	C192.408295,255.417130 199.373657,265.007202 206.513733,274.489655 
	C216.204041,287.358948 227.809418,298.038330 242.510773,304.977173 
	C252.617142,309.747284 263.405975,313.497131 274.453766,312.127136 
	C282.220032,311.164032 286.307953,314.371155 289.880707,319.581787 
	C291.910492,322.542114 294.501251,324.123444 297.500000,325.500000 
"/>
<path fill="none" stroke="#000000" stroke-linecap="round" stroke-linejoin="round" stroke-width="6.000000"
	d="
M394.500000,289.500000 
	C398.458160,289.093506 400.975494,286.701294 403.023376,283.515045 
	C404.571899,281.105743 406.352386,278.846558 407.986877,276.490906 
	C408.407471,275.884766 409.008362,275.134491 408.949005,274.504822 
	C408.000580,264.439514 415.205780,257.241058 418.148163,248.550156 
	C420.061859,242.897675 422.420074,237.458923 423.696533,231.542404 
	C424.302612,228.733002 423.276337,226.733841 421.863892,225.682938 
	C420.204376,224.448212 417.837708,226.062958 416.555939,227.548279 
	C411.750488,233.116821 408.719055,239.776016 406.055237,246.521820 
	C400.882721,259.620605 396.557617,272.940643 394.253479,286.959473 
	C393.431763,291.958801 391.627472,297.353241 387.974640,301.477539 
	C385.520935,304.247864 383.562378,306.886169 386.472931,310.521667 
	C387.293457,311.546570 386.513489,312.836212 386.531097,313.999542 
	C386.634521,320.833832 386.823547,327.666931 387.005524,334.499847 
	C387.065582,336.754761 385.830597,338.554626 385.000000,340.500000 
"/>
<path fill="none" stroke="#000000" stroke-linecap="round" stroke-linejoin="round" stroke-width="8.000000"
	d="
M384.500000,365.500000 
	C381.838013,364.259613 380.150757,362.237762 378.940643,359.526489 
	C377.372131,356.012268 376.646698,352.025787 372.071045,350.310486 
	C369.707489,349.424438 369.953430,345.765472 370.148621,343.512878 
	C370.583313,338.496429 368.959808,333.636780 370.212280,328.430786 
	C371.159027,324.495209 368.012146,320.344269 367.337219,316.025452 
	C366.216095,308.851715 364.298798,301.772797 361.509308,294.996155 
	C361.109009,294.023743 360.982452,292.916290 360.475647,292.013672 
	C357.333710,286.417816 354.426178,286.193787 351.028168,291.517975 
	C341.771118,306.022461 334.751068,321.618073 331.666534,338.530365 
	C328.798706,354.254547 330.597198,369.798676 337.479065,384.509796 
	C338.680786,387.078705 340.213715,389.366882 342.519958,390.971283 
	C345.977081,393.376221 347.197357,396.108215 346.180511,400.541412 
	C345.308868,404.341461 346.047760,408.500854 345.977203,412.499603 
	C345.947784,414.168671 346.256866,416.278168 345.395416,417.421173 
	C342.081726,421.817993 344.013733,426.123657 345.001038,430.499756 
	C346.838501,438.644135 349.254456,446.619781 351.991150,454.503082 
	C352.388428,455.647522 353.210693,456.999268 352.913513,457.973633 
	C350.638123,465.433838 355.571930,470.920532 358.084595,476.964813 
	C361.594635,485.408264 364.880524,493.853058 366.014709,502.998169 
	C366.335938,505.588135 370.985413,508.679871 373.493896,507.978149 
	C375.512054,507.413544 375.589752,505.821960 375.535614,503.998932 
	C375.284088,495.528625 372.883606,487.377502 371.922089,479.008942 
	C371.456573,474.957123 370.166656,471.000000 369.250000,467.000000 
"/>
<path fill="none" stroke="#000000" stroke-linecap="round" stroke-linejoin="round" stroke-width="8.000000"
	d="
M406.000000,529.500000 
	C413.466187,526.062073 421.836792,526.217896 429.513611,523.539062 
	C437.399933,520.787109 445.715820,518.944397 450.042175,510.521667 
	C451.775177,507.147797 452.504395,503.711090 450.417694,500.554413 
	C447.815460,496.617737 443.658295,494.728821 439.015930,495.586243 
	C431.492798,496.975739 425.175812,501.096680 419.553864,506.060974 
	C414.792664,510.265167 410.215302,514.761353 406.142731,519.619629 
	C404.554504,521.514282 403.288727,524.744812 404.600311,527.451355 
	C405.833374,529.995850 405.273743,532.485718 405.500000,535.000000 
"/>
<path fill="none" stroke="#000000" stroke-linecap="round" stroke-linejoin="round" stroke-width="8.000000"
	d="
M397.000000,540.000000 
	C400.000000,549.666687 403.037598,559.321838 405.991974,569.002441 
	C411.686188,587.660706 417.344727,606.329834 422.993713,625.001892 
	C424.921783,631.374878 421.894440,637.158997 416.000000,638.500000 
"/>
<path fill="none" stroke="#000000" stroke-linecap="round" stroke-linejoin="round" stroke-width="8.000000"
	d="
M477.000000,345.500000 
	C481.061096,343.743042 484.008026,340.593353 486.994324,337.484863 
	C486.500000,336.166656 486.011414,334.828918 485.497437,333.501007 
	C484.632812,331.267242 484.519318,328.377289 480.999756,328.492096 
	C477.671997,328.600677 476.199677,331.106598 475.077698,333.535889 
	C473.573730,336.792114 473.115967,340.134003 475.442566,343.539246 
	C478.341187,347.781738 474.330200,351.785339 474.446594,356.001465 
	C474.473938,356.991516 473.325806,358.158691 473.580963,358.974701 
	C475.468414,365.010895 471.067413,368.887299 468.377289,372.918121 
	C452.083862,397.331421 438.025909,423.007019 424.515503,449.008057 
	C422.705231,452.492035 422.103577,456.219238 423.532745,459.987579 
	C424.463379,462.441345 423.914856,464.388062 422.542145,466.527039 
	C418.096100,473.454712 413.626923,480.383392 409.580719,487.545624 
	C407.306519,491.571198 404.711090,494.980682 400.500000,497.000000 
"/>
<path fill="none" stroke="#000000" stroke-linecap="round" stroke-linejoin="round" stroke-width="7.000000"
	d="
M380.500000,154.000000 
	C377.501343,151.341064 377.125214,147.524490 375.957275,144.014206 
	C373.950958,137.984100 372.650391,131.636337 368.517334,126.486092 
	C367.320465,124.994682 365.916199,123.113426 364.090515,124.158165 
	C362.740204,124.930855 362.038300,126.912041 361.904053,128.993820 
	C361.516968,134.996124 362.702332,140.842819 364.151093,146.461029 
	C367.149933,158.090271 371.215485,169.441147 374.381042,181.032486 
	C375.463104,184.994659 376.219177,189.053116 377.296753,193.054733 
	C379.007507,199.407822 382.267334,203.591415 388.500000,205.500000 
"/>
<path fill="none" stroke="#000000" stroke-linecap="round" stroke-linejoin="round" stroke-width="6.000000"
	d="
M382.000000,246.500000 
	C378.644409,232.780426 373.329437,219.706345 368.327637,206.565598 
	C366.193756,200.959351 360.336761,197.510849 357.410187,192.048126 
	C355.923492,189.273117 353.724121,186.762634 351.418732,184.586075 
	C349.958282,183.207214 347.819275,181.331406 345.553833,183.070145 
	C343.779510,184.431946 344.152924,186.150284 344.794678,188.554794 
	C347.568207,198.946503 353.913177,207.383163 359.032104,216.481949 
	C363.207703,223.904007 368.058014,230.971237 371.853882,238.572968 
	C374.147736,243.166641 376.482819,246.690338 381.995819,247.061951 
	C382.693024,247.108932 383.333344,248.000000 384.000000,248.500000 
"/>
<path fill="none" stroke="#000000" stroke-linecap="round" stroke-linejoin="round" stroke-width="8.000000"
	d="
M366.500000,546.500000 
	C360.166687,570.500000 354.269073,594.627686 347.291443,618.438904 
	C344.387573,628.348389 346.678833,632.210266 354.480194,635.546326 
	C354.801880,635.683838 354.833344,636.500000 355.000031,637.000000 
"/>
<path fill="none" stroke="#000000" stroke-linecap="round" stroke-linejoin="round" stroke-width="8.000000"
	d="
M367.500000,595.250000 
	C370.492310,596.604736 371.906647,598.867371 371.466064,602.495850 
	C370.230042,612.674377 368.764130,622.825012 367.542816,633.005127 
	C367.183563,635.999756 367.481293,638.994385 366.633209,642.037109 
	C365.824036,644.940369 369.432800,649.112610 372.503876,649.466248 
	C375.354706,649.794434 377.309937,649.011292 377.562134,645.504456 
	C378.006714,639.321838 379.168884,633.177612 379.370331,626.995789 
	C379.485596,623.458008 380.577545,620.816223 383.000000,618.500000 
"/>
<path fill="none" stroke="#000000" stroke-linecap="round" stroke-linejoin="round" stroke-width="8.000000"
	d="
M369.000000,594.500000 
	C371.666656,580.666687 374.383148,566.842590 376.956085,552.991821 
	C377.444427,550.363159 376.122101,547.221924 378.084351,545.077148 
	C380.308685,542.645996 384.493652,544.115845 386.565887,542.725586 
	C390.348602,540.187622 394.811310,540.090454 398.438507,537.898254 
	C400.555847,536.618591 402.611816,535.520020 405.734497,534.739075 
	C407.077209,542.413879 413.623169,546.878845 417.113647,553.439514 
	C421.103119,560.938293 423.022736,569.048584 425.457520,577.013000 
	C429.658691,590.755432 437.577850,601.321350 450.461761,608.072998 
	C452.798462,609.297485 455.043182,609.576233 457.500000,609.500000 
"/>
<path fill="none" stroke="#000000" stroke-linecap="round" stroke-linejoin="round" stroke-width="7.000000"
	d="
M496.000000,398.500000 
	C496.391815,401.549530 495.640930,404.033478 493.566223,406.554504 
	C479.974396,423.070404 463.057434,436.067932 447.492737,450.492157 
	C444.376556,453.379974 440.776825,455.843475 438.094727,459.078522 
	C434.408630,463.524628 430.026245,465.185608 424.500000,464.500000 
"/>
<path fill="none" stroke="#000000" stroke-linecap="round" stroke-linejoin="round" stroke-width="7.000000"
	d="
M409.750000,114.500000 
	C416.423706,121.227501 413.261658,129.287567 411.784576,136.455612 
	C408.473816,152.522278 404.073242,168.365845 399.097565,184.030991 
	C398.490723,185.941513 397.827240,187.755295 396.454010,188.947006 
	C390.201935,194.372711 388.823029,201.004349 389.810608,209.023331 
	C390.472870,214.400711 389.212433,219.996475 389.052063,225.501511 
	C388.974274,228.173141 388.436310,230.937744 389.975830,233.514435 
	C392.361542,237.507370 391.110077,241.942520 388.329437,244.298737 
	C383.189453,248.654175 384.917389,253.379105 385.409576,258.508667 
	C386.081207,265.507935 387.829041,272.411469 387.481689,279.499115 
	C387.306824,283.066772 388.236389,286.121033 391.000000,288.500000 
"/>
<path fill="none" stroke="#000000" stroke-linecap="round" stroke-linejoin="round" stroke-width="6.000000"
	d="
M430.500000,324.750000 
	C427.466278,325.709991 428.761536,328.791534 428.254578,330.572479 
	C424.500702,343.760254 417.675049,355.473541 411.468811,367.483887 
	C407.806091,374.572021 403.547516,381.363281 400.109283,388.552277 
	C398.109802,392.733063 395.258270,395.248901 391.000000,396.500000 
"/>
<path fill="none" stroke="#000000" stroke-linecap="round" stroke-linejoin="round" stroke-width="6.000000"
	d="
M353.000000,317.500000 
	C351.833344,327.500000 350.803253,337.518341 349.464325,347.495209 
	C347.904236,359.119568 346.938019,370.756409 346.854309,382.498962 
	C346.834076,385.339294 345.000000,388.166656 344.000000,391.000000 
"/>
<path fill="none" stroke="#000000" stroke-linecap="round" stroke-linejoin="round" stroke-width="7.000000"
	d="
M425.500000,164.500000 
	C424.552155,167.741302 428.287628,169.754532 427.239441,173.565857 
	C425.699707,179.164688 423.571930,184.497375 420.870178,189.428864 
	C413.629761,202.644684 406.264679,215.776245 399.954285,229.478943 
	C398.287781,233.097595 395.963043,236.346985 391.500000,237.000000 
"/>
<path fill="none" stroke="#000000" stroke-linecap="round" stroke-linejoin="round" stroke-width="7.000000"
	d="
M505.500000,391.500000 
	C504.833344,391.500000 503.915894,391.211975 503.536682,391.542114 
	C494.158051,399.707336 481.707428,402.695831 472.300018,411.280853 
	C457.751892,424.557129 443.415649,437.841949 431.965698,453.975647 
	C430.889801,455.491669 429.333313,456.666656 428.000000,458.000000 
"/>
<path fill="none" stroke="#000000" stroke-linecap="round" stroke-linejoin="round" stroke-width="8.000000"
	d="
M407.000000,536.000000 
	C414.448578,534.945374 420.153351,538.754944 425.443298,543.069519 
	C429.722900,546.559998 433.438202,550.733765 437.512146,554.486816 
	C447.836121,563.997864 459.554901,567.129028 473.000000,562.000000 
"/>
<path fill="none" stroke="#000000" stroke-linecap="round" stroke-linejoin="round" stroke-width="6.000000"
	d="
M236.500000,330.000000 
	C252.066681,337.533325 266.516632,346.894043 280.484100,357.021942 
	C285.582855,360.719086 290.480591,364.692413 295.509949,368.486786 
	C297.414490,369.923676 299.434570,371.203430 302.000000,371.000000 
"/>
<path fill="none" stroke="#000000" stroke-linecap="round" stroke-linejoin="round" stroke-width="6.000000"
	d="
M371.000000,426.500000 
	C367.332794,425.958984 365.279816,423.204315 363.594330,420.442444 
	C362.176727,418.119507 359.991821,416.941833 358.067535,417.676849 
	C355.266907,418.746582 356.195404,421.760986 356.794067,423.988159 
	C359.072754,432.465149 364.071320,439.598999 368.519989,446.987976 
	C370.569397,450.391907 372.890839,453.631042 374.984406,457.009674 
	C377.233490,460.639252 379.863953,463.660828 384.500000,464.000000 
"/>
<path fill="none" stroke="#000000" stroke-linecap="round" stroke-linejoin="round" stroke-width="8.000000"
	d="
M397.000000,590.500000 
	C392.775635,594.472961 394.707275,599.541138 395.139587,603.986450 
	C396.454010,617.501709 398.757202,630.915649 399.506226,644.499634 
	C399.574707,645.742371 398.910400,647.709290 401.500000,646.750000 
"/>
<path fill="none" stroke="#000000" stroke-linecap="round" stroke-linejoin="round" stroke-width="8.000000"
	d="
M439.000000,387.000000 
	C440.468597,390.760376 438.629974,394.107574 436.885315,396.929077 
	C432.221985,404.470612 427.489166,412.074799 421.829956,418.858124 
	C417.984711,423.467163 415.196716,428.595093 412.118591,433.573334 
	C410.264862,436.571350 409.599091,440.027283 409.721436,444.008545 
	C409.916748,450.365021 406.668427,456.334534 404.968811,462.491394 
	C402.934326,469.861237 400.530182,477.130249 398.559692,484.515930 
	C397.627380,488.010406 397.738068,491.481171 399.391693,495.050171 
	C401.384491,499.351135 396.201050,507.943085 391.504425,509.019348 
	C390.640076,509.217377 389.784119,509.578888 389.007965,510.014191 
	C383.970978,512.839417 379.421661,512.570374 375.500000,508.000000 
"/>
<path fill="none" stroke="#000000" stroke-linecap="round" stroke-linejoin="round" stroke-width="6.000000"
	d="
M409.500000,274.000000 
	C414.244354,273.843445 416.659943,269.875946 419.932098,267.409912 
	C421.713013,266.067780 423.515167,264.824585 425.532867,264.090302 
	C426.760651,263.643463 428.566681,263.631714 429.448273,265.032562 
	C430.187714,266.207550 430.239166,267.539948 429.550018,269.023224 
	C427.285889,273.896301 423.925537,277.991852 420.463837,281.968536 
	C413.484558,289.986115 405.842346,297.450378 399.572388,306.052765 
	C396.297272,310.546265 392.019104,311.604004 387.000000,311.500000 
"/>
<path fill="none" stroke="#000000" stroke-linecap="round" stroke-linejoin="round" stroke-width="8.000000"
	d="
M388.000000,568.500000 
	C382.545776,573.511414 384.221252,580.429260 383.678314,586.515930 
	C382.836304,595.955688 383.223022,605.501648 382.947510,614.998474 
	C382.898499,616.687012 383.370483,617.873596 384.489288,619.010559 
	C386.387299,620.939209 386.870148,623.292480 387.085175,625.993225 
	C387.670624,633.346252 388.760193,640.657898 389.450836,648.004639 
	C389.703064,650.687439 389.451477,653.753113 393.004211,653.892761 
	C396.394592,654.026001 399.061584,652.386169 399.516724,648.501953 
	C399.557495,648.153870 399.833344,647.833313 400.000000,647.500000 
"/>
<path fill="none" stroke="#000000" stroke-linecap="round" stroke-linejoin="round" stroke-width="7.000000"
	d="
M387.000000,543.500000 
	C388.937653,550.368530 388.508850,557.517639 389.431641,564.509033 
	C389.637146,566.065979 389.810028,567.408875 390.995819,568.504517 
	C395.251740,572.437073 394.491394,578.151428 395.816956,583.049561 
	C396.724915,586.404724 397.204102,589.359863 399.868225,592.126892 
	C403.820770,596.232056 403.857117,602.279175 405.441559,607.517700 
	C407.992584,615.951843 410.178436,624.496765 412.493073,633.001892 
	C413.217651,635.664551 416.431122,637.235413 415.750000,640.500000 
"/>
<path fill="none" stroke="#000000" stroke-linecap="round" stroke-linejoin="round" stroke-width="6.000000"
	d="
M425.000000,167.500000 
	C420.171936,167.895554 418.013306,171.821762 415.562347,175.047379 
	C410.704010,181.441284 406.924927,188.630386 404.204224,196.074646 
	C401.660034,203.035843 397.670868,207.217880 390.500000,208.500000 
"/>
<path fill="none" stroke="#000000" stroke-linecap="round" stroke-linejoin="round" stroke-width="12.000000"
	d="
M258.500000,247.500000 
	C264.243011,253.390274 268.898010,260.601288 277.487701,263.043274 
	C278.081818,263.212189 278.718658,263.910217 278.966522,264.513763 
	C281.736023,271.258331 288.970612,275.901825 289.262573,283.509125 
	C289.486481,289.341919 292.206848,293.675720 294.419220,298.536774 
	C296.404907,302.899841 298.719818,307.148926 297.663635,312.532104 
	C296.843658,316.711273 298.687866,321.005890 298.552856,325.516541 
	C298.430359,329.609131 303.230072,333.717377 304.514557,338.496094 
	C304.567535,338.693298 304.809875,338.869659 305.003357,338.994812 
	C314.470642,345.117188 313.744568,356.139771 317.473541,365.011139 
	C319.619476,370.116425 321.662537,375.278320 323.437378,380.521210 
	C324.457611,383.535004 326.350037,386.524323 324.569427,390.035217 
	C323.937561,391.281067 325.397461,392.365326 325.929657,393.532074 
	C329.397034,401.134003 334.442474,407.919647 337.155029,415.947632 
	C337.959381,418.328186 340.101624,420.646729 343.000000,421.500000 
"/>
<path fill="none" stroke="#000000" stroke-linecap="round" stroke-linejoin="round" stroke-width="6.000000"
	d="
M408.500000,315.500000 
	C404.668121,315.695648 404.423828,318.921814 403.516022,321.505615 
	C400.897247,328.959229 399.764343,336.755188 398.579498,344.512146 
	C398.175629,347.156067 397.631134,349.809845 397.292297,352.473572 
	C396.877716,355.733063 397.654633,358.315857 399.000000,361.000000 
"/>
<path fill="none" stroke="#000000" stroke-linecap="round" stroke-linejoin="round" stroke-width="6.000000"
	d="
M424.000000,385.000000 
	C418.707764,380.473663 417.962250,380.476440 414.031006,386.520172 
	C407.672150,396.296051 403.627502,407.175385 399.502899,418.001099 
	C398.651062,420.236969 399.213379,422.381012 400.000000,424.500000 
"/>
<path fill="none" stroke="#000000" stroke-linecap="round" stroke-linejoin="round" stroke-width="9.000000"
	d="
M429.500000,325.000000 
	C427.755432,321.922943 425.963135,320.819458 422.941132,323.943054 
	C419.503082,327.496704 416.990265,331.895721 412.598267,334.656342 
	C411.294403,335.475922 411.177338,338.170624 410.498108,339.999298 
	C407.724579,347.466431 405.386749,355.035034 399.628296,361.121399 
	C396.768036,364.144531 397.170929,369.011261 396.116302,373.030518 
	C395.375885,375.852509 394.746307,378.631012 392.465149,380.456451 
	C388.112305,383.939545 388.344452,388.563385 389.669434,392.948822 
	C390.477173,395.622223 390.765472,398.091644 389.925842,400.473846 
	C388.009735,405.909912 388.047089,411.775299 385.266541,417.138184 
	C383.768250,420.028015 384.678894,424.375549 385.152557,427.979950 
	C385.351654,429.494965 385.879425,431.280609 385.394165,432.456329 
	C382.264771,440.038055 385.541626,446.716583 388.061249,453.477173 
	C388.727905,455.266022 388.350220,456.646576 387.477112,457.985046 
	C383.978607,463.348236 385.131744,469.297729 385.609955,474.990753 
	C386.185425,481.841827 386.010284,488.671906 385.914917,495.498810 
	C385.848419,500.260895 386.697540,504.463440 390.000000,508.000000 
"/>
<path fill="none" stroke="#000000" stroke-linecap="round" stroke-linejoin="round" stroke-width="6.000000"
	d="
M365.000000,377.500000 
	C370.807007,381.468109 371.115234,388.296234 373.428864,394.028717 
	C375.594543,399.394562 377.519684,404.915009 378.871918,410.530853 
	C379.727814,414.085419 381.469727,416.377777 384.500000,418.000000 
"/>
<path fill="none" stroke="#000000" stroke-linecap="round" stroke-linejoin="round" stroke-width="7.000000"
	d="
M459.000000,269.500000 
	C460.030396,263.500000 459.452362,257.436340 458.802826,251.521652 
	C458.345001,247.352600 454.668518,244.472244 450.953522,242.591827 
	C448.655579,241.428680 445.158203,244.618576 444.500000,248.000000 
	C443.357208,253.871094 449.458557,267.175690 455.037170,269.407074 
	C466.636230,274.046631 476.480225,274.354340 486.453430,263.457367 
	C487.897583,261.879425 489.157623,260.065765 489.077576,257.497589 
	C488.947632,253.327408 487.019470,250.890182 483.017914,251.600800 
	C479.081238,252.299866 474.967773,252.560974 473.290375,257.934570 
	C471.857910,262.523560 467.556213,265.979004 466.500000,271.000000 
"/>
<path fill="none" stroke="#000000" stroke-linecap="round" stroke-linejoin="round" stroke-width="7.000000"
	d="
M459.000000,249.500000 
	C462.510956,246.088074 465.073456,241.510208 470.492126,240.459335 
	C471.943451,240.177841 471.627594,238.487915 471.930389,237.479095 
	C472.927124,234.158188 475.038574,233.600250 478.000885,234.497116 
	C484.977783,236.609497 496.434937,231.199600 498.962860,224.486008 
	C499.702454,222.521759 500.044983,220.569046 498.579865,218.444916 
	C496.902679,216.013306 494.623840,216.238678 492.518372,216.605469 
	C490.517242,216.954086 488.569702,217.584885 486.500000,217.500000 
"/>
<path fill="none" stroke="#000000" stroke-linecap="round" stroke-linejoin="round" stroke-width="8.000000"
	d="
M470.000000,232.000000 
	C469.833313,226.500000 469.718109,220.997711 469.472900,215.501205 
	C469.383423,213.496597 461.945129,206.542542 459.999847,206.509964 
	C456.306335,206.448105 455.054901,208.952515 454.515442,212.002731 
	C453.195679,219.464645 461.957550,231.304443 468.024841,232.356735 
	C470.128845,232.721649 471.215942,233.777954 472.500000,235.000000 
"/>
<path fill="none" stroke="#000000" stroke-linecap="round" stroke-linejoin="round" stroke-width="5.000000"
	d="
M247.000000,174.500000 
	C251.166672,186.000000 255.206696,197.548889 259.611084,208.957123 
	C260.452026,211.135345 260.654236,212.931595 260.000000,215.000000 
"/>
<path fill="none" stroke="#000000" stroke-linecap="round" stroke-linejoin="round" stroke-width="7.000000"
	d="
M409.500000,116.000000 
	C403.707550,119.557312 402.160522,125.846947 400.136658,131.548508 
	C397.947144,137.716751 397.708191,144.508774 394.054169,150.284271 
	C392.379242,152.931595 393.878967,156.076706 393.592010,159.009003 
	C392.908966,165.988388 393.163361,173.038269 392.041565,180.006699 
	C391.452972,183.662994 392.223053,187.211487 394.000000,190.500000 
"/>
<path fill="none" stroke="#000000" stroke-linecap="round" stroke-linejoin="round" stroke-width="7.000000"
	d="
M482.000000,201.000000 
	C480.828735,194.719788 480.155670,188.411606 479.818512,182.009552 
	C479.628204,178.395599 476.069366,176.167099 472.955444,174.587875 
	C470.474396,173.329605 467.117554,175.879211 466.500000,179.000000 
	C465.155884,185.792450 470.583740,198.947693 477.104034,201.198685 
	C481.613831,202.755569 486.755432,204.928238 492.000366,203.001022 
	C497.584076,200.949310 502.598419,198.041473 505.962158,192.974884 
	C507.528717,190.615295 506.303406,186.066238 504.000031,184.499969 
	C502.280731,183.330917 495.977325,184.206482 494.525360,186.020294 
	C491.255463,190.105240 488.794891,194.812012 484.989838,198.489487 
	C484.734222,198.736557 484.333344,198.833328 484.000000,199.000000 
"/>
<path fill="none" stroke="#000000" stroke-linecap="round" stroke-linejoin="round" stroke-width="7.000000"
	d="
M367.000000,596.000000 
	C362.193573,601.239197 362.643860,608.325806 360.518616,614.506409 
	C358.202240,621.242920 358.391388,628.720215 354.500000,635.000000 
"/>
<path fill="none" stroke="#000000" stroke-linecap="round" stroke-linejoin="round" stroke-width="7.000000"
	d="
M393.500000,150.000000 
	C392.666656,149.000000 391.851898,147.983810 390.996704,147.002869 
	C387.733459,143.259933 386.471680,143.998306 383.857117,148.415436 
	C380.426636,154.211014 381.409851,160.072556 382.057983,165.993652 
	C382.808990,172.854233 384.210846,179.645721 384.893036,186.510635 
	C385.154633,189.142960 386.318451,190.840775 388.000000,192.500000 
"/>
<path fill="none" stroke="#000000" stroke-linecap="round" stroke-linejoin="round" stroke-width="6.000000"
	d="
M358.500000,389.000000 
	C360.143188,390.722015 361.349426,392.675903 362.014038,394.995972 
	C364.331879,403.087067 367.551178,410.836700 370.969513,418.513580 
	C371.520142,419.750153 371.990295,421.177155 371.947449,422.498291 
	C371.672485,430.973389 376.336365,436.331482 383.000000,440.500000 
"/>
<path fill="none" stroke="#000000" stroke-linecap="round" stroke-linejoin="round" stroke-width="7.000000"
	d="
M545.500000,271.000000 
	C545.500000,270.000000 545.390320,268.985809 545.517639,268.002289 
	C546.415710,261.065063 544.175476,258.301056 537.519287,259.150909 
	C535.317749,259.431915 534.124512,259.040100 533.008667,257.493744 
	C531.229919,255.028625 528.340759,254.047409 525.914185,252.648941 
	C523.155273,251.058990 519.616150,254.478836 519.020569,259.002716 
	C518.028992,266.534241 518.692810,272.909821 524.741821,279.246460 
	C533.646240,288.574371 542.659851,287.602448 551.470642,282.944427 
	C554.707397,281.233246 555.973206,277.161682 554.500000,275.000000 
	C552.578369,272.180328 546.413269,270.630493 544.018127,272.522949 
	C540.117737,275.604675 536.333313,278.833313 532.500000,282.000000 
"/>
<path fill="none" stroke="#000000" stroke-linecap="round" stroke-linejoin="round" stroke-width="7.000000"
	d="
M317.500000,204.500000 
	C317.119080,214.893250 314.278351,225.065262 314.593170,235.497192 
	C314.671875,238.103821 311.027435,238.676453 312.362213,242.054443 
	C315.866394,250.922653 312.500122,260.009521 312.134216,268.995300 
	C311.971771,272.984589 313.072205,277.290039 310.500000,281.000000 
"/>
<path fill="none" stroke="#000000" stroke-linecap="round" stroke-linejoin="round" stroke-width="7.000000"
	d="
M463.500000,298.500031 
	C464.833344,298.333344 466.182861,298.247223 467.496613,297.983154 
	C470.203064,297.439087 472.903442,297.546326 474.417175,300.050079 
	C475.728943,302.219727 475.776764,304.431366 474.126648,307.078918 
	C470.185974,313.401459 464.146576,315.860535 457.489410,317.455872 
	C454.634827,318.139984 452.280426,316.492035 450.000000,315.000000 
"/>
<path fill="none" stroke="#000000" stroke-linecap="round" stroke-linejoin="round" stroke-width="7.000000"
	d="
M499.500000,354.500000 
	C503.376465,361.461853 501.705719,365.299408 493.998016,366.990997 
	C488.358307,368.228760 482.746918,369.389832 477.941345,364.558350 
	C477.194489,363.807465 475.666656,363.833344 474.500000,363.500000 
"/>
<path fill="none" stroke="#000000" stroke-linecap="round" stroke-linejoin="round" stroke-width="7.000000"
	d="
M491.000000,170.500000 
	C493.648743,163.436264 489.785248,156.851288 489.335541,150.010818 
	C489.179169,147.632599 482.968872,144.861359 481.000000,145.499969 
	C478.525208,146.302689 476.082062,151.847992 477.026398,154.992081 
	C478.864380,161.111679 480.762146,167.228668 485.940002,172.164001 
	C488.328400,171.955322 492.037476,169.442230 494.590454,173.948746 
	C494.720703,174.178650 496.124451,173.944031 497.031982,173.579681 
	C502.423340,171.415115 507.428650,168.853394 511.041382,164.030991 
	C512.903381,161.545532 514.336975,159.087372 512.966248,156.015060 
	C511.701080,153.179260 508.979340,153.551422 506.500671,153.477753 
	C505.829651,153.457794 505.166656,153.166672 504.500000,153.000000 
"/>
<path fill="none" stroke="#000000" stroke-linecap="round" stroke-linejoin="round" stroke-width="7.000000"
	d="
M493.000000,164.000000 
	C500.482635,160.486176 506.697357,147.910904 504.450195,140.515137 
	C503.882721,138.647598 502.882263,136.686798 500.497864,136.533020 
	C498.591278,136.410019 497.094879,136.763153 495.362335,138.349655 
	C492.197235,141.247971 492.470062,146.013870 489.000000,148.500000 
"/>
<path fill="none" stroke="#000000" stroke-linecap="round" stroke-linejoin="round" stroke-width="7.000000"
	d="
M473.000000,338.000000 
	C465.503998,336.050964 463.128540,337.883759 463.565460,345.996460 
	C463.932953,352.820038 465.316376,359.348602 473.000000,362.000000 
"/>
<path fill="none" stroke="#000000" stroke-linecap="round" stroke-linejoin="round" stroke-width="7.000000"
	d="
M561.000000,217.500000 
	C560.333313,216.833328 559.666443,216.166916 559.000061,215.499939 
	C557.479553,213.978104 555.763794,212.293228 553.531067,213.087296 
	C550.953735,214.003906 549.701782,216.398148 548.998535,218.999603 
	C547.826843,223.334412 548.766663,227.692520 549.156067,231.985840 
	C549.290649,233.469391 549.227905,235.011719 549.500000,236.500000 
"/>
<path fill="none" stroke="#000000" stroke-linecap="round" stroke-linejoin="round" stroke-width="7.000000"
	d="
M547.000000,238.000000 
	C545.401306,237.771484 544.559998,236.484970 543.498779,235.501343 
	C539.300110,231.609711 536.042175,232.494461 533.982971,237.993637 
	C532.943726,240.768951 532.526672,243.706268 533.105957,246.477844 
	C533.801880,249.807327 533.314087,252.867401 532.500000,256.000000 
"/>
<path fill="none" stroke="#000000" stroke-linecap="round" stroke-linejoin="round" stroke-width="7.000000"
	d="
M558.500000,249.000000 
	C558.500000,248.333328 558.367310,247.634354 558.520630,247.005020 
	C560.017151,240.861313 560.030762,240.864624 557.806763,235.537048 
	C561.990112,233.053024 566.417969,230.772278 570.453247,227.933578 
	C574.828125,224.856064 576.899292,219.977921 577.875366,214.975677 
	C578.779480,210.342529 575.015259,207.771927 571.023132,210.040665 
	C561.540222,215.429749 557.817017,222.757324 560.000000,233.500000 
"/>
<path fill="none" stroke="#000000" stroke-linecap="round" stroke-linejoin="round" stroke-width="7.000000"
	d="
M573.500000,226.500000 
	C576.472595,228.403351 581.447205,228.446609 580.497192,233.999512 
	C579.911011,237.425369 575.790100,240.391235 570.496460,240.967743 
	C567.348999,241.310547 564.166687,241.333344 561.000000,241.500000 
"/>
<path fill="none" stroke="#000000" stroke-linecap="round" stroke-linejoin="round" stroke-width="7.000000"
	d="
M253.500000,401.000000 
	C262.657898,403.722748 271.442383,407.615021 279.331696,412.758148 
	C284.045380,415.831024 288.890930,417.332458 293.845612,419.374542 
	C299.671295,421.775696 304.132172,427.301239 309.552765,430.920959 
	C315.819183,435.105469 320.996765,441.215637 329.000000,442.500000 
"/>
<path fill="none" stroke="#000000" stroke-linecap="round" stroke-linejoin="round" stroke-width="7.000000"
	d="
M502.000000,290.500000 
	C494.342743,292.088165 493.116425,297.961853 495.620880,306.966370 
	C498.876984,318.673126 512.690369,325.382507 524.936157,321.782806 
	C530.213318,320.231567 531.297363,317.231842 529.000000,311.000000 
"/>
<path fill="none" stroke="#000000" stroke-linecap="round" stroke-linejoin="round" stroke-width="8.000000"
	d="
M300.000000,259.500000 
	C300.743622,265.675812 303.796783,271.125488 305.522858,276.993286 
	C305.684784,277.543701 306.050385,278.223633 306.517395,278.466522 
	C313.860931,282.286194 313.155212,288.753510 312.592773,295.507721 
	C312.039703,302.149231 313.040527,308.893707 311.500000,315.500000 
"/>
<path fill="none" stroke="#000000" stroke-linecap="round" stroke-linejoin="round" stroke-width="6.000000"
	d="
M277.000000,214.500000 
	C277.987152,221.333328 277.516937,228.163330 277.021332,235.001541 
	C276.804382,237.994720 275.995514,240.620132 273.500000,242.500000 
"/>
<path fill="none" stroke="#000000" stroke-linecap="round" stroke-linejoin="round" stroke-width="5.000000"
	d="
M205.500000,250.000000 
	C214.459915,254.550644 222.287247,260.819672 230.459152,266.558167 
	C231.264328,267.123566 231.500000,268.500000 232.000000,269.500000 
"/>
<path fill="none" stroke="#000000" stroke-linecap="round" stroke-linejoin="round" stroke-width="8.000000"
	d="
M371.000000,350.500000 
	C367.406952,357.222107 367.716583,365.005707 365.171722,372.061951 
	C364.197388,374.763489 364.104218,377.544312 361.570068,379.586914 
	C360.332001,380.584808 359.470886,382.408203 359.063660,384.016113 
	C357.435242,390.446106 352.183716,392.901825 347.000000,395.500000 
"/>
<path fill="none" stroke="#000000" stroke-linecap="round" stroke-linejoin="round" stroke-width="6.000000"
	d="
M245.500000,202.000000 
	C249.907700,207.158112 253.248291,213.245178 260.398560,215.785522 
	C262.286591,216.456314 263.633545,220.187454 264.569183,222.976791 
	C266.329285,228.223938 267.756439,233.810577 270.688599,238.378952 
	C274.337677,244.064316 274.634583,250.591690 277.144897,256.437775 
	C278.136353,258.746674 277.856750,260.804077 278.000000,263.000000 
"/>
<path fill="none" stroke="#000000" stroke-linecap="round" stroke-linejoin="round" stroke-width="8.000000"
	d="
M299.000000,307.500000 
	C304.567261,308.899139 307.082947,314.828918 312.485474,316.545746 
	C314.523193,317.193329 313.262115,319.276855 313.362366,320.511169 
	C313.793579,325.820129 313.264221,331.165680 313.910248,336.510834 
	C314.225983,339.123199 312.811249,341.514343 311.000000,343.500000 
"/>
<path fill="none" stroke="#000000" stroke-linecap="round" stroke-linejoin="round" stroke-width="9.000000"
	d="
M371.000000,327.500000 
	C373.528595,327.877350 375.015381,329.517456 376.567841,331.445374 
	C379.078339,334.563080 380.879059,338.200195 384.408661,340.632538 
	C386.814697,342.290710 386.224854,345.774200 386.451385,348.504028 
	C386.912689,354.063141 386.719604,359.401611 385.504608,365.107452 
	C384.392578,370.329590 384.773712,377.187347 389.500000,382.000000 
"/>
<path fill="none" stroke="#000000" stroke-linecap="round" stroke-linejoin="round" stroke-width="6.000000"
	d="
M237.500000,289.000000 
	C245.099213,290.609985 252.110962,295.007324 260.568146,292.755981 
	C262.876678,292.141418 265.861725,294.764557 268.046234,296.953888 
	C271.366028,300.281036 274.172516,304.481171 279.500000,305.000000 
"/>
<path fill="none" stroke="#000000" stroke-linecap="round" stroke-linejoin="round" stroke-width="7.000000"
	d="
M544.500000,260.500000 
	C548.500000,257.333344 552.481201,254.142517 556.506409,251.008240 
	C559.312622,248.823181 565.552246,250.269852 567.499939,253.500031 
	C569.164429,256.260468 567.639526,259.512878 563.487549,261.473694 
	C558.284302,263.930969 552.711609,264.663696 547.000000,264.500000 
"/>
<path fill="none" stroke="#000000" stroke-linecap="round" stroke-linejoin="round" stroke-width="5.000000"
	d="
M327.000000,265.500000 
	C324.805695,271.172821 321.530304,276.268402 318.536682,281.520905 
	C317.325043,283.646820 315.701050,285.093750 313.500000,286.000000 
"/>
<path fill="none" stroke="#000000" stroke-linecap="round" stroke-linejoin="round" stroke-width="8.000000"
	d="
M384.500000,528.000000 
	C382.603119,524.361511 378.969086,523.582214 375.503235,522.489746 
	C372.487671,521.539124 369.533264,520.381042 366.491577,519.530090 
	C362.679901,518.463684 358.501678,514.335388 358.542633,511.000519 
	C358.601532,506.208069 362.651184,505.687286 366.000000,504.500000 
"/>
<path fill="none" stroke="#000000" stroke-linecap="round" stroke-linejoin="round" stroke-width="7.000000"
	d="
M408.500000,440.000000 
	C404.856232,440.570282 402.924774,442.984100 400.869781,445.908508 
	C397.964111,450.043518 395.361298,455.148407 389.000000,455.000000 
"/>
<path fill="none" stroke="#000000" stroke-linecap="round" stroke-linejoin="round" stroke-width="8.000000"
	d="
M403.500000,527.000000 
	C395.612335,527.062622 387.810211,526.753967 380.413361,530.843262 
	C376.332397,533.099426 371.015350,533.517029 366.549805,532.720642 
	C362.044678,531.917175 361.639587,535.527771 359.661530,537.191956 
	C358.771484,537.940796 358.891144,541.105408 360.548828,542.439331 
	C362.666046,544.143005 364.678345,546.628540 367.995850,545.487915 
	C370.849304,544.506775 373.666656,543.876526 376.500000,545.500000 
"/>
<path fill="none" stroke="#000000" stroke-linecap="round" stroke-linejoin="round" stroke-width="7.000000"
	d="
M557.500000,236.000000 
	C548.724304,235.548920 544.866882,240.071045 543.827393,248.478668 
	C543.405884,251.887909 541.506958,255.189026 541.000000,258.750000 
"/>
<path fill="none" stroke="#000000" stroke-linecap="round" stroke-linejoin="round" stroke-width="7.000000"
	d="
M534.000000,259.500000 
	C531.166626,265.833313 528.333313,272.166656 525.500000,278.500000 
"/>
<path fill="none" stroke="#000000" stroke-linecap="round" stroke-linejoin="round" stroke-width="7.000000"
	d="
M408.500000,312.500000 
	C408.581818,316.178925 411.876770,318.898468 411.143463,323.025482 
	C410.523560,326.514191 410.346558,330.378418 413.000000,333.500000 
"/>
<path fill="none" stroke="#000000" stroke-linecap="round" stroke-linejoin="round" stroke-width="8.000000"
	d="
M504.500000,319.000000 
	C499.422241,324.462372 495.638397,330.859222 491.143066,337.240112 
	C495.339966,340.022858 493.473267,344.057770 492.848846,347.472351 
	C492.047424,351.855133 489.968414,355.785614 485.539642,358.076630 
	C483.150208,359.312683 481.166656,361.333313 479.000000,363.000000 
"/>
<path fill="none" stroke="#000000" stroke-linecap="round" stroke-linejoin="round" stroke-width="7.000000"
	d="
M510.000000,299.000000 
	C515.156860,293.323029 516.537109,287.173370 513.114197,279.945923 
	C512.026489,277.649078 510.920471,275.663239 508.497925,275.622253 
	C506.197693,275.583374 504.201477,277.286713 503.570465,279.519928 
	C502.268433,284.127991 499.985596,288.575500 504.854126,293.155090 
	C508.547394,296.629120 509.096497,302.292053 510.988892,307.004456 
	C511.075317,307.219757 511.000000,307.500000 511.000000,307.750000 
	C511.166687,307.666687 511.333344,307.583344 511.500000,307.500031 
"/>
<path fill="none" stroke="#000000" stroke-linecap="round" stroke-linejoin="round" stroke-width="6.000000"
	d="
M309.500000,433.000000 
	C304.254395,435.973846 298.859497,434.069885 293.496826,433.531494 
	C292.853394,433.466858 292.166656,433.833344 291.500000,434.000000 
"/>
<path fill="none" stroke="#000000" stroke-linecap="round" stroke-linejoin="round" stroke-width="5.000000"
	d="
M326.000000,231.500000 
	C324.179108,235.846466 321.983978,239.987579 319.559631,244.035721 
	C318.413269,245.949890 317.260071,247.521759 315.000000,248.000000 
"/>
<path fill="none" stroke="#000000" stroke-linecap="round" stroke-linejoin="round" stroke-width="6.000000"
	d="
M214.500000,267.500000 
	C219.774994,268.633423 224.607559,271.277344 230.566040,269.759186 
	C233.951614,268.896576 237.336639,272.118408 240.502396,273.995972 
	C242.884857,275.408966 244.831223,277.766418 248.000000,277.500000 
"/>
<path fill="none" stroke="#000000" stroke-linecap="round" stroke-linejoin="round" stroke-width="5.000000"
	d="
M305.500000,223.500000 
	C306.392395,229.402771 306.717682,235.511749 311.500000,240.000000 
"/>
<path fill="none" stroke="#000000" stroke-linecap="round" stroke-linejoin="round" stroke-width="6.000000"
	d="
M243.000000,262.500000 
	C244.953857,267.455811 248.459305,271.556763 248.857803,277.475922 
	C249.097336,281.033875 253.019760,284.258026 256.517792,286.471863 
	C258.834015,287.937744 260.416626,289.812531 261.000000,292.500000 
"/>
<path fill="none" stroke="#000000" stroke-linecap="round" stroke-linejoin="round" stroke-width="8.000000"
	d="
M446.500000,293.500000 
	C448.166656,291.333344 449.833557,289.166809 451.499908,286.999939 
	C453.273560,284.693573 455.970673,283.184814 458.424347,284.185486 
	C461.163940,285.302734 462.020721,288.313446 462.633209,291.474182 
	C464.193542,299.526794 458.432922,304.221588 454.957977,309.974609 
	C454.248108,311.149872 453.000000,312.000000 452.000000,313.000000 
"/>
<path fill="none" stroke="#000000" stroke-linecap="round" stroke-linejoin="round" stroke-width="7.000000"
	d="
M484.500000,204.000000 
	C487.415894,214.643723 484.174927,223.600861 477.031006,231.527939 
	C476.624756,231.978699 476.666656,232.833328 476.499969,233.500000 
"/>
<path fill="none" stroke="#000000" stroke-linecap="round" stroke-linejoin="round" stroke-width="8.000000"
	d="
M531.000000,294.500000 
	C532.832397,295.838898 534.995728,295.209503 536.988403,295.564941 
	C539.226807,295.964142 541.511658,296.758301 541.981140,299.503235 
	C542.359070,301.712952 541.253357,303.209320 539.518433,304.524292 
	C533.259460,309.268005 526.825073,311.699188 518.943481,308.124664 
	C515.711853,306.659027 511.871704,306.264252 509.455078,310.474213 
	C508.034546,312.948853 506.166656,315.166656 504.500000,317.500000 
"/>
<path fill="none" stroke="#000000" stroke-linecap="round" stroke-linejoin="round" stroke-width="5.000000"
	d="
M282.500000,417.000000 
	C277.919312,419.573822 273.169403,417.410248 268.500000,417.500000 
"/>
<path fill="none" stroke="#000000" stroke-linecap="round" stroke-linejoin="round" stroke-width="7.000000"
	d="
M492.000000,353.500000 
	C498.608612,355.512207 502.464722,353.732483 505.000031,347.500000 
	C506.503052,343.805115 504.596771,340.991760 500.500214,341.025970 
	C498.498962,341.042664 496.500000,341.333344 494.500000,341.500000 
"/>
<path fill="none" stroke="#000000" stroke-linecap="round" stroke-linejoin="round" stroke-width="4.000000"
	d="
M289.000000,406.500000 
	C290.500000,408.833344 291.836090,411.296600 293.550934,413.459625 
	C294.968811,415.248016 294.412231,417.122009 294.500000,419.000000 
"/>
<path fill="none" stroke="#000000" stroke-linecap="round" stroke-linejoin="round" stroke-width="7.000000"
	d="
M532.000000,286.000000 
	C531.900879,295.418915 524.447083,300.057251 519.000000,306.000000 
"/>
<path fill="none" stroke="#000000" stroke-linecap="round" stroke-linejoin="round" stroke-width="7.000000"
	d="
M427.500000,388.000000 
	C432.547150,387.971375 437.363953,385.639465 442.500000,386.500000 
"/>
<path fill="none" stroke="#000000" stroke-linecap="round" stroke-linejoin="round" stroke-width="6.000000"
	d="
M366.500000,192.500000 
	C370.030914,194.236206 368.549377,197.354904 368.426178,199.996552 
	C368.378571,201.017654 367.500000,202.000000 367.000000,203.000000 
"/>
<path fill="none" stroke="#000000" stroke-linecap="round" stroke-linejoin="round" stroke-width="3.000000"
	d="
M517.000000,300.000000 
	C516.333374,302.333344 515.666687,304.666656 515.000000,307.000000 
"/>
</svg>