<svg xmlns="http://www.w3.org/2000/svg" width="100%" height="100%" preserveAspectRatio="xMidYMid meet" viewBox="0 0 768 768" fill="currentColor">
<path 
	d="
M447.735474,331.169800 
	C463.792389,339.548737 473.393188,353.140289 480.336243,368.825226 
	C482.412506,373.515717 485.079346,377.055847 489.605042,379.379181 
	C491.814758,380.513550 493.885864,381.973816 495.862701,383.491089 
	C498.073517,385.187897 499.906769,387.316620 498.231812,390.294312 
	C496.561249,393.264252 493.982727,392.132690 491.612000,391.268250 
	C477.787079,386.227142 468.436768,376.012970 462.257629,363.361511 
	C458.135071,354.920807 453.554535,348.152191 444.307831,345.136932 
	C441.560486,344.241028 439.192169,342.182678 435.974030,340.251190 
	C436.633362,344.802521 436.957977,348.807404 439.724182,351.577362 
	C453.908539,365.781006 459.670227,383.887604 463.952789,402.735931 
	C465.170135,408.093719 466.555420,413.426208 466.330597,418.987549 
	C466.181244,422.682739 467.771027,425.761505 469.625336,428.769012 
	C471.897308,432.453888 474.300903,436.067841 476.371765,439.862976 
	C477.843018,442.559174 477.963287,445.471466 475.028290,447.395447 
	C472.012726,449.372253 469.948059,447.261353 468.291870,445.108398 
	C458.931305,432.940247 451.585083,419.834900 449.689636,404.252411 
	C449.047546,398.973450 448.338898,393.702484 447.646393,388.429749 
	C446.970184,383.281250 443.027466,380.177246 439.733459,375.402466 
	C438.594086,384.179901 437.538483,392.019196 435.310059,399.618225 
	C429.642731,418.943848 419.758667,435.270355 402.159210,446.056641 
	C399.388550,447.754700 397.940521,450.185181 397.148560,453.196106 
	C396.132751,457.058258 395.132385,460.927185 393.983185,464.750488 
	C393.262146,467.149323 392.430328,469.951416 389.359558,469.901520 
	C386.367737,469.852936 385.431274,467.128662 384.716125,464.708557 
	C383.584412,460.879089 382.674713,456.984497 381.578094,453.144012 
	C380.836548,450.547028 379.762573,448.116608 377.252777,446.666290 
	C356.819824,434.859131 347.471832,415.555817 341.825684,393.870728 
	C340.368225,388.273041 339.726349,382.462982 338.609711,376.187683 
	C333.632751,381.002411 330.671082,385.967773 330.224396,392.761353 
	C328.948517,412.163818 322.809937,429.870361 310.387756,445.117554 
	C308.769989,447.103210 307.022919,449.150299 304.113556,447.527435 
	C301.307037,445.961884 301.133423,443.331329 301.872253,440.540558 
	C302.039124,439.910187 302.319733,439.237030 302.744995,438.758789 
	C310.703888,429.809265 311.859375,418.682922 313.837646,407.456848 
	C317.443176,386.997101 323.323578,367.209045 338.544037,351.720734 
	C341.249390,348.967773 341.661987,345.221008 342.382477,341.138763 
	C338.020416,342.159760 335.174591,345.683777 331.352722,346.753937 
	C323.856873,348.852905 320.439362,354.139343 317.394806,360.849518 
	C311.249634,374.393433 302.187317,385.517334 287.552490,390.825989 
	C285.108948,391.712402 282.331635,393.413940 280.426208,390.242584 
	C278.466217,386.980347 280.768799,384.325989 283.243866,383.263885 
	C293.098450,379.035278 297.217224,370.695465 301.538055,361.581421 
	C309.896149,343.951447 324.724854,332.768646 342.314850,325.031891 
	C344.601990,324.025879 346.901093,323.033752 349.123322,321.895935 
	C355.599548,318.579834 356.328247,314.878632 351.247864,308.607178 
	C343.615295,314.044464 336.006165,319.617523 328.240417,324.963013 
	C315.199799,333.939453 302.142456,342.950806 286.856812,347.848755 
	C271.403168,352.800568 256.048370,352.652252 240.958527,346.327393 
	C238.516159,345.303680 236.099258,344.071655 233.934769,342.558105 
	C224.715927,336.111786 223.065186,325.884796 229.775513,316.867157 
	C231.552521,314.479126 233.718994,312.380951 235.769165,310.079437 
	C235.233032,308.059937 233.210342,308.222748 231.803970,307.675964 
	C218.933487,302.671906 207.973160,295.275726 199.966980,283.721252 
	C192.583435,273.065308 183.730957,263.365021 179.312363,250.845383 
	C174.714371,237.817429 178.947006,226.008896 190.351318,220.800293 
	C195.744308,218.337219 201.631683,217.918076 207.461838,217.884399 
	C228.421295,217.763382 248.292862,223.017075 267.743988,230.316010 
	C293.851074,240.112595 318.406769,253.251144 343.451447,265.337769 
	C344.311584,265.752869 345.174225,266.162903 346.035706,266.575287 
	C346.388916,266.180695 346.742157,265.786133 347.095398,265.391541 
	C343.686218,262.351349 340.196594,259.395996 336.883118,256.254822 
	C327.401276,247.266052 321.247925,236.260941 318.986633,223.481125 
	C317.736755,216.417343 314.500092,211.126312 309.217194,206.708206 
	C308.326904,205.963669 307.468475,205.150497 306.735443,204.254410 
	C304.877167,201.982803 304.047882,199.543594 306.395416,197.109589 
	C308.584686,194.839676 311.079865,195.464584 313.163330,197.115997 
	C321.212524,203.495865 329.243652,210.338364 330.975891,221.002518 
	C332.651337,231.316895 337.024170,239.121979 345.642426,245.077591 
	C349.513489,247.752686 352.371582,251.893600 355.624756,255.301712 
	C359.420380,253.502777 359.578857,251.903244 357.281006,249.041382 
	C349.252533,239.042313 352.422302,223.927887 363.632416,217.586334 
	C370.714508,213.580002 370.586548,213.653671 366.408386,206.395340 
	C359.667969,194.685883 351.077271,185.069473 338.181091,179.933334 
	C335.722107,178.954010 333.367188,177.589157 331.615387,175.481888 
	C330.049774,173.598572 328.849640,171.374329 330.282135,169.095596 
	C331.801208,166.679169 334.340363,166.359726 336.939972,167.402512 
	C347.049683,171.457886 355.462250,177.914581 362.453217,186.146301 
	C367.847992,192.498520 372.746704,199.268509 376.493286,206.756622 
	C377.644287,209.057098 378.818329,210.113174 381.503876,209.192169 
	C386.361877,207.526077 391.411438,207.539764 396.265991,208.970322 
	C399.590179,209.949905 401.038483,208.752319 402.527405,206.011185 
	C410.093597,192.081329 419.320435,179.570572 433.278351,171.270966 
	C436.149872,169.563522 439.043365,167.907318 442.341736,167.172150 
	C444.465210,166.698868 446.424530,167.164108 447.644287,169.036423 
	C448.885437,170.941544 448.323822,172.907349 447.084412,174.635345 
	C445.174225,177.298538 442.441284,178.981339 439.503754,180.172729 
	C425.316620,185.926620 417.084656,197.427658 409.991730,210.168610 
	C407.434174,214.762680 410.941895,215.924911 413.693085,216.973236 
	C423.645081,220.765320 427.826721,234.600128 423.884552,244.169525 
	C423.071167,246.143951 421.808441,247.952271 420.618561,249.748199 
	C418.780823,252.522034 418.731750,252.489517 422.131409,255.500809 
	C428.409027,248.504272 435.273224,242.066223 442.615936,236.124771 
	C444.502228,234.598450 444.338623,231.513947 444.714966,229.084244 
	C446.640045,216.655838 452.355530,206.494110 462.396057,198.836060 
	C463.321808,198.129974 464.220001,197.370392 465.214569,196.775345 
	C467.555847,195.374619 469.956360,194.881378 471.941376,197.302567 
	C473.923798,199.720718 472.987762,202.105682 471.187042,204.056503 
	C469.160492,206.251999 466.873840,208.214905 464.633331,210.203506 
	C461.905396,212.624710 460.279083,215.543381 459.781982,219.204544 
	C457.653381,234.880692 450.604706,247.917374 438.607880,258.264008 
	C435.590759,260.866089 432.620880,263.522919 429.629303,266.154633 
	C429.990845,266.609924 430.352356,267.065216 430.713898,267.520508 
	C435.964661,264.824768 441.223755,262.145081 446.464874,259.430695 
	C476.353149,243.951462 506.263672,228.473663 538.801270,219.128571 
	C551.918640,215.361206 565.199219,212.291901 579.128723,214.642334 
	C596.794373,217.623184 605.754700,230.068115 599.077881,246.725143 
	C588.214783,273.825806 573.523376,298.347351 542.426392,306.864319 
	C541.677612,307.069397 540.981567,307.466858 540.229797,307.787872 
	C540.981262,309.942749 542.708618,310.760925 544.069946,311.913452 
	C556.050781,322.056732 555.111389,336.725525 541.425293,344.509979 
	C525.963867,353.304138 509.461121,354.048462 492.662659,348.672455 
	C474.438904,342.840363 459.145996,331.801849 443.819397,320.844421 
	C438.285187,316.887878 432.684845,313.023895 427.219513,309.191162 
	C421.846405,313.976318 422.730164,318.767365 429.565979,322.021423 
	C435.584625,324.886444 441.647888,327.637329 447.735474,331.169800 
M547.250549,249.743607 
	C546.167786,251.378387 544.710754,252.882416 545.366943,255.336441 
	C547.278625,256.034088 549.224121,255.759903 551.160156,255.268570 
	C556.640503,253.877731 562.106628,252.429840 567.597229,251.080872 
	C569.363525,250.646927 571.505859,250.075470 572.402527,252.277206 
	C573.239624,254.332962 571.175598,255.139694 569.863281,256.008148 
	C564.318787,259.677277 557.828369,260.676758 551.572021,262.326202 
	C544.738892,264.127747 537.581421,264.577179 530.195007,267.197754 
	C534.235718,269.902893 538.182007,271.156830 542.027405,272.597656 
	C544.363403,273.472961 546.795898,274.097656 549.110229,275.022064 
	C550.943604,275.754364 553.267456,276.607452 552.737061,279.088226 
	C552.126282,281.944794 549.460266,281.424408 547.364441,281.278198 
	C545.894165,281.175598 544.407593,280.778839 543.008057,280.286652 
	C538.299377,278.630676 533.291504,277.462830 529.009766,275.031250 
	C520.222168,270.040802 511.457336,268.809204 501.853363,272.255188 
	C497.502899,273.816132 492.793884,274.357056 488.293701,275.536774 
	C487.202698,275.822815 485.570221,275.740173 485.211975,277.696014 
	C486.114502,278.095276 486.989471,278.523102 487.893890,278.875488 
	C492.235046,280.566956 496.635590,282.119263 500.907227,283.969879 
	C502.835571,284.805298 505.437866,286.083893 504.617554,288.577820 
	C503.731110,291.272675 501.038300,290.306183 498.980682,289.692352 
	C494.359375,288.313782 489.607178,287.208893 485.198303,285.316833 
	C475.150116,281.004730 465.101288,280.216522 454.551361,283.330627 
	C447.744537,285.339813 440.711731,286.583496 433.780212,288.170227 
	C439.899567,291.212585 446.161316,292.096527 452.353119,293.230804 
	C476.904297,297.728638 501.457733,302.215607 526.628052,299.694519 
	C539.836853,298.371490 552.192322,294.827911 562.125183,285.518372 
	C573.732910,274.639069 581.784363,261.183136 588.157104,246.835007 
	C594.451172,232.663849 588.953857,224.774643 573.317932,224.294312 
	C572.818542,224.278976 572.318298,224.287949 571.818970,224.270950 
	C559.317200,223.845444 547.397095,226.744095 535.609070,230.507919 
	C502.575562,241.055252 472.209656,257.347778 441.969238,273.911804 
	C439.107880,275.479126 436.347351,277.230499 433.150574,279.127502 
	C435.356262,280.049438 436.974640,279.719910 438.527466,279.362579 
	C456.030945,275.334930 473.507690,271.189392 491.031921,267.254883 
	C496.523285,266.021973 500.715637,263.238983 504.119965,258.817444 
	C507.162628,254.865707 510.468964,251.101273 513.862732,247.443253 
	C515.235962,245.963058 517.123291,243.734024 519.319275,245.689560 
	C521.180054,247.346619 519.504700,249.469849 518.481750,251.088272 
	C516.388672,254.399689 514.078796,257.574036 511.559753,261.239075 
	C516.800476,262.215363 520.976135,260.067535 525.336670,259.716125 
	C531.254089,259.239288 535.418823,256.897675 538.056641,251.085785 
	C540.531311,245.633347 544.627197,241.056549 549.842163,237.781464 
	C551.591919,236.682602 553.637146,234.696976 555.579041,236.948975 
	C557.341125,238.992371 555.189453,240.613907 553.974792,242.080429 
	C551.957214,244.516159 549.798157,246.834641 547.250549,249.743607 
M262.146362,265.213776 
	C266.121735,265.365814 270.003448,267.685333 274.102814,266.101624 
	C274.052002,263.714783 272.536591,262.492554 271.558685,260.987396 
	C270.017883,258.615845 268.347168,256.317841 266.969238,253.855621 
	C266.177429,252.440765 265.422363,250.594666 267.219360,249.357315 
	C268.926392,248.181915 270.456665,249.296844 271.640961,250.500610 
	C273.154755,252.039291 274.824158,253.576782 275.831238,255.437042 
	C281.684601,266.249207 290.506012,271.336853 302.898865,272.637238 
	C316.800385,274.095947 330.444427,277.856201 344.541718,278.942780 
	C342.696442,277.441650 340.769348,276.192688 338.735748,275.151672 
	C326.133759,268.700653 313.540558,262.231110 300.882538,255.891281 
	C279.690887,245.277359 257.963806,236.056519 234.713898,230.863007 
	C222.909012,228.226044 211.025345,227.161697 199.058334,229.429932 
	C189.193359,231.299759 185.927277,236.910599 188.823044,246.483963 
	C189.841125,249.849747 191.435532,252.959671 193.215012,255.985779 
	C197.024048,262.463257 201.788834,268.282349 205.946960,274.510498 
	C219.139084,294.270050 238.200623,301.861511 261.155304,301.718506 
	C285.258972,301.568298 308.869537,297.851807 332.169098,291.927063 
	C336.379852,290.856323 340.827362,290.432434 345.970367,287.609680 
	C337.837708,286.307098 330.860229,285.737335 324.194092,283.983917 
	C315.760559,281.765533 308.132141,283.235657 300.493896,286.716034 
	C296.715668,288.437531 292.807465,289.941864 288.837036,291.145111 
	C286.821625,291.755890 283.875214,293.077179 282.832428,289.910431 
	C281.972656,287.299530 284.499481,286.191345 286.429199,285.255310 
	C290.114410,283.467773 293.872192,281.829803 297.752014,280.060394 
	C295.585754,277.715668 292.838013,278.590790 290.541962,277.882172 
	C276.950867,273.687561 263.895325,273.850891 251.386749,281.827850 
	C247.838821,284.090424 243.348663,284.944427 239.210495,286.174988 
	C237.764908,286.604828 235.643127,287.183868 234.845917,285.082428 
	C234.062592,283.017548 235.428162,281.525879 237.129532,280.616821 
	C239.324661,279.443939 241.656357,278.528625 243.916245,277.474548 
	C247.517166,275.794922 251.520493,274.827301 255.073700,271.642426 
	C252.200531,271.078217 250.094330,270.617126 247.971176,270.255463 
	C235.141129,268.070007 222.630569,264.688568 210.426956,260.183746 
	C208.131912,259.336578 204.995834,258.507751 206.111801,255.233551 
	C207.111130,252.301605 210.202011,253.471619 212.269852,253.926086 
	C217.138260,254.996033 221.892273,256.576447 226.718597,257.851746 
	C229.762054,258.655945 232.720825,260.153259 236.335495,259.653656 
	C233.206299,253.895081 228.693787,249.868713 224.862762,245.290695 
	C223.536255,243.705566 221.333618,241.719803 223.234543,239.661972 
	C225.319794,237.404602 227.633392,239.446548 229.370468,240.842911 
	C233.938843,244.515213 238.522827,248.548889 240.877960,253.850006 
	C244.299377,261.551178 250.344818,263.914581 257.834229,264.581390 
	C258.994446,264.684692 260.148071,264.861755 262.146362,265.213776 
M407.433929,258.989197 
	C400.739105,254.440369 393.207275,253.806534 385.425476,254.211914 
	C373.002197,254.859100 363.077026,262.558075 360.209045,274.686310 
	C357.811218,284.826508 358.553101,294.855438 363.822418,304.178833 
	C373.317841,320.979584 400.897858,322.643768 412.652893,307.327484 
	C418.698212,299.450775 419.084412,290.524231 418.912262,281.256866 
	C418.743622,272.177551 415.575287,264.737793 407.433929,258.989197 
M518.180603,341.725281 
	C523.033447,341.399292 527.771606,340.414551 532.229431,338.519409 
	C536.570190,336.674042 540.919312,334.377167 541.705444,329.120789 
	C542.536377,323.565063 538.601379,320.325317 534.853760,317.180450 
	C534.347717,316.755798 533.715698,316.484467 533.186829,316.083130 
	C522.634705,308.075409 510.438202,310.991089 498.301422,310.282959 
	C499.459503,312.534271 501.207397,312.829529 502.553619,313.677887 
	C507.481354,316.783142 512.431885,319.853119 517.322998,323.014923 
	C518.605591,323.843994 519.776062,325.027130 518.860352,326.745941 
	C517.946960,328.460327 516.329468,328.208221 514.922485,327.539917 
	C510.716187,325.541809 506.592010,323.370789 502.384796,321.374695 
	C497.669708,319.137634 493.308899,316.076477 487.302124,314.531769 
	C489.158936,317.847443 490.740417,320.353973 491.996094,323.014313 
	C492.998352,325.137878 495.199646,327.914703 492.467377,329.651672 
	C489.985901,331.229187 488.524933,328.120758 487.033905,326.486725 
	C485.917908,325.263702 484.804962,323.937469 484.092041,322.463104 
	C478.715332,311.343262 470.122162,305.555511 457.613739,304.462189 
	C449.176849,303.724762 440.893402,301.231903 432.541321,299.524292 
	C448.951202,312.582184 465.365692,325.296844 483.936707,334.831177 
	C494.409027,340.207672 505.523346,342.447693 518.180603,341.725281 
M265.211273,319.640015 
	C269.574951,317.061340 273.938629,314.482666 277.888458,312.148529 
	C271.194183,312.148529 264.221375,312.058533 257.251862,312.171814 
	C248.964783,312.306519 242.693100,316.564301 237.780350,322.752441 
	C234.507156,326.875366 235.537628,331.423950 239.900223,334.403809 
	C241.807892,335.706879 243.931808,336.767914 246.081360,337.630188 
	C259.741577,343.109802 273.496735,342.463806 287.007324,337.376190 
	C304.832550,330.663757 319.781494,319.033508 335.182404,308.232178 
	C338.810303,305.687775 342.270782,302.904755 346.218384,299.921600 
	C344.418976,299.183441 343.363434,299.562653 342.257721,299.821716 
	C331.571808,302.325378 320.940033,305.126007 310.162964,307.150879 
	C303.309601,308.438568 298.139801,311.641724 294.091064,317.104218 
	C291.215088,320.984375 288.293945,324.833862 285.287964,328.613525 
	C283.981232,330.256592 282.456787,332.710144 280.060883,331.151550 
	C277.306610,329.359711 279.414276,326.974823 280.403137,325.007050 
	C281.535461,322.753815 282.915222,320.624939 284.746552,317.482849 
	C281.011993,319.096222 278.386292,320.136688 275.843262,321.350342 
	C271.637268,323.357635 267.494995,325.498047 263.302826,327.534943 
	C262.092590,328.122986 260.709320,328.681458 259.699799,327.274261 
	C258.703339,325.885162 259.629578,324.706482 260.562958,323.751190 
	C261.840088,322.443970 263.256714,321.273041 265.211273,319.640015 
M351.239685,375.025482 
	C351.742920,376.688141 353.107239,377.227600 354.595306,377.657806 
	C377.710144,384.340179 400.813934,384.999939 423.899597,377.532806 
	C425.657471,376.964203 427.540131,376.352936 427.601746,374.045837 
	C427.715210,369.796509 428.301086,365.513092 427.257812,361.377533 
	C425.034332,360.833282 423.370209,361.826630 421.637390,362.286285 
	C401.311066,367.678589 380.882782,368.073212 360.377350,363.488190 
	C349.617950,361.082367 349.137360,361.472748 350.655060,372.799530 
	C350.721008,373.291534 350.894226,373.769226 351.239685,375.025482 
M393.305817,342.648315 
	C402.724457,341.441162 412.507050,341.956512 421.476562,337.162842 
	C419.880280,332.951294 417.837524,329.555237 415.588440,326.279877 
	C414.421265,324.580078 412.941589,323.925079 410.875549,324.989105 
	C396.518860,332.382965 382.129578,332.144226 367.761566,325.012024 
	C365.776123,324.026489 364.244141,324.402344 363.020325,326.199188 
	C360.782837,329.484253 358.663727,332.828156 357.498169,337.326721 
	C369.000885,341.047729 380.610565,342.327057 393.305817,342.648315 
M360.263275,404.255249 
	C359.480988,404.249878 358.661072,403.699097 357.928619,404.416290 
	C360.651520,414.486053 362.803314,417.186005 369.844604,418.415802 
	C382.531891,420.631744 395.251343,421.088898 407.977325,418.569611 
	C415.811371,417.018707 419.811005,412.461334 420.691864,403.491394 
	C400.774414,408.505371 380.880463,408.840363 360.263275,404.255249 
M385.704712,242.671249 
	C391.043457,242.456955 396.374756,242.765121 402.314240,243.992081 
	C400.134338,237.886353 397.785034,233.054062 399.121948,227.492722 
	C400.542603,221.583054 399.613831,220.223907 393.574127,219.427612 
	C389.453644,218.884338 385.277222,218.741486 381.325745,220.551193 
	C379.580688,221.350388 377.816132,222.339554 378.463196,224.585129 
	C380.290253,230.925842 379.459290,237.000809 376.634918,242.923401 
	C379.701324,244.330276 382.193298,242.250351 385.704712,242.671249 
z"/>
<path 
	d="
M521.860229,391.211823 
	C528.397339,403.415894 528.396606,403.487488 541.722839,403.627594 
	C552.218628,403.737915 562.718933,403.677856 573.178162,404.687683 
	C577.242493,405.080078 579.677795,403.366516 581.460388,399.786102 
	C586.211426,390.243103 591.086792,380.758423 596.119568,371.361298 
	C597.860657,368.110260 597.888550,365.108887 596.574097,361.809784 
	C592.375732,351.273163 587.280579,341.157654 582.289734,330.990417 
	C580.926819,328.213898 578.792297,326.796356 575.752808,326.203613 
	C571.849243,325.442383 567.831299,325.076263 564.135132,323.407501 
	C561.926208,322.410248 559.697571,321.197937 559.899536,318.458618 
	C560.119934,315.469177 562.860840,315.014557 565.123413,314.826813 
	C570.784180,314.357147 576.454651,314.531708 581.975586,316.083740 
	C586.190186,317.268463 589.418579,319.847534 591.446777,323.712585 
	C597.406982,335.070679 602.937195,346.634583 607.733398,358.539642 
	C609.991394,364.144409 609.575684,369.459991 606.743225,374.870575 
	C601.721924,384.462067 597.287964,394.367615 592.082153,403.853027 
	C589.508179,408.543091 589.704102,412.274475 592.410583,416.743927 
	C596.806763,424.003662 600.609131,431.621063 604.732544,439.048401 
	C608.451538,445.747498 609.041443,452.552704 605.877625,459.635010 
	C602.481628,467.237061 598.760681,474.728271 595.919983,482.536499 
	C590.965698,496.153992 581.885498,502.992218 567.154724,503.489624 
	C556.388000,503.853149 545.692322,506.036072 534.933167,507.079376 
	C531.567810,507.405701 529.951111,508.967560 528.695496,511.805908 
	C523.238281,524.141846 517.708679,536.446472 512.096313,548.712585 
	C510.576324,552.034607 508.831665,555.278992 506.912506,558.387634 
	C503.579346,563.786560 498.558319,566.540588 492.241882,566.248230 
	C479.109039,565.640320 465.969360,565.003418 452.870575,563.918640 
	C447.321533,563.459106 443.971466,565.213318 441.078461,569.994812 
	C435.910248,578.536560 430.058838,586.665955 424.465759,594.949280 
	C421.208008,599.774048 416.901062,602.781738 410.840851,602.927795 
	C396.847107,603.265076 382.859406,603.321533 368.867950,602.746643 
	C360.779877,602.414368 355.164062,598.359985 350.974426,591.734497 
	C345.988434,583.849609 340.760895,576.115540 335.867188,568.174927 
	C333.774231,564.778870 331.308624,563.525574 327.238739,563.858093 
	C314.630341,564.888489 301.972382,565.311462 289.363678,566.338684 
	C279.573151,567.136292 272.966064,562.910583 268.940277,554.366882 
	C262.835938,541.411865 256.428162,528.558228 251.206909,515.246765 
	C248.711212,508.884003 245.120499,506.791412 238.852356,506.253754 
	C226.102509,505.160187 213.386200,503.657745 200.764389,501.383636 
	C194.502777,500.255493 190.083862,497.096741 187.082138,491.649811 
	C180.799896,480.249939 175.636551,468.340576 170.874313,456.244110 
	C168.504059,450.223389 170.235336,444.745575 173.144058,439.516998 
	C177.678711,431.365692 182.299820,423.258606 187.082565,415.251221 
	C188.904144,412.201508 189.052032,409.451447 187.453918,406.329102 
	C182.292877,396.245514 177.224243,386.114502 172.144958,375.989227 
	C170.725647,373.159882 169.244034,370.335358 169.698593,366.978363 
	C169.919373,365.347870 170.729218,364.201721 172.231934,363.546112 
	C173.867325,362.832581 175.139816,363.501312 176.259567,364.648102 
	C178.487244,366.929596 180.302063,369.516876 181.816833,372.313995 
	C186.893616,381.688599 192.101715,390.996552 196.946747,400.489655 
	C198.547012,403.625122 200.466904,405.073273 203.935516,404.677795 
	C217.699982,403.108429 231.568726,404.228851 245.364471,403.127319 
	C249.032837,402.834442 251.045197,401.397308 252.665756,398.268402 
	C257.567291,388.804749 262.664673,379.441620 267.764221,370.082092 
	C269.118256,367.596954 270.734222,365.242279 272.933258,363.387238 
	C274.236267,362.288055 275.705444,361.264954 277.454132,362.185486 
	C279.426300,363.223633 279.594849,365.216339 278.972046,366.998413 
	C277.326111,371.708130 275.665558,376.436798 273.598663,380.970001 
	C269.937897,388.998810 266.074005,396.940308 262.078430,404.808319 
	C260.678223,407.565582 260.429016,409.909973 261.796997,412.783295 
	C268.168732,426.166870 274.407715,439.614532 280.578247,453.092346 
	C281.864319,455.901428 283.688385,456.943665 286.769989,456.979584 
	C300.092651,457.134857 313.417236,457.392670 326.730865,457.888062 
	C330.451996,458.026550 332.581909,456.762909 334.155487,453.469482 
	C337.030060,447.453247 340.458435,441.725555 344.297302,436.265503 
	C345.414825,434.676025 346.241028,432.702759 348.833923,432.065033 
	C352.613403,435.597473 353.267792,439.942505 351.208801,444.577942 
	C348.709564,450.204590 345.890076,455.696045 343.029572,461.151825 
	C341.818390,463.461914 341.791412,465.348358 343.139679,467.658508 
	C349.268829,478.160126 355.316803,488.711731 361.200165,499.352509 
	C362.939545,502.498291 365.081543,503.831909 368.737793,503.789368 
	C382.400574,503.630310 396.067047,503.700012 409.731171,503.804626 
	C412.670807,503.827118 414.789917,503.046753 416.319641,500.352722 
	C422.652557,489.199493 429.059998,478.087585 435.562561,467.032532 
	C436.905121,464.750061 436.150757,462.959503 435.163452,460.975616 
	C432.642456,455.909607 430.101013,450.851257 427.722260,445.718292 
	C426.892120,443.926910 426.309662,441.960602 425.979797,440.012238 
	C425.533905,437.378754 426.272766,434.735962 428.645569,433.476807 
	C431.510742,431.956268 432.760162,434.898804 434.107147,436.547363 
	C438.456238,441.870300 441.345856,448.114990 444.588043,454.117157 
	C446.020111,456.768250 447.776703,458.047241 450.879303,457.949402 
	C464.694244,457.513885 478.513306,457.192322 492.332733,456.926910 
	C494.836243,456.878815 496.299042,455.857941 497.331940,453.625458 
	C503.765991,439.718903 510.244263,425.832458 516.791809,411.979065 
	C517.833130,409.775818 517.721619,407.885620 516.487000,405.861450 
	C510.381256,395.850555 507.351929,384.472961 502.415314,373.934662 
	C500.928925,370.761597 498.487976,366.173248 502.344727,363.998047 
	C506.474976,361.668549 507.898712,366.969452 509.793243,369.514465 
	C514.687622,376.089294 517.859253,383.681274 521.860229,391.211823 
M345.108734,526.645447 
	C347.360443,522.380920 349.616882,518.118835 351.861877,513.850769 
	C352.984650,511.716217 353.627350,509.597870 352.286011,507.241089 
	C345.870361,495.968506 340.089935,484.336517 333.109711,473.382965 
	C331.507996,470.869537 329.573059,469.226837 326.267242,469.238464 
	C313.123627,469.284668 299.978455,469.199829 286.835846,469.019928 
	C283.482727,468.974030 281.223877,470.239685 279.379150,472.985840 
	C273.258606,482.097290 267.032471,491.138367 260.781189,500.160950 
	C259.088745,502.603699 258.955475,504.973511 260.131836,507.666504 
	C266.456635,522.145508 272.833069,536.596619 279.943909,550.716675 
	C281.510925,553.828369 283.641388,554.963013 287.066803,554.864319 
	C300.863708,554.466797 314.584930,553.118652 328.327332,551.989014 
	C331.612427,551.718872 333.381134,550.195557 334.730988,547.390137 
	C337.975647,540.646790 341.411591,533.995544 345.108734,526.645447 
M503.098389,479.370331 
	C502.348083,478.271332 501.469482,477.237854 500.869354,476.062195 
	C498.048676,470.536713 493.710480,468.662781 487.473785,468.948517 
	C476.014923,469.473541 464.520111,469.314209 453.041412,469.246307 
	C449.313293,469.224274 446.635071,470.487610 444.819366,473.730652 
	C438.645264,484.758240 432.457916,495.778503 426.239746,506.781281 
	C424.881470,509.184631 424.960236,511.464935 426.207306,513.887573 
	C432.068756,525.274414 437.875305,536.689514 443.707794,548.091309 
	C444.737823,550.104797 446.066498,551.576233 448.610718,551.738770 
	C462.700836,552.639160 476.718384,554.489807 490.855896,554.846069 
	C494.497131,554.937866 496.611420,553.678589 498.323181,550.435059 
	C505.785034,536.295959 511.474213,521.350281 518.413635,506.980194 
	C519.599670,504.524231 519.063171,502.620972 517.612488,500.542542 
	C512.852783,493.723480 508.198364,486.830841 503.098389,479.370331 
M259.948792,436.464020 
	C257.382202,430.863770 254.642944,425.334290 252.308319,419.638947 
	C250.689148,415.688965 248.247681,414.070435 243.909576,414.309753 
	C230.447021,415.052399 216.968765,415.514374 203.495255,416.051208 
	C201.029633,416.149445 199.006042,416.736816 197.681625,419.128662 
	C192.681366,428.159027 187.551071,437.117310 182.531342,446.137024 
	C181.277878,448.389313 180.855789,450.766296 181.910049,453.327423 
	C186.474731,464.416443 191.504791,475.289642 196.902756,485.994080 
	C198.176270,488.519501 200.187912,490.126617 203.049286,490.590363 
	C217.008377,492.852936 231.077591,494.196777 245.125153,495.737732 
	C248.462524,496.103821 250.366455,494.641296 252.089035,492.084686 
	C257.951538,483.384003 263.855896,474.708954 269.912933,466.143402 
	C271.798187,463.477295 271.871857,461.160400 270.439056,458.300964 
	C266.934509,451.306946 263.660645,444.197327 259.948792,436.464020 
M515.732788,442.108521 
	C513.044312,447.835022 510.391083,453.578522 507.650970,459.280182 
	C506.458984,461.760437 506.574554,463.852692 508.235992,466.220886 
	C514.070251,474.537048 519.830566,482.912598 525.337097,491.447449 
	C527.514465,494.822266 530.051392,496.194183 534.013184,495.673187 
	C547.197632,493.939453 560.394470,492.292297 573.603394,490.756805 
	C577.669983,490.284119 580.340393,488.318481 581.987793,484.658234 
	C586.428406,474.791748 590.873779,464.926880 595.406067,455.102325 
	C597.185486,451.245087 596.629211,447.803284 594.531677,444.220245 
	C590.073547,436.604553 585.737732,428.913025 581.545044,421.148224 
	C579.685242,417.703918 577.236206,416.169769 573.220642,416.066132 
	C559.740173,415.718231 546.265381,415.091949 532.795776,414.424042 
	C529.664429,414.268738 527.767517,415.439331 526.533325,418.214203 
	C523.082581,425.972504 519.561218,433.699371 515.732788,442.108521 
M424.511047,535.900635 
	C421.619995,530.463013 418.688263,525.046570 415.856110,519.578430 
	C414.558289,517.072693 412.623138,516.046448 409.825806,516.014587 
	C396.338776,515.861084 382.851105,515.679749 369.367798,515.341919 
	C365.730286,515.250854 363.420776,516.699829 361.736542,519.802185 
	C355.538300,531.219177 349.818359,542.871460 344.310089,554.632629 
	C343.232849,556.932739 343.185333,559.000610 344.631500,561.213562 
	C350.279785,569.856628 355.857941,578.545837 361.417023,587.246704 
	C363.478210,590.472839 366.215393,591.934082 370.154053,591.878784 
	C382.977814,591.698669 395.805878,591.677795 408.630371,591.798828 
	C412.214020,591.832581 414.676605,590.483154 416.516357,587.576660 
	C422.126404,578.713562 427.740082,569.852722 433.379333,561.008179 
	C434.987579,558.485779 434.809967,556.088135 433.437378,553.491638 
	C430.481567,547.900208 427.686310,542.223938 424.511047,535.900635 
z"/>
<path 
	d="
M374.487244,275.596802 
	C372.526703,282.399597 372.859192,288.741394 374.758423,295.090698 
	C375.388916,297.198547 376.939911,299.946655 374.141754,301.301422 
	C371.239685,302.706512 369.669006,299.847809 368.264160,297.955017 
	C362.514648,290.208679 363.991455,273.955383 370.927612,267.362183 
	C372.271484,266.084778 373.792603,264.755005 375.754517,265.765076 
	C378.065643,266.954926 376.911163,268.851501 376.314941,270.534912 
	C375.761841,272.096558 375.171814,273.645172 374.487244,275.596802 
z"/>
</svg>